<svg xmlns="http://www.w3.org/2000/svg" xmlns:xlink="http://www.w3.org/1999/xlink" width="42.086" height="40.906" viewBox="0 0 42.086 40.906">
  <defs>
    <clipPath id="clip-path">
      <rect id="Rect치ngulo_403833" data-name="Rect치ngulo 403833" width="27.471" height="34.953" fill="#12263f"/>
    </clipPath>
  </defs>
  <g id="Grupo_1103716" data-name="Grupo 1103716" transform="translate(-1169.333 -4685.365)">
    <g id="Grupo_1100929" data-name="Grupo 1100929" transform="translate(1169.333 4685.365)">
      <rect id="Rect치ngulo_402862" data-name="Rect치ngulo 402862" width="26.726" height="40.906" rx="13.363" transform="translate(0 0)" fill="#4b96e3"/>
      <circle id="Elipse_11523" data-name="Elipse 11523" cx="5.727" cy="5.727" r="5.727" transform="translate(0 0)" fill="#ffbe01"/>
    </g>
    <g id="Grupo_1102574" data-name="Grupo 1102574" transform="translate(1183.949 4689.06)">
      <g id="Grupo_1102573" data-name="Grupo 1102573" clip-path="url(#clip-path)">
        <path id="Trazado_913218" data-name="Trazado 913218" d="M4.514,265.591c-.431-.334-.469-.543-.174-1.006.434-.681.884-1.351,1.3-2.043a.879.879,0,0,1,.832-.467c3.048-.041,6.1-.1,9.145-.144a3.188,3.188,0,0,0,2.3-.942q4.059-4.05,8.11-8.107a1.351,1.351,0,0,0,.087-.107,6.559,6.559,0,0,0-.991-.982,1.633,1.633,0,0,0-.97-.158,2.141,2.141,0,0,0-1.331.7c-1.821,1.831-3.656,3.648-5.472,5.484a2.661,2.661,0,0,1-2.009.845c-1.274-.012-2.548,0-3.822-.006-.145,0-.34.013-.424-.069a.8.8,0,0,1-.279-.521c.015-.166.214-.341.372-.458.093-.069.263-.04.4-.04,1.286,0,2.571.007,3.857-.005a1.314,1.314,0,0,0,1.361-1.567,1.284,1.284,0,0,0-1.241-1.067c-.671-.02-1.342-.009-2.013-.009-2.275,0-4.551.03-6.826-.013a2.784,2.784,0,0,0-2.636,1.42c-.961,1.557-1.96,3.091-2.945,4.634a1.729,1.729,0,0,1-.216.3.507.507,0,0,1-.683.078.516.516,0,0,1-.2-.658.724.724,0,0,1,.081-.149Q1.71,258.05,3.3,255.565a3.553,3.553,0,0,1,3.2-1.74c2.992.014,5.984,0,8.976.008a2.378,2.378,0,0,1,2.345,1.694c.018.05.034.1.065.189.115-.108.206-.188.291-.273,1.312-1.311,2.617-2.628,3.936-3.931a3.106,3.106,0,0,1,2.923-.934A2.359,2.359,0,0,1,26,251.1a17.025,17.025,0,0,1,1.215,1.2.568.568,0,0,1,0,.942q-4.245,4.249-8.5,8.494a4.285,4.285,0,0,1-3.092,1.294c-2.9.036-5.8.094-8.7.132a.613.613,0,0,0-.6.331c-.334.568-.7,1.119-1.065,1.666a3.663,3.663,0,0,1-.41.44Z" transform="translate(0 -230.638)" fill="#12263f"/>
        <path id="Trazado_913219" data-name="Trazado 913219" d="M15.667,135.594q-.371.949-.742,1.9c-.17.432-.3.522-.765.522H6.9v.409q0,2.917,0,5.835c0,.1,0,.205,0,.307a.543.543,0,0,1-.529.556.554.554,0,0,1-.552-.538,3.253,3.253,0,0,1-.007-.341q0-2.883,0-5.767v-.461h-1.4c-.148,0-.3,0-.444,0-.554-.011-.782-.342-.58-.863q.837-2.16,1.687-4.315c.34-.867.342-.866,1.281-.866h20.1c.668,0,.727.041.973.669q.868,2.221,1.736,4.442c.241.619.024.931-.646.934l-1.194.006a.646.646,0,0,0-.114.034v.821c0,.5,0,1,0,1.5-.005.434-.21.671-.56.665s-.526-.233-.528-.653c0-.772,0-1.544,0-2.357-.151-.007-.282-.017-.412-.017H18.468c-.541,0-.641-.068-.837-.565-.24-.609-.479-1.218-.779-1.821-.005.116-.015.231-.015.347q0,3.668,0,7.336c0,.08,0,.159,0,.239-.008.423-.219.682-.553.68s-.537-.248-.537-.684q0-3.788,0-7.575v-.366l-.077-.011m1.43-2.531c.055.159.085.255.122.348.419,1.068.847,2.131,1.251,3.2a.415.415,0,0,0,.466.317c2.878-.009,5.755-.006,8.633-.007.107,0,.213-.011.353-.019-.466-1.189-.927-2.336-1.362-3.492a.458.458,0,0,0-.51-.359c-2.855.012-5.71.007-8.564.007ZM4.652,136.9a1.488,1.488,0,0,0,.156.023q4.468,0,8.937.007c.208,0,.266-.1.328-.26.43-1.111.869-2.22,1.3-3.33a2.568,2.568,0,0,0,.071-.262c-.085-.007-.141-.017-.2-.017q-4.417,0-8.835-.006a.33.33,0,0,0-.364.264c-.124.353-.269.7-.406,1.048L4.652,136.9" transform="translate(-3.049 -121.502)" fill="#12263f"/>
        <path id="Trazado_913220" data-name="Trazado 913220" d="M63.233,4.359,61.687,2.826c-.5.316-1.033.642-1.553.987a.766.766,0,0,1-.889.057,1.906,1.906,0,0,0-.531-.227.873.873,0,0,1-.7-.809c-.1-.569-.247-1.132-.378-1.719H55.467c-.135.6-.284,1.2-.405,1.816a.771.771,0,0,1-.612.688.822.822,0,0,0-.285.109A1.182,1.182,0,0,1,52.617,3.6c-.385-.3-.82-.527-1.2-.769L49.871,4.368c.3.483.619,1.019.969,1.531a.8.8,0,0,1,.054.948,1.337,1.337,0,0,0-.175.405.963.963,0,0,1-.917.808c-.481.074-.951.221-1.43.314a.245.245,0,0,0-.237.3c.009.273.012.547,0,.819a.527.527,0,0,1-.561.554.521.521,0,0,1-.517-.562c-.013-.489-.007-.978,0-1.467a.547.547,0,0,1,.484-.569L49.4,7.026a.538.538,0,0,0,.338-.825c-.326-.52-.658-1.037-.982-1.558a.575.575,0,0,1,.1-.875q.974-.981,1.954-1.955c.32-.318.509-.336.9-.089.511.319,1.019.643,1.529.963a.529.529,0,0,0,.825-.333c.136-.586.264-1.175.4-1.762C54.567.13,54.724,0,55.19,0q1.365,0,2.73,0c.452,0,.6.121.7.572.136.587.268,1.174.4,1.761a.533.533,0,0,0,.846.344c.511-.319,1.019-.643,1.529-.963a.6.6,0,0,1,.9.1q.98.975,1.953,1.956a.572.572,0,0,1,.1.85c-.329.531-.667,1.057-1,1.588a.527.527,0,0,0,.336.808c.608.141,1.219.272,1.827.415a.574.574,0,0,1,.534.667c0,.444.006.887,0,1.331-.006.382-.215.607-.544.607s-.537-.225-.544-.606c-.006-.328,0-.657,0-1.007-.649-.148-1.275-.3-1.906-.43a.724.724,0,0,1-.6-.527,5.118,5.118,0,0,0-.3-.723.7.7,0,0,1,.052-.767c.354-.542.692-1.094,1.024-1.622" transform="translate(-43.313 0)" fill="#12263f"/>
        <path id="Trazado_913221" data-name="Trazado 913221" d="M107.477,55.158a5.147,5.147,0,0,1,5.113,4.893,1.155,1.155,0,0,1-.06.465.481.481,0,0,1-.585.3.524.524,0,0,1-.439-.565,4.11,4.11,0,0,0-.638-2.127,4.028,4.028,0,0,0-7.423,1.94c0,.079,0,.16-.013.238a.539.539,0,0,1-.594.523.524.524,0,0,1-.487-.588,4.973,4.973,0,0,1,1.363-3.433,5.124,5.124,0,0,1,3.764-1.644" transform="translate(-94.231 -50.783)" fill="#12263f"/>
      </g>
    </g>
  </g>
</svg>
