<svg id="Grupo_1102613" data-name="Grupo 1102613" xmlns="http://www.w3.org/2000/svg" xmlns:xlink="http://www.w3.org/1999/xlink" width="259.922" height="190.35" viewBox="0 0 259.922 190.35">
  <defs>
    <clipPath id="clip-path">
      <rect id="Rectángulo_403855" data-name="Rectángulo 403855" width="259.922" height="190.35" fill="none"/>
    </clipPath>
    <clipPath id="clip-path-3">
      <rect id="Rectángulo_403852" data-name="Rectángulo 403852" width="148.072" height="145.472" fill="none"/>
    </clipPath>
    <clipPath id="clip-path-4">
      <rect id="Rectángulo_403853" data-name="Rectángulo 403853" width="13.662" height="10.203" fill="none"/>
    </clipPath>
  </defs>
  <g id="Grupo_1102612" data-name="Grupo 1102612" clip-path="url(#clip-path)">
    <g id="Grupo_1102611" data-name="Grupo 1102611">
      <g id="Grupo_1102610" data-name="Grupo 1102610" clip-path="url(#clip-path)">
        <path id="Trazado_913313" data-name="Trazado 913313" d="M119.643,32.761s-.018-.134-.046-.387-.069-.631-.122-1.119c-.1-.985-.258-2.431-.458-4.313l.084.035-.007.006a.052.052,0,0,1-.075-.071,16.68,16.68,0,0,0,3.074-7.62,16.292,16.292,0,0,0,.145-2.568,18.722,18.722,0,0,0-.3-2.733A16.562,16.562,0,0,0,90.1,11.381a16.876,16.876,0,0,0-.9,7.569,16.319,16.319,0,0,0,2.359,6.781A16.625,16.625,0,0,0,101.6,33.108l.692.163a4.476,4.476,0,0,0,.687.13l1.355.178a23.036,23.036,0,0,0,2.588.006A16.617,16.617,0,0,0,114.676,31a.051.051,0,0,1,.043-.005l3.649,1.3.948.341c.214.078.327.122.327.122s-.1-.031-.312-.1l-.942-.316-3.7-1.255.043-.005a16.607,16.607,0,0,1-7.8,2.654,23.1,23.1,0,0,1-2.612.005l-1.369-.174a4.568,4.568,0,0,1-.695-.129l-.7-.162a16.788,16.788,0,0,1-10.177-7.438,16.517,16.517,0,0,1-2.4-6.867,17.087,17.087,0,0,1,.9-7.675A16.69,16.69,0,0,1,94.4,4.589a7.533,7.533,0,0,1,.776-.655l.8-.622.849-.543a6.867,6.867,0,0,1,.865-.5l.89-.453c.292-.159.613-.253.916-.381s.61-.252.924-.348l.946-.266a16.545,16.545,0,0,1,7.57-.237A16.833,16.833,0,0,1,119.97,8.321a16.661,16.661,0,0,1,2.145,5.639,18.837,18.837,0,0,1,.294,2.762,16.49,16.49,0,0,1-.158,2.592,16.679,16.679,0,0,1-3.146,7.66l-.075-.071.007-.006a.053.053,0,0,1,.073.007.06.06,0,0,1,.012.028c.173,1.9.306,3.362.4,4.357.042.482.075.85.1,1.106s.028.366.028.366" transform="translate(-31.738 -0.089)" fill="#8ab2ee"/>
        <path id="Trazado_913314" data-name="Trazado 913314" d="M105.867,33.852c-.321,0-.648-.01-.984-.02-.216-.006-.433-.013-.653-.017l-1.386-.175a4.8,4.8,0,0,1-.714-.132l-.7-.162a16.8,16.8,0,0,1-5.609-2.566,17.114,17.114,0,0,1-4.667-4.943A16.715,16.715,0,0,1,88.733,18.9a17.245,17.245,0,0,1,.909-7.747A16.812,16.812,0,0,1,94.2,4.382a6.555,6.555,0,0,1,.689-.588l.9-.7.861-.551a7,7,0,0,1,.884-.516l.885-.451a4.67,4.67,0,0,1,.606-.26c.107-.041.215-.081.321-.125s.222-.086.33-.129c.2-.081.4-.161.609-.225l.95-.267a16.7,16.7,0,0,1,7.646-.239,17,17,0,0,1,11.143,7.816,16.73,16.73,0,0,1,2.165,5.693,15.611,15.611,0,0,1,.269,2.366l.026.415a16.558,16.558,0,0,1-.159,2.624,16.9,16.9,0,0,1-3.121,7.659l.487,5.387c.02.237.027.357.028.369v.012h0a.164.164,0,0,1-.053.118.164.164,0,0,1-.069.036.156.156,0,0,1-.06,0,.121.121,0,0,1-.026-.006c-.017,0-.12-.037-.314-.1l-4.549-1.538a16.8,16.8,0,0,1-7.785,2.624c-.327.032-.656.042-.991.042M105.6.542a16.493,16.493,0,0,0-11.024,4.25,16.29,16.29,0,0,0-4.413,6.552,16.729,16.729,0,0,0-.888,7.5,16.211,16.211,0,0,0,2.336,6.714,16.616,16.616,0,0,0,4.512,4.8,16.338,16.338,0,0,0,5.43,2.506l.69.162a4.338,4.338,0,0,0,.665.127l1.36.179c.205,0,.426.011.645.018a15.015,15.015,0,0,0,1.906-.013,16.513,16.513,0,0,0,7.681-2.558.2.2,0,0,1,.183-.022l4.6,1.643.082.03c0-.038-.01-.08-.014-.126l-.573-5.371a.215.215,0,0,1,.025-.2,16.588,16.588,0,0,0,3.045-7.547,16.2,16.2,0,0,0,.144-2.543l-.029-.422a15.318,15.318,0,0,0-.268-2.281,16.3,16.3,0,0,0-2.118-5.519A16.5,16.5,0,0,0,108.768.868,15.447,15.447,0,0,0,105.6.542" transform="translate(-31.649 0)" fill="#8ab2ee"/>
        <path id="Trazado_913315" data-name="Trazado 913315" d="M102.418,23.313l2.3-2.3,4.437,3.945,8.71-8.382,2.137,2.3L108.828,29.394Z" transform="translate(-36.575 -5.919)" fill="#4b96e3"/>
        <path id="Trazado_913316" data-name="Trazado 913316" d="M270.4,74.027a60.556,60.556,0,0,1,13.957,7.76l13.451-6.232L312.958,94.6l-9.4,11.316a58.385,58.385,0,0,1,4.294,15.182l13.991,4.935-3,23.991-14.786,1.468a58.9,58.9,0,0,1-7.9,13.714L302.5,178.42,283.114,193.3l-11.52-9.238a61.121,61.121,0,0,1-15.451,4.218l-5.025,13.744L226.7,199.087l-1.5-14.528a60.569,60.569,0,0,1-13.958-7.763L197.8,183.027l-15.149-19.043,9.4-11.318a58.445,58.445,0,0,1-4.293-15.181l-13.99-4.935,2.995-23.991,14.787-1.469a58.932,58.932,0,0,1,7.9-13.714l-6.341-13.213L212.491,65.28l11.521,9.238A61.145,61.145,0,0,1,239.463,70.3l5.024-13.744L268.906,59.5Zm-13.89,30.555c-16.939-4.864-33.489,7.207-33.986,24.184a26.043,26.043,0,0,0,18.782,25.5c16.941,4.869,33.5-7.2,33.991-24.186a26.043,26.043,0,0,0-18.788-25.5" transform="translate(-62.054 -20.197)" fill="#4b96e3"/>
        <g id="Grupo_1102606" data-name="Grupo 1102606" transform="translate(111.713 36.359)" opacity="0.2">
          <g id="Grupo_1102605" data-name="Grupo 1102605">
            <g id="Grupo_1102604" data-name="Grupo 1102604" clip-path="url(#clip-path-3)">
              <path id="Trazado_913317" data-name="Trazado 913317" d="M270.4,74.027a60.556,60.556,0,0,1,13.957,7.76l13.451-6.232L312.958,94.6l-9.4,11.316a58.385,58.385,0,0,1,4.294,15.182l13.991,4.935-3,23.991-14.786,1.468a58.9,58.9,0,0,1-7.9,13.714L302.5,178.42,283.114,193.3l-11.52-9.238a61.121,61.121,0,0,1-15.451,4.218l-5.025,13.744L226.7,199.087l-1.5-14.528a60.569,60.569,0,0,1-13.958-7.763L197.8,183.027l-15.149-19.043,9.4-11.318a58.445,58.445,0,0,1-4.293-15.181l-13.99-4.935,2.995-23.991,14.787-1.469a58.932,58.932,0,0,1,7.9-13.714l-6.341-13.213L212.491,65.28l11.521,9.238A61.145,61.145,0,0,1,239.463,70.3l5.024-13.744L268.906,59.5Zm-13.89,30.555c-16.939-4.864-33.489,7.207-33.986,24.184a26.043,26.043,0,0,0,18.782,25.5c16.941,4.869,33.5-7.2,33.991-24.186a26.043,26.043,0,0,0-18.788-25.5" transform="translate(-173.767 -56.556)"/>
            </g>
          </g>
        </g>
        <path id="Trazado_913318" data-name="Trazado 913318" d="M283.509,130.618s.139.035.408.118l1.187.38a25.109,25.109,0,0,1,10.267,6.726c.249.273.523.535.766.832l.732.911a23.558,23.558,0,0,1,1.426,1.99,11.916,11.916,0,0,1,.661,1.094l.645,1.145.57,1.223.291.624q.121.324.244.652.242.657.491,1.329l.392,1.4q.1.353.195.71.069.364.14.732c.087.492.2.985.269,1.49a25.891,25.891,0,0,1,.222,3.11c.006.53.032,1.065-.015,1.6-.031.539-.052,1.083-.13,1.628a26.044,26.044,0,0,1-1.623,6.595,25.729,25.729,0,0,1-3.552,6.264,26.483,26.483,0,0,1-5.423,5.279,26.923,26.923,0,0,1-7,3.639,27.234,27.234,0,0,1-16.4.376A26.3,26.3,0,0,1,249.4,156.873a25.869,25.869,0,0,1,11.076-22.58,26.848,26.848,0,0,1,9.133-4.11,27.409,27.409,0,0,1,7.543-.683,29.171,29.171,0,0,1,4.744.674l1.2.323c.27.075.406.122.406.122s-.142-.025-.415-.089l-1.209-.291a30.746,30.746,0,0,0-4.736-.611,27.6,27.6,0,0,0-7.495.734,26.781,26.781,0,0,0-9.042,4.121,25.982,25.982,0,0,0-7.947,8.984A25.78,25.78,0,0,0,268.36,180.15a26.934,26.934,0,0,0,16.2-.365,26.621,26.621,0,0,0,6.925-3.589,26.221,26.221,0,0,0,5.367-5.209,25.448,25.448,0,0,0,3.523-6.185,25.825,25.825,0,0,0,1.621-6.52c.078-.539.1-1.077.133-1.611a15.77,15.77,0,0,0,.02-1.587,25.678,25.678,0,0,0-.21-3.079c-.066-.5-.177-.989-.262-1.475q-.067-.364-.135-.726-.1-.354-.191-.7-.193-.7-.383-1.385l-.482-1.319a25.743,25.743,0,0,0-5.25-8.428,27.266,27.266,0,0,0-5.841-4.75,28.416,28.416,0,0,0-4.315-2.039l-1.175-.41c-.264-.094-.4-.15-.4-.15" transform="translate(-89.051 -46.234)" fill="#8ab2ee"/>
        <path id="Trazado_913319" data-name="Trazado 913319" d="M270.309,73.977s-.04-.309-.107-.926-.166-1.545-.3-2.763c-.258-2.45-.642-6.084-1.144-10.835l.046.046-24.422-2.91.088-.054c-1.519,4.166-3.207,8.8-5.012,13.748l-.02.054-.058.008a61.336,61.336,0,0,0-15.423,4.222l-.059.025-.05-.04-11.527-9.231h.145L193.092,80.215l.038-.158c1.964,4.088,4.129,8.593,6.348,13.211l.036.075-.051.066a59.075,59.075,0,0,0-7.877,13.685l-.032.079-.084.008-14.786,1.474.13-.127c-.939,7.533-1.951,15.661-2.988,23.991l-.1-.163,13.991,4.932.089.031.013.094a58.565,58.565,0,0,0,4.284,15.139l.039.089-.062.075-9.4,11.319,0-.2,15.15,19.042-.2-.046,13.45-6.232.089-.041.078.058a60.571,60.571,0,0,0,13.906,7.736l.014.006.093.037.01.1q.752,7.311,1.495,14.528l-.143-.145,24.418,2.942-.172.1,5.026-13.743.033-.091.1-.013a61.021,61.021,0,0,0,15.411-4.205l.087-.037.074.059,11.519,9.24-.193,0,19.387-14.88-.044.185-6.339-13.215-.039-.082.055-.072a58.9,58.9,0,0,0,7.887-13.677l.032-.079.085-.008,14.787-1.463-.122.119c1.057-8.437,2.055-16.4,3.006-23.989l.082.134-13.987-4.943-.068-.024-.01-.071a58.433,58.433,0,0,0-4.276-15.155l-.026-.06.042-.051,9.411-11.309v.122l-15.13-19.059.088.021-13.46,6.212-.028.014-.026-.019a61.016,61.016,0,0,0-10.3-6.206c-1.2-.572-2.111-.954-2.716-1.215s-.908-.381-.908-.381.31.116.919.356,1.526.627,2.728,1.191A60.05,60.05,0,0,1,284.3,81.7l-.054-.006,13.442-6.25.053-.024.036.045,15.167,19.03.049.062-.05.06-9.395,11.323.015-.111a58.6,58.6,0,0,1,4.312,15.208l-.077-.094,13.992,4.928.1.033-.012.1c-.944,7.587-1.935,15.555-2.985,23.992l-.013.108-.109.011-14.785,1.474.117-.087a59.144,59.144,0,0,1-7.917,13.749l.017-.153,6.345,13.211.053.11-.1.075-19.381,14.888-.1.075-.1-.077L271.4,184.14l.161.023a61.29,61.29,0,0,1-15.491,4.231l.129-.1-5.024,13.744-.044.12-.128-.015L226.587,199.2l-.13-.016-.013-.13q-.743-7.215-1.5-14.528l.1.136-.013-.006a60.861,60.861,0,0,1-13.982-7.778l.166.017-13.451,6.23-.116.054-.08-.1-15.147-19.044-.081-.1.083-.1,9.405-11.317-.023.164a58.813,58.813,0,0,1-4.3-15.222l.1.125-13.989-4.939-.116-.04.015-.122c1.042-8.329,2.059-16.457,3-23.989l.015-.116.116-.011,14.787-1.464-.117.087a59.3,59.3,0,0,1,7.924-13.743l-.015.141L192.9,80.169l-.045-.095.083-.064,19.391-14.873.073-.056.071.058,11.515,9.244-.109-.015a61.449,61.449,0,0,1,15.48-4.214l-.077.062,5.036-13.739.022-.062.066.008L268.819,59.4l.042.005,0,.042c.476,4.744.841,8.373,1.086,10.82.12,1.222.211,2.149.273,2.773s.086.942.086.942" transform="translate(-61.962 -20.147)" fill="#8ab2ee"/>
        <path id="Trazado_913320" data-name="Trazado 913320" d="M214.465,96.722a6.978,6.978,0,0,0,2.027-3.477,15.533,15.533,0,0,0,0-4.037s2.6-1.327,2.3-2.606-2.843-3.139-2.843-3.139-3.931,2.42-4.475,3.781-.164,4.275-.164,4.275Z" transform="translate(-75.416 -29.806)" fill="#6b8be8"/>
        <path id="Trazado_913321" data-name="Trazado 913321" d="M187.1,94.463l-20.576,6.9-21.639-2.77-.872,10.27s22.249,3.072,24.5,2.733,22.619-9.751,22.619-9.751Z" transform="translate(-51.429 -33.734)" fill="#fa6d61"/>
        <path id="Trazado_913322" data-name="Trazado 913322" d="M178.157,61.617a11.009,11.009,0,0,0-4.86-3.6,7.781,7.781,0,0,0-4.719-.161c-.424-1.767-4.066-1.949-5.912-.649-1.742,1.225-3.666,4.034-4.813,5.837-1.974,3.105-2.6,3.627-3.248,7.233-.057.32-.056.74.244.854a.711.711,0,0,0,.621-.178,24.016,24.016,0,0,0,4.077-4.055,14.5,14.5,0,0,1,4.363-3.7,5.514,5.514,0,0,1,5.448.111,5.927,5.927,0,0,1,2.143,3.5c.341,1.362.41,2.78.642,4.166s-1.129,2.824-.209,3.875,2.932.152,4.269-.308a6.451,6.451,0,0,0,4.39-3.706c.547-1.216,2.073-4.068-2.437-9.216" transform="translate(-55.201 -20.125)" fill="#8ab2ee"/>
        <path id="Trazado_913323" data-name="Trazado 913323" d="M154.3,64.028,141.492,78.9c-2.392,2.777-4.679,9.5-.185,13.023l.13-.318c4.133,2.754,7.541-2.148,10.426-5.4h0s4.428,3.13,8.268-.73c1.856-1.865,5.371-6.013,8.509-9.8a10.061,10.061,0,0,0-.635-13.627l-.37-.36c-4.223-3.65-9.735-2.046-13.33,2.344" transform="translate(-49.545 -21.306)" fill="#ffbe01"/>
        <path id="Trazado_913324" data-name="Trazado 913324" d="M156.99,97.406a12.786,12.786,0,0,1-3.537-6.368,6.675,6.675,0,0,0,2.437,7.581Z" transform="translate(-54.672 -32.511)" fill="#6b8be8"/>
        <path id="Trazado_913325" data-name="Trazado 913325" d="M177.669,87.275a.771.771,0,0,1-1.075.048.737.737,0,0,1-.077-1.053.771.771,0,0,1,1.075-.049.738.738,0,0,1,.077,1.054" transform="translate(-62.97 -30.721)" fill="#8ab2ee"/>
        <path id="Trazado_913326" data-name="Trazado 913326" d="M179.878,85.067c-.138.006-.25-.71-.842-1.283s-1.315-.693-1.307-.829c0-.064.2-.127.521-.084a2.076,2.076,0,0,1,1.134.574,1.993,1.993,0,0,1,.581,1.112c.044.318-.023.509-.087.509" transform="translate(-63.469 -29.589)" fill="#8ab2ee"/>
        <path id="Trazado_913327" data-name="Trazado 913327" d="M169.264,79.65a.77.77,0,0,1-1.075.048.737.737,0,0,1-.076-1.053.772.772,0,0,1,1.075-.049.738.738,0,0,1,.077,1.054" transform="translate(-59.968 -27.998)" fill="#8ab2ee"/>
        <path id="Trazado_913328" data-name="Trazado 913328" d="M170.691,76.461c-.139.006-.251-.711-.842-1.283s-1.315-.694-1.308-.829c0-.063.2-.127.521-.083a2.081,2.081,0,0,1,1.135.573,2,2,0,0,1,.581,1.112c.043.318-.022.51-.087.51" transform="translate(-60.188 -26.516)" fill="#8ab2ee"/>
        <path id="Trazado_913329" data-name="Trazado 913329" d="M168.49,84.93a5.381,5.381,0,0,1,1.128.757c.166.131.338.239.465.159a1.108,1.108,0,0,0,.341-.552q.327-.763.688-1.6a28.353,28.353,0,0,1,1.964-4.026,28.272,28.272,0,0,1-1.639,4.17q-.373.832-.714,1.589a1.253,1.253,0,0,1-.506.678.526.526,0,0,1-.465-.017,1.4,1.4,0,0,1-.291-.212,5.266,5.266,0,0,1-.972-.944" transform="translate(-60.169 -28.45)" fill="#8ab2ee"/>
        <path id="Trazado_913330" data-name="Trazado 913330" d="M172.959,74.519c-.231.071-.634-.654-1.3-1.359s-1.35-1.173-1.263-1.4c.044-.1.3-.123.661,0a3.228,3.228,0,0,1,1.956,2.1c.094.372.057.622-.05.658" transform="translate(-60.847 -25.597)" fill="#8ab2ee"/>
        <path id="Trazado_913331" data-name="Trazado 913331" d="M182,82.584c-.26-.007-.568-.658-1.111-1.29-.524-.648-1.11-1.072-1.068-1.325.026-.117.241-.159.58-.047a2.721,2.721,0,0,1,1.147.834,2.677,2.677,0,0,1,.609,1.273c.048.35-.035.552-.156.555" transform="translate(-64.216 -28.518)" fill="#8ab2ee"/>
        <path id="Trazado_913332" data-name="Trazado 913332" d="M156.112,70.476c-.037-.093-1.866-3.361-4.375-.609s.726,4.664.8,4.588,3.573-3.979,3.573-3.979" transform="translate(-53.847 -24.557)" fill="#ffbe01"/>
        <path id="Trazado_913333" data-name="Trazado 913333" d="M153.237,73.263c0-.02-.078-.01-.192-.045a.628.628,0,0,1-.359-.314,1.612,1.612,0,0,1,.431-1.556,2.175,2.175,0,0,1,.757-.566.745.745,0,0,1,.69-.044.324.324,0,0,1,.158.386c-.033.11-.1.149-.091.167s.1.006.182-.127a.413.413,0,0,0,.051-.269.476.476,0,0,0-.2-.308.9.9,0,0,0-.881-.022,2.227,2.227,0,0,0-.863.618,1.689,1.689,0,0,0-.4,1.816.675.675,0,0,0,.5.321c.145.008.216-.04.211-.053" transform="translate(-54.422 -25.162)" fill="#6b8be8"/>
        <path id="Trazado_913334" data-name="Trazado 913334" d="M179.381,71.772a7.083,7.083,0,0,0,.223-3.457,11.826,11.826,0,0,0-3.205-6.632,9.615,9.615,0,0,0-6.706-2.876,10.462,10.462,0,0,0-5.685,1.808,15.565,15.565,0,0,0-4.231,4.307,4.651,4.651,0,0,0-.979,2.434c-.009.552.271,1.194.818,1.253a1.489,1.489,0,0,0,.9-.319c2.505-1.569,5.155-3.3,6.341-6.006a8.448,8.448,0,0,1,3.448.069,4.288,4.288,0,0,1,2.706,1.99c.814,1.5.41,3.365.561,5.079a7.649,7.649,0,0,0,3.828,5.923Z" transform="translate(-56.708 -21)" fill="#8ab2ee"/>
        <path id="Trazado_913335" data-name="Trazado 913335" d="M164.91,88.327c-.031.05-.249-.014-.532-.245a2.663,2.663,0,0,1-.786-1.165,2.575,2.575,0,0,1-.1-1.386c.082-.348.217-.525.273-.5.128.045-.066.838.263,1.749.3.919.952,1.441.878,1.551" transform="translate(-58.367 -30.364)" fill="#8ab2ee"/>
        <path id="Trazado_913336" data-name="Trazado 913336" d="M163.573,61.6c.055-.068.971.615,2.175,1.329s2.235,1.2,2.2,1.283a10.076,10.076,0,0,1-4.377-2.612" transform="translate(-58.413 -21.996)" fill="#12263f"/>
        <path id="Trazado_913337" data-name="Trazado 913337" d="M168.558,63.63a13.762,13.762,0,0,1-4.7-3.129,25.159,25.159,0,0,1,2.356,1.558,25.231,25.231,0,0,1,2.347,1.571" transform="translate(-58.514 -21.604)" fill="#12263f"/>
        <path id="Trazado_913338" data-name="Trazado 913338" d="M13.7,248.755,0,261.046l16.074,18.137c1.542-1.558-3.49-13.856-3.49-13.856l9.117-7.493Z" transform="translate(0 -88.833)" fill="#8ab2ee"/>
        <path id="Trazado_913339" data-name="Trazado 913339" d="M0,267.217l1.432-1.182,14.876,17.831s.384,1.1-.234,1.488Z" transform="translate(0 -95.004)" fill="#fa6d61"/>
        <path id="Trazado_913340" data-name="Trazado 913340" d="M18.454,273.889c-.086.071-.516-.338-1.171-.535-.651-.214-1.212-.117-1.251-.228-.057-.1.561-.408,1.35-.155s1.166.869,1.072.918" transform="translate(-5.724 -97.447)" fill="#fa6d61"/>
        <path id="Trazado_913341" data-name="Trazado 913341" d="M19.979,278.13c-.063.092-.545-.165-1.166-.152-.621-.006-1.071.258-1.146.167-.087-.071.348-.568,1.121-.569s1.269.482,1.191.554" transform="translate(-6.306 -99.125)" fill="#fa6d61"/>
        <path id="Trazado_913342" data-name="Trazado 913342" d="M19.407,282.64c-.089-.064.219-.559.879-.738s1.209.074,1.173.173-.509.06-1.047.216-.918.43-1,.349" transform="translate(-6.925 -100.647)" fill="#fa6d61"/>
        <path id="Trazado_913343" data-name="Trazado 913343" d="M105.288,254.33l-4.924,15.993-.12,1.857,24.177.627c-.078-2.194-12.461-6.917-12.461-6.917l3.492-9.168Z" transform="translate(-35.799 -90.824)" fill="#8ab2ee"/>
        <path id="Trazado_913344" data-name="Trazado 913344" d="M100.245,281.063l.12-1.857,23.136,1.3s1.064.472.922,1.188Z" transform="translate(-35.799 -99.708)" fill="#fa6d61"/>
        <path id="Trazado_913345" data-name="Trazado 913345" d="M117.635,272.3c-.007.112-.6.147-1.191.492s-.914.807-1.022.761c-.107-.025.088-.69.811-1.1s1.429-.26,1.4-.158" transform="translate(-41.209 -97.199)" fill="#fa6d61"/>
        <path id="Trazado_913346" data-name="Trazado 913346" d="M121.795,273.92c.024.109-.493.286-.907.75s-.545.961-.662.953c-.112.015-.174-.644.352-1.21s1.218-.6,1.217-.493" transform="translate(-42.907 -97.802)" fill="#fa6d61"/>
        <path id="Trazado_913347" data-name="Trazado 913347" d="M125.025,277.514c-.108.021-.256-.543.064-1.148s.88-.835.927-.741c.064.094-.3.413-.559.915s-.315.966-.433.974" transform="translate(-44.601 -98.422)" fill="#fa6d61"/>
        <path id="Trazado_913348" data-name="Trazado 913348" d="M117.475,267.692c-.053.1-.59-.068-1.258-.042s-1.194.212-1.253.114c-.066-.082.453-.484,1.241-.5s1.331.345,1.27.431" transform="translate(-41.053 -95.441)" fill="#8ab2ee"/>
        <path id="Trazado_913349" data-name="Trazado 913349" d="M101.386,159.836l20.5,23.125a14.294,14.294,0,0,1,2.248,15.529l-14.394,32.267-12.8-3.016,13.606-33.385-21.6-19.825,3.863-13.085Z" transform="translate(-31.764 -57.079)" fill="#8ab2ee"/>
        <path id="Trazado_913350" data-name="Trazado 913350" d="M50.8,140.58a26.324,26.324,0,0,0-6.7,11.919c-.974,4.14-6.381,31.1-6.381,31.1l-29.892,32,10.563,11.22S49.5,197.631,51.689,193.227s12.628-27.581,12.628-27.581l4.078-9.009Z" transform="translate(-2.792 -50.203)" fill="#8ab2ee"/>
        <path id="Trazado_913351" data-name="Trazado 913351" d="M93.6,169.864a.985.985,0,0,1-.084.269c-.08.2-.178.451-.3.75-.261.648-.653,1.58-1.148,2.728-.987,2.3-2.4,5.447-3.983,8.913L84.023,191.4l-1.236,2.689-.347.726a.976.976,0,0,1-.14.245,1.013,1.013,0,0,1,.084-.269l.294-.749c.261-.649.654-1.58,1.148-2.728.987-2.3,2.4-5.447,3.985-8.915l4.063-8.874,1.235-2.688c.138-.289.252-.528.347-.726a.99.99,0,0,1,.14-.245" transform="translate(-29.39 -60.66)" fill="#fa6d61"/>
        <path id="Trazado_913352" data-name="Trazado 913352" d="M129.026,209.237a20.346,20.346,0,0,0-3.339,1.111,20.47,20.47,0,0,0-2.941,1.937,8.368,8.368,0,0,1,6.28-3.048" transform="translate(-43.833 -74.711)" fill="#fa6d61"/>
        <path id="Trazado_913353" data-name="Trazado 913353" d="M82.609,159.517c.01.018-.127.114-.386.273a9.283,9.283,0,0,1-1.142.586,13.442,13.442,0,0,1-8.318.791,9.267,9.267,0,0,1-1.231-.361,1.425,1.425,0,0,1-.429-.195c.016-.05.651.155,1.7.345A15.219,15.219,0,0,0,81,160.177c1-.384,1.583-.706,1.609-.66" transform="translate(-25.392 -56.964)" fill="#fa6d61"/>
        <path id="Trazado_913354" data-name="Trazado 913354" d="M142.294,119.543s-3.1,26.37-4.385,30.641-3.772,5.213-3.772,5.213l-1.621-5.542,6.31-26.551Z" transform="translate(-47.323 -42.69)" fill="#4b96e3"/>
        <path id="Trazado_913355" data-name="Trazado 913355" d="M146.545,106.517l2.4-6.113,2.42-2.806s-1.268-6.048-2.1-8.7a54.235,54.235,0,0,0-2.345-5.834l-2.505,2.419Z" transform="translate(-51.575 -29.665)" fill="#6a7686"/>
        <path id="Trazado_913356" data-name="Trazado 913356" d="M84.519,108.8S95.5,94.864,96.5,93.763c0,0,4.146-6.1,8.374-7.559s9.726-.885,9.726-.885l1.8-1.2,1.99,9.557.262,5.053a38.185,38.185,0,0,1-.723,5.7c-.327,1.821-.608,5.57-1.981,7.64-.5.757-4.273,9.474-9.543,14.655,0,0-4.882,4.553-7.252,7.357-2.932,3.47-12.618,10.693-17.117,14.822l-17.3-20.473c-3.866-5.459-2.586-5.078-2.586-5.078Z" transform="translate(-22.121 -30.041)" fill="#fa6d61"/>
        <path id="Trazado_913357" data-name="Trazado 913357" d="M137.6,86.829s.02.067.068.192.123.316.215.552.172.553.278.913c.08.367.2.784.269,1.263a30.391,30.391,0,0,1,.172,8l0,.023.012.019,1.443,2.175.008-.084-2.6,2.689-.02.021v.03a35.48,35.48,0,0,1-.356,5.591,16.291,16.291,0,0,1-.509,2.29l-.085.276-.115.26a4.515,4.515,0,0,1-.249.51c-.181.334-.362.665-.559.985-.766,1.29-1.555,2.5-2.309,3.659-1.513,2.307-2.912,4.362-4.09,6.084-2.359,3.444-3.856,5.546-3.856,5.546a4.03,4.03,0,0,0,.3-.365c.186-.244.453-.611.8-1.083.683-.947,1.66-2.325,2.851-4.039s2.6-3.764,4.118-6.069c.759-1.153,1.55-2.368,2.32-3.66.2-.32.381-.654.564-.991a4.565,4.565,0,0,0,.255-.522l.12-.269.086-.28a16.277,16.277,0,0,0,.514-2.311,35.27,35.27,0,0,0,.354-5.616l-.02.051,2.6-2.694.038-.039-.03-.045-1.45-2.17.01.042a29.718,29.718,0,0,0-.226-8.032c-.077-.48-.2-.9-.287-1.265-.113-.361-.21-.667-.3-.912s-.178-.415-.233-.546-.086-.184-.086-.184" transform="translate(-44.749 -31.008)" fill="#8ab2ee"/>
        <path id="Trazado_913358" data-name="Trazado 913358" d="M147.019,85.2a.773.773,0,0,0,.021.177c.022.131.051.3.087.5l.347,1.844c.311,1.57.734,3.709,1.2,6.071.185.911.363,1.788.529,2.609V96.4q.05.462.1.9a5.71,5.71,0,0,1,.051.84c0,.546-.023,1.054-.046,1.513l0,.083.077-.029,1.93-.725.522-.205a.92.92,0,0,0,.179-.081.9.9,0,0,0-.189.052l-.532.177-1.947.68.073.054c.03-.46.059-.969.065-1.519a5.764,5.764,0,0,0-.045-.858q-.044-.438-.093-.9v-.006l-.523-2.611L147.576,87.7c-.163-.761-.3-1.383-.393-1.834l-.114-.5a.791.791,0,0,0-.049-.171" transform="translate(-52.502 -30.425)" fill="#8ab2ee"/>
        <g id="Grupo_1102609" data-name="Grupo 1102609" transform="translate(55.889 89.241)" opacity="0.3">
          <g id="Grupo_1102608" data-name="Grupo 1102608">
            <g id="Grupo_1102607" data-name="Grupo 1102607" clip-path="url(#clip-path-4)">
              <path id="Trazado_913359" data-name="Trazado 913359" d="M91.474,138.812l9.122,7.881-4.588,2.25a1.368,1.368,0,0,1-1.416-.338c-1.955-2-7.987-8.21-7.645-8.505,1.187-1.023,4.527-1.288,4.527-1.288" transform="translate(-86.933 -138.812)"/>
            </g>
          </g>
        </g>
        <path id="Trazado_913360" data-name="Trazado 913360" d="M92.568,137.341l8.418,8.826L97.1,147.472a1.368,1.368,0,0,1-1.416-.338c-1.955-2-7.987-8.21-7.645-8.505,1.187-1.023,4.527-1.288,4.527-1.288" transform="translate(-31.436 -49.046)" fill="#fa6d61"/>
        <path id="Trazado_913361" data-name="Trazado 913361" d="M92.513,137.337a1.843,1.843,0,0,1-.341.063c-.224.034-.554.085-.977.164a14.88,14.88,0,0,0-1.52.36,6.8,6.8,0,0,0-.906.338,3.791,3.791,0,0,0-.459.247c-.075.048-.142.105-.215.158l-.027.021c-.012.006-.02.021,0-.005s0-.017.009,0a.652.652,0,0,0,.051.109,17.736,17.736,0,0,0,1.587,1.925c.607.671,1.267,1.378,1.967,2.118l2.211,2.308,1.178,1.212.6.618a1.261,1.261,0,0,0,.671.4,1.244,1.244,0,0,0,.561-.008c.18-.051.392-.129.584-.192l1.166-.39,2.23-.745-.055.225-5.98-6.35-1.727-1.869-.458-.511a1.093,1.093,0,0,1-.153-.192c0-.008.061.043.17.147l.477.47,1.773,1.8,6.1,6.313.15.156-.206.069-2.228.753-1.166.393c-.2.066-.382.134-.606.2a1.523,1.523,0,0,1-.692.01,1.546,1.546,0,0,1-.814-.478l-.6-.62-1.176-1.216-2.2-2.322c-.7-.746-1.35-1.46-1.951-2.141a16.936,16.936,0,0,1-1.587-1.985.8.8,0,0,1-.068-.152.2.2,0,0,1,.007-.143.135.135,0,0,1,.049-.055l.03-.022c.08-.057.156-.118.237-.168a3.984,3.984,0,0,1,.487-.251,6.7,6.7,0,0,1,.937-.325,13.17,13.17,0,0,1,1.546-.316c.428-.062.762-.1.989-.111a1.4,1.4,0,0,1,.348-.006" transform="translate(-31.38 -49.042)" fill="#8ab2ee"/>
        <path id="Trazado_913362" data-name="Trazado 913362" d="M209.285,87.645c-.081-.167-.862-4.856-.862-4.856s-.615-5.19-.642-5.245.065-1.129,1.263.208a5.556,5.556,0,0,1,1.1,3.512l4.233-2.394s1.62-1.1,1.978.018a.965.965,0,0,1,1.411.159,1.58,1.58,0,0,1,.136,1.592s.976.99.4,1.8c0,0,.786.3.224,1.668l-2.261,2.624s-.313,3.367-.981,4.24a8.517,8.517,0,0,1-2.845,1.691l-3.949-4.152Z" transform="translate(-74.2 -27.527)" fill="#ffbe01"/>
        <path id="Trazado_913363" data-name="Trazado 913363" d="M218.13,80.177a14.746,14.746,0,0,1-2.39,1.783,14.711,14.711,0,0,1-2.559,1.53,29.2,29.2,0,0,1,4.95-3.313" transform="translate(-76.128 -28.63)" fill="#6b8be8"/>
        <path id="Trazado_913364" data-name="Trazado 913364" d="M220.821,82.245A20.909,20.909,0,0,1,215.8,85.5a18.652,18.652,0,0,1,2.463-1.7,18.676,18.676,0,0,1,2.558-1.55" transform="translate(-77.064 -29.369)" fill="#6b8be8"/>
        <path id="Trazado_913365" data-name="Trazado 913365" d="M222.331,85.4a5.59,5.59,0,0,1-1.5,1.328,5.307,5.307,0,0,1-1.747.977,8.952,8.952,0,0,1,1.571-1.225,8.27,8.27,0,0,1,1.675-1.08" transform="translate(-78.237 -30.497)" fill="#6b8be8"/>
        <path id="Trazado_913366" data-name="Trazado 913366" d="M215.205,89.8a1.131,1.131,0,0,1-.873.08,1.818,1.818,0,0,1-.884-.462,1.948,1.948,0,0,1-.585-1.107l.19.123a1.165,1.165,0,0,1-.6.01,1.149,1.149,0,0,1-.749-.581,1.179,1.179,0,0,1-.1-.849l.213.14a.977.977,0,0,1-.842.15.9.9,0,0,1-.518-.4c-.184-.324-.109-.548-.089-.539.036,0,.03.2.22.449a.753.753,0,0,0,1.064.129l.314-.255-.1.394a.9.9,0,0,0,1.108,1.065l.166-.046.024.169a1.76,1.76,0,0,0,1.221,1.419,5.382,5.382,0,0,0,.825.113" transform="translate(-75.112 -30.841)" fill="#6b8be8"/>
        <path id="Trazado_913367" data-name="Trazado 913367" d="M131.533,103.234c1.315,1.069,25.876,4.036,28.979,3.729s23.271-9.742,23.271-9.742l-4.058-6.572-18.907,5.93-26.337-7.235c-5.558.6-10.08,6.7-2.948,13.89" transform="translate(-45.662 -31.906)" fill="#fa6d61"/>
        <path id="Trazado_913368" data-name="Trazado 913368" d="M131.491,103.168s-.082-.073-.23-.23l-.654-.7a10.42,10.42,0,0,1-.973-1.221,5.417,5.417,0,0,1-.55-.833c-.169-.314-.377-.635-.546-1-.145-.376-.319-.768-.462-1.192q-.077-.329-.158-.672a3.124,3.124,0,0,1-.119-.712q-.025-.37-.052-.756c0-.257.044-.519.065-.787.017-.133.019-.271.049-.4s.073-.266.11-.4a3.8,3.8,0,0,1,.273-.807,6.63,6.63,0,0,1,2.318-2.843,8.32,8.32,0,0,1,3.865-1.448l.022,0,.022.006,26.348,7.195h-.09l17.247-5.417,1.657-.519.124-.039.068.111,4.057,6.572.1.159-.169.078c-7.016,3.238-13.636,6.253-19.764,8.629-.773.28-1.529.573-2.3.8a8.417,8.417,0,0,1-1.176.289,7.591,7.591,0,0,1-1.187.029c-1.555-.052-3.048-.188-4.491-.318-2.883-.27-5.551-.577-7.976-.875-4.85-.6-8.73-1.176-11.387-1.655-1.329-.239-2.352-.455-3.036-.641a6.063,6.063,0,0,1-.764-.253,1.089,1.089,0,0,1-.237-.139c.006-.007.084.044.248.111a7.686,7.686,0,0,0,.768.221c.685.166,1.71.363,3.041.584,2.66.441,6.543.984,11.393,1.555,2.426.283,5.093.577,7.973.834,1.44.123,2.935.253,4.475.3a7.4,7.4,0,0,0,1.147-.031,8.256,8.256,0,0,0,1.127-.282c.759-.222,1.513-.517,2.28-.8,6.1-2.387,12.72-5.415,19.726-8.655l-.07.237-4.06-6.57.192.072-1.657.519-17.251,5.4-.045.014-.046-.013-26.326-7.277.044,0a8.114,8.114,0,0,0-3.768,1.387,6.443,6.443,0,0,0-2.269,2.744,3.652,3.652,0,0,0-.271.78l-.111.388c-.031.129-.033.263-.051.392-.022.26-.069.515-.07.766q.022.377.044.738a3.015,3.015,0,0,0,.11.7l.147.662c.137.419.3.806.442,1.18.163.363.365.683.528,1a5.465,5.465,0,0,0,.532.834,11.158,11.158,0,0,0,.942,1.234l.628.721c.14.164.206.255.206.255" transform="translate(-45.62 -31.839)" fill="#8ab2ee"/>
      </g>
    </g>
  </g>
</svg>
