<svg xmlns="http://www.w3.org/2000/svg" xmlns:xlink="http://www.w3.org/1999/xlink" width="52.696" height="53.754" viewBox="0 0 52.696 53.754">
  <defs>
    <clipPath id="clip-path">
      <rect id="Rectángulo_403835" data-name="Rectángulo 403835" width="52.696" height="53.754" fill="#fa6d61"/>
    </clipPath>
  </defs>
  <g id="Grupo_1102582" data-name="Grupo 1102582" transform="translate(0 0)">
    <g id="Grupo_1102577" data-name="Grupo 1102577" transform="translate(0 0)" clip-path="url(#clip-path)">
      <path id="Trazado_913226" data-name="Trazado 913226" d="M7.073,30.873c5.263-3.856,10.455-3.862,15.694-.036.01-.177.026-.348.027-.52,0-1.462,0-2.925,0-4.387,0-.752.312-1.071,1.051-1.075q2.493-.013,4.985,0c.744,0,1.065.318,1.065,1.061q.008,9.454,0,18.907c0,.77-.31,1.063-1.1,1.068-1.029.007-2.059,0-3.088.005-.183,0-.367.033-.684.065.212.233.321.366.442.485.463.456.947.893,1.391,1.367a1.352,1.352,0,0,0,1.335.517,1.882,1.882,0,0,1,1.36.48c2.059,1.922,4.073,3.892,6.082,5.868a1.821,1.821,0,0,1,.03,2.669c-.713.767-1.444,1.519-2.193,2.248a1.81,1.81,0,0,1-2.626.005q-3.028-2.909-6.03-5.845a1.732,1.732,0,0,1-.537-1.676.731.731,0,0,0-.257-.748c-.631-.643-1.228-1.32-1.837-1.981A12.827,12.827,0,0,1,17.961,51.4,11.875,11.875,0,0,1,4.978,46.363a.868.868,0,0,0-.86-.482c-1.029.034-2.059.019-3.088.008C.3,45.88,0,45.583,0,44.869Q0,37.013,0,29.159c0-.695.3-1,.978-1.007q2.546-.016,5.093,0c.69,0,.983.307,1,.99.006.289,0,.577,0,.868v.865m18.038,9.013A10.166,10.166,0,1,0,14.949,50.062,10.2,10.2,0,0,0,25.111,39.886m3.018,4.236V26.635h-3.6c0,2.034,0,4.018.008,6a.975.975,0,0,0,.189.488A11.837,11.837,0,0,1,26.2,43.762a2.687,2.687,0,0,0-.062.361ZM1.764,29.908V44.123H3.791c-.035-.125-.055-.212-.082-.295A11.8,11.8,0,0,1,5.156,33.135c.059-.088.156-.183.157-.277.012-.983.007-1.968.007-2.95Zm26.678,20.2L25.91,52.4l6.106,5.924L34.518,56l-6.077-5.9m-2.254-.452L26,49.711l-1.954-2.162-.652.724.177-.111L25.5,50.255l.687-.6" transform="translate(0 -6.406)" fill="#fa6d61"/>
      <path id="Trazado_913227" data-name="Trazado 913227" d="M17.124,14.847c1.941-1.473,3.871-2.93,5.782-4.41a.679.679,0,0,0,.168-.576,3.346,3.346,0,0,1,1.143-3.6A3.222,3.222,0,0,1,27.824,5.8a3.381,3.381,0,0,1,2.008,3.263.591.591,0,0,0,.219.457c1.662.738,3.335,1.45,4.992,2.163,1.585-1.462,2.783-1.664,4.624-.778.122-.1.259-.214.389-.333,1.911-1.736,3.816-3.479,5.737-5.2a.6.6,0,0,0,.189-.776A3.381,3.381,0,0,1,47.465.474a3.429,3.429,0,0,1,4.507,4.976,3.4,3.4,0,0,1-4.248,1.07.592.592,0,0,0-.786.134q-2.85,2.621-5.729,5.212A.6.6,0,0,0,41,12.64a3.273,3.273,0,0,1-.868,3.667,3.338,3.338,0,0,1-3.719.638,3.26,3.26,0,0,1-2.034-3.171.631.631,0,0,0-.476-.7c-1.463-.613-2.912-1.258-4.377-1.868a.706.706,0,0,0-.6.024,3.472,3.472,0,0,1-4.68.39c-.67.508-1.357,1.027-2.044,1.548-1.222.926-2.44,1.861-3.672,2.775a.564.564,0,0,0-.262.707A3.251,3.251,0,0,1,17.2,20.169a3.21,3.21,0,0,1-3.543.548,3.29,3.29,0,0,1-2.1-3.079.534.534,0,0,0-.407-.583q-2.189-.785-4.36-1.618a.52.52,0,0,0-.68.184,3.391,3.391,0,0,1-4.2.707,3.436,3.436,0,1,1,5.028-3.692.3.3,0,0,1,.022.105c-.168.9.439,1.119,1.123,1.349,1.247.419,2.467.915,3.708,1.354a.634.634,0,0,0,.543-.082,3.484,3.484,0,0,1,4.791-.515m-11.86-1.5A1.716,1.716,0,0,0,3.6,11.618a1.706,1.706,0,0,0-.036,3.412,1.71,1.71,0,0,0,1.7-1.687M37.8,15.5a1.691,1.691,0,1,0-.04-3.381A1.691,1.691,0,0,0,37.8,15.5M49.189,5.124a1.678,1.678,0,0,0,1.7-1.67A1.691,1.691,0,1,0,47.5,3.44a1.681,1.681,0,0,0,1.685,1.684M26.366,7.211a1.7,1.7,0,1,0,1.725,1.663,1.724,1.724,0,0,0-1.725-1.663m-9.7,10.352a1.7,1.7,0,0,0-3.393-.026,1.7,1.7,0,1,0,3.393.026" transform="translate(-0.036 0)" fill="#fa6d61"/>
      <path id="Trazado_913228" data-name="Trazado 913228" d="M68.543,29.493q0,6.388,0,12.776c0,.933-.252,1.185-1.188,1.187q-2.356,0-4.711,0c-.91,0-1.172-.258-1.172-1.147q0-12.884,0-25.769c0-.862.266-1.127,1.133-1.13q2.409-.007,4.819,0c.856,0,1.118.274,1.119,1.144q0,6.469,0,12.939M66.778,17.175H63.236V41.693h3.542Z" transform="translate(-15.847 -3.972)" fill="#fa6d61"/>
      <path id="Trazado_913229" data-name="Trazado 913229" d="M53.185,38.5q0,3.762,0,7.524c0,.85-.283,1.136-1.135,1.139q-2.409.008-4.818,0c-.862,0-1.132-.269-1.133-1.136q0-7.55,0-15.1c0-.859.286-1.142,1.13-1.144q2.409,0,4.818,0c.845,0,1.136.295,1.137,1.141q0,3.789,0,7.578m-5.32,6.9h3.548V31.529H47.865Z" transform="translate(-11.884 -7.677)" fill="#fa6d61"/>
      <path id="Trazado_913230" data-name="Trazado 913230" d="M17.083,50.848a8.782,8.782,0,1,1,8.794-8.78,8.767,8.767,0,0,1-8.794,8.78m-7.046-8.8a7.053,7.053,0,1,0,7.081-7.03,7.032,7.032,0,0,0-7.081,7.03" transform="translate(-2.141 -8.581)" fill="#fa6d61"/>
      <path id="Trazado_913231" data-name="Trazado 913231" d="M15.354,43.082q0-2.464,0-4.926c0-.821.284-1.11,1.1-1.113q2.464-.008,4.927,0c.756,0,1.053.293,1.055,1.048q.01,4.953,0,9.906c0,.727-.3,1.028-1.016,1.032q-2.517.016-5.035,0c-.739,0-1.029-.317-1.032-1.076,0-1.624,0-3.248,0-4.872m1.762,4.17h3.56V38.805h-3.56Z" transform="translate(-3.958 -9.549)" fill="#fa6d61"/>
    </g>
  </g>
</svg>
