<svg xmlns="http://www.w3.org/2000/svg" xmlns:xlink="http://www.w3.org/1999/xlink" width="40.574" height="48.929" viewBox="0 0 40.574 48.929">
  <defs>
    <clipPath id="clip-path">
      <rect id="Rectángulo_403836" data-name="Rectángulo 403836" width="40.574" height="48.929" fill="#fa6d61"/>
    </clipPath>
  </defs>
  <g id="Grupo_1102584" data-name="Grupo 1102584" transform="translate(0 0)">
    <g id="Grupo_1102579" data-name="Grupo 1102579" transform="translate(0 0)" clip-path="url(#clip-path)">
      <path id="Trazado_913232" data-name="Trazado 913232" d="M21.029,40.6c0,1-.014,1.926.017,2.854,0,.122.217.274.365.348a2.7,2.7,0,0,1,1.515,2.92,2.68,2.68,0,1,1-3.88-2.849c.155-.081.317-.15.476-.224V40.622c-.2-.009-.369-.023-.541-.023H6.839c-.771,0-.85.079-.853.843,0,.546.021,1.092-.008,1.636a.71.71,0,0,0,.478.8,2.611,2.611,0,0,1,1.311,3.258,2.682,2.682,0,0,1-5.209-.965A2.543,2.543,0,0,1,4.1,43.832a.6.6,0,0,0,.409-.676c-.021-.6-.009-1.2-.005-1.794a1.982,1.982,0,0,1,2.236-2.242q6.071,0,12.142,0h.641V36.942h-.568c-1.777,0-3.555-.022-5.332.009a2.711,2.711,0,0,1-2.363-.963c-.657.331-1.306.639-1.934.982A.91.91,0,0,1,8.1,36.8q-2.149-2.181-4.326-4.334a.879.879,0,0,1-.183-1.177c.514-.96.984-1.943,1.493-2.907a.754.754,0,0,0,.02-.78,7.421,7.421,0,0,1-.613-1.453,1.218,1.218,0,0,0-.989-.929c-.912-.259-1.8-.588-2.713-.857A.963.963,0,0,1,0,23.292q.037-3.008,0-6.017a.938.938,0,0,1,.756-1.037c1.042-.315,2.079-.65,3.1-1.011a.986.986,0,0,0,.484-.466c.225-.455.332-.976.6-1.4a1.35,1.35,0,0,0-.054-1.544c-.467-.825-.856-1.694-1.3-2.53a.851.851,0,0,1,.164-1.136q2.191-2.175,4.364-4.37A.9.9,0,0,1,9.3,3.6c.981.512,1.963,1.023,2.961,1.5a.979.979,0,0,0,.672.015c.465-.157.89-.449,1.361-.56a1.43,1.43,0,0,0,1.126-1.2c.24-.9.574-1.77.843-2.661A.868.868,0,0,1,17.187,0q3.088,0,6.177,0a.9.9,0,0,1,.956.723Q24.8,2.31,25.36,3.874a1,1,0,0,0,.467.483c.389.2.847.277,1.212.507a1.6,1.6,0,0,0,1.883-.041c.746-.459,1.561-.8,2.336-1.218a.922.922,0,0,1,1.228.195q2.131,2.161,4.292,4.293a.913.913,0,0,1,.2,1.224c-.506.945-.97,1.912-1.477,2.856a.831.831,0,0,0,0,.875,4.254,4.254,0,0,1,.455,1.063,1.726,1.726,0,0,0,1.487,1.381c.834.2,1.641.518,2.462.774a.864.864,0,0,1,.673.935q-.019,3.087,0,6.176a.89.89,0,0,1-.718.956c-1.023.319-2.037.666-3.062.979a.809.809,0,0,0-.61.565,14.921,14.921,0,0,1-.687,1.652.87.87,0,0,0,.009.879c.506.944.967,1.913,1.473,2.858a.914.914,0,0,1-.2,1.224q-2.161,2.131-4.293,4.292a.9.9,0,0,1-1.225.2c-.4-.224-.81-.415-1.259-.641-.253.574-.727.618-1.265.614-2.358-.018-4.716-.008-7.074-.008h-.6V39.12h.644q6.044,0,12.089,0a2,2,0,0,1,2.28,2.253c0,.6.02,1.2-.006,1.794a.606.606,0,0,0,.424.67,2.638,2.638,0,0,1,1.424,3.131,2.687,2.687,0,0,1-5.249-.367,2.641,2.641,0,0,1,1.513-2.765.6.6,0,0,0,.42-.671c-.026-.579,0-1.161-.008-1.742,0-.734-.092-.825-.819-.825q-5.306,0-10.611,0H21.029M5.067,31.659c.912.911,1.792,1.8,2.678,2.675.386.382.749.984,1.192,1.054s.959-.419,1.459-.626a.578.578,0,0,0,.394-.64c-.016-1.794.008-3.589-.022-5.383a1.76,1.76,0,0,0-.318-.946A12.112,12.112,0,0,1,8.223,17.666a12.342,12.342,0,0,1,24.333,3.94c-.126,1.021-.389,2.025-.6,3.079.136,0,.307,0,.478,0,.971,0,1.239.371.935,1.292q-.76,2.3-1.526,4.6-.709,2.142-1.417,4.3c.3.161.578.282.828.442a.488.488,0,0,0,.721-.118c.478-.516.991-1,1.488-1.5l2.041-2.039c-.536-1.051-1.032-2.059-1.564-3.049a1.255,1.255,0,0,1-.01-1.242,25.653,25.653,0,0,0,1.008-2.431,1.285,1.285,0,0,1,.934-.891c.959-.286,1.9-.622,2.86-.913a.418.418,0,0,0,.357-.478q-.018-2.348,0-4.7a.449.449,0,0,0-.372-.52c-1.007-.308-2.017-.617-3-.986a1.365,1.365,0,0,1-.686-.637c-.425-.9-.766-1.847-1.17-2.762a1.061,1.061,0,0,1,.046-1c.48-.918.93-1.853,1.421-2.765a.471.471,0,0,0-.114-.668q-1.641-1.606-3.247-3.247a.512.512,0,0,0-.724-.1c-.9.48-1.816.924-2.718,1.4a1.1,1.1,0,0,1-1.051.026C26.594,6.3,25.7,5.931,24.8,5.584a1.1,1.1,0,0,1-.717-.767c-.3-.973-.643-1.934-.933-2.909a.51.51,0,0,0-.593-.427c-1.513.017-3.027.022-4.539,0-.381-.006-.511.142-.611.474-.294.975-.591,1.952-.956,2.9a1.458,1.458,0,0,1-.686.708c-.869.418-1.778.75-2.661,1.14a1.107,1.107,0,0,1-1.051-.025c-.9-.478-1.822-.914-2.719-1.4a.541.541,0,0,0-.766.131c-1.042,1.072-2.1,2.133-3.175,3.168a.558.558,0,0,0-.106.8c.473.882.907,1.785,1.375,2.671A1.1,1.1,0,0,1,6.688,13.1Q6.109,14.4,5.6,15.727a1.194,1.194,0,0,1-.837.788c-.958.289-1.906.615-2.863.908-.287.088-.429.2-.424.538.02,1.565.015,3.131,0,4.7a.419.419,0,0,0,.356.479c.991.3,1.97.641,2.961.945a1.154,1.154,0,0,1,.8.761c.332.868.681,1.732,1.068,2.577a1.231,1.231,0,0,1-.038,1.2c-.528.992-1.027,2-1.56,3.045M23.8,20.325c.137.045.234.084.336.109a7.312,7.312,0,0,1,4.912,3.831c.234.447.527.4.889.426.419.028.42-.306.512-.547a10.869,10.869,0,1,0-20.4-.178c.231.642.558,1.249.9,2.013a7.763,7.763,0,0,1,5.926-5.644c-1.978-2.855-1.858-5.5.322-7.335a4.932,4.932,0,0,1,6.6,7.325m-3.8,15.1a1.9,1.9,0,0,0,.233.04c2.69,0,5.38-.007,8.07.013.374,0,.427-.211.51-.462q1.372-4.147,2.744-8.295c.054-.162.09-.331.144-.53H23.064c-1.015,3.067-2.027,6.128-3.055,9.234m-3.125-3.8c.826,0,1.58-.026,2.331.01.4.019.543-.144.655-.494.614-1.9,1.263-3.8,1.872-5.7a.943.943,0,0,1,1.034-.759c1.442.021,2.884.008,4.326.005.145,0,.29-.021.5-.038a5.957,5.957,0,0,0-4.887-2.915c-1.562-.066-3.131-.042-4.695-.006a5.752,5.752,0,0,0-3.922,1.7,3.387,3.387,0,0,0-.26.32,1.948,1.948,0,0,0,.177.088,3.712,3.712,0,0,1,2.869,4.07v3.723m2.325,1.485c-1,0-1.925,0-2.853,0-.7,0-.948-.251-.951-.955-.006-1.44,0-2.881,0-4.321a2.368,2.368,0,0,0-2.18-2.678c-.259-.054-.412-.014-.476.242a9.6,9.6,0,0,0-.457,1.986c-.058,2.37-.032,4.743-.024,7.115a.89.89,0,0,0,.958.961c1.634.014,3.268.01,4.9,0a.459.459,0,0,0,.358-.2c.253-.687.472-1.387.724-2.15m4.586-16.361a3.439,3.439,0,0,0-6.878.055,3.439,3.439,0,1,0,6.878-.055M5.233,45.049a1.2,1.2,0,0,0-1.2,1.213,1.205,1.205,0,0,0,2.41-.014,1.2,1.2,0,0,0-1.212-1.2m30.08,0a1.2,1.2,0,0,0-1.184,1.225,1.2,1.2,0,0,0,2.409-.039,1.2,1.2,0,0,0-1.225-1.186m-15.031,0a1.194,1.194,0,1,0,1.194,1.2,1.177,1.177,0,0,0-1.194-1.2" transform="translate(0 0)" fill="#fa6d61"/>
    </g>
  </g>
</svg>
