<svg xmlns="http://www.w3.org/2000/svg" xmlns:xlink="http://www.w3.org/1999/xlink" width="42.179" height="40.906" viewBox="0 0 42.179 40.906">
  <defs>
    <clipPath id="clip-path">
      <rect id="Rect치ngulo_403824" data-name="Rect치ngulo 403824" width="30.468" height="30.423" fill="#12263f"/>
    </clipPath>
  </defs>
  <g id="Grupo_1103704" data-name="Grupo 1103704" transform="translate(-382.333 -888.582)">
    <g id="Grupo_1102459" data-name="Grupo 1102459" transform="translate(382.333 888.582)">
      <rect id="Rect치ngulo_402862" data-name="Rect치ngulo 402862" width="26.726" height="40.906" rx="13.363" transform="translate(0 0)" fill="#4b96e3"/>
      <circle id="Elipse_11523" data-name="Elipse 11523" cx="5.727" cy="5.727" r="5.727" transform="translate(0 0)" fill="#ffbe01"/>
    </g>
    <g id="Grupo_1102557" data-name="Grupo 1102557" transform="translate(394.045 896.259)">
      <g id="Grupo_1102556" data-name="Grupo 1102556" clip-path="url(#clip-path)">
        <path id="Trazado_913157" data-name="Trazado 913157" d="M1.573,151.747c0-1.026,0-2.009,0-2.992,0-.6.153-.749.762-.749H6.079c.6,0,.748.155.749.763q0,1.314,0,2.627v.335h2.1v-.379q0-3.629,0-7.258c0-.6.152-.755.756-.755q1.9,0,3.809,0c.514,0,.688.175.689.69q0,3.662,0,7.323v.374H16.81v-.366q0-5.845,0-11.691c0-.665.135-.8.812-.8H21.3c.62,0,.764.148.764.779q0,5.829,0,11.658v.413h2.1v-.386q0-8.193,0-16.387c0-.673.134-.807.8-.807h3.71c.583,0,.742.157.742.736q0,8.226,0,16.453v.415c.194,0,.356-.008.517,0a.523.523,0,1,1,.015,1.045c-.087.007-.175,0-.263,0H.794c-.541,0-.788-.161-.794-.517s.248-.533.81-.533h.763m23.666-.027h3.112v-16.51H25.24Zm-4.25-11.769H17.878v11.781H20.99Zm-7.87,4.456H10v7.318h3.121ZM2.647,151.722H5.759v-2.65H2.647Z" transform="translate(0 -122.375)" fill="#12263f"/>
        <path id="Trazado_913158" data-name="Trazado 913158" d="M12.968,13.217,8.845,15.806a4.165,4.165,0,0,1-.1,3.881,4.05,4.05,0,0,1-2.159,1.875A4.157,4.157,0,0,1,2.45,14.486a4.208,4.208,0,0,1,5.815.437c.118-.072.24-.144.359-.219l3.743-2.352a4.173,4.173,0,0,1-.152-3.523A4.109,4.109,0,0,1,14.03,6.782a4.2,4.2,0,0,1,5.38,1.131c.069-.037.146-.073.216-.117,1.121-.7,2.238-1.412,3.365-2.105a.335.335,0,0,0,.173-.444A3.981,3.981,0,0,1,24.591.96,3.9,3.9,0,0,1,29.136.541,3.971,3.971,0,0,1,31.324,4.5a4.154,4.154,0,0,1-7.381,2.3c-.075-.093-.148-.188-.247-.316L21.815,7.663,19.949,8.836c.652,2.259.088,4.078-2,5.262a4.113,4.113,0,0,1-4.981-.881M12.951,10.4a3.109,3.109,0,1,0,3.126-3.1,3.122,3.122,0,0,0-3.126,3.1m14.2-3.1a3.109,3.109,0,1,0-3.079-3.114A3.116,3.116,0,0,0,27.149,7.3M5.124,20.778A3.1,3.1,0,1,0,2,17.68a3.1,3.1,0,0,0,3.121,3.1" transform="translate(-0.868)" fill="#12263f"/>
        <path id="Trazado_913159" data-name="Trazado 913159" d="M154.891,89.448a1.668,1.668,0,0,1,.369.325.782.782,0,0,0,1.022.269c.255-.146.268-.34.011-.487-.312-.179-.64-.33-.96-.5a5.156,5.156,0,0,1-.457-.257,1.258,1.258,0,0,1,.143-2.27.852.852,0,0,0,.429-.4.587.587,0,0,1,.472-.257c.157.011.307.2.45.316.1.083.174.194.27.281a6.092,6.092,0,0,1,.733.674.5.5,0,0,1-.141.742.533.533,0,0,1-.737-.194.756.756,0,0,0-.98-.255c-.283.14-.306.34-.036.5.309.184.638.336.957.5.116.06.234.119.348.183a1.245,1.245,0,0,1,.756,1.139,1.445,1.445,0,0,1-.839,1.243c-.134.077-.221.233-.346.331-.146.114-.311.28-.469.281s-.325-.163-.471-.276c-.126-.1-.211-.258-.346-.335a1.572,1.572,0,0,1-.763-.823c-.132-.369.1-.721.584-.735" transform="translate(-140.696 -78.339)" fill="#12263f"/>
        <path id="Trazado_913160" data-name="Trazado 913160" d="M282.7,13.77c.189.155.388.246.459.4a.886.886,0,0,0,.35.344,3.2,3.2,0,0,1,.683.638.5.5,0,0,1-.139.745.517.517,0,0,1-.737-.187.774.774,0,0,0-.979-.261c-.282.139-.306.343-.037.5.32.188.658.344.988.515.1.05.194.1.289.155a1.255,1.255,0,0,1,.781,1.19,1.446,1.446,0,0,1-.873,1.22c-.119.064-.193.208-.3.3-.154.122-.323.312-.484.31s-.328-.194-.481-.317c-.1-.081-.163-.22-.273-.276a1.6,1.6,0,0,1-.8-.791.534.534,0,0,1,.221-.733.523.523,0,0,1,.713.264.738.738,0,0,0,1.017.272c.264-.149.279-.334.017-.485-.322-.185-.659-.342-.989-.513-.116-.06-.233-.121-.345-.189a1.251,1.251,0,0,1-.735-1.154,1.443,1.443,0,0,1,.838-1.21,2.3,2.3,0,0,0,.344-.334c.137-.124.282-.238.47-.4" transform="translate(-256.392 -12.562)" fill="#12263f"/>
        <path id="Trazado_913161" data-name="Trazado 913161" d="M31.165,167.382c.189.166.337.29.478.421.1.1.194.205.3.3a6.018,6.018,0,0,1,.724.686.49.49,0,0,1-.171.734.517.517,0,0,1-.713-.191.716.716,0,0,0-.94-.278.482.482,0,0,0-.252.264c-.017.068.1.208.193.26.322.185.657.345.988.515.049.025.1.048.146.074.5.261.92.59.9,1.216a1.436,1.436,0,0,1-.954,1.3.459.459,0,0,0-.2.224.517.517,0,0,1-.494.363.537.537,0,0,1-.506-.35.625.625,0,0,0-.25-.254,1.6,1.6,0,0,1-.812-.819.522.522,0,1,1,.94-.452.715.715,0,0,0,.981.29.527.527,0,0,0,.231-.286c.015-.052-.112-.175-.2-.223-.315-.175-.641-.33-.961-.5-.126-.065-.251-.133-.372-.207a1.24,1.24,0,0,1-.712-1.134,1.368,1.368,0,0,1,.809-1.189.7.7,0,0,0,.4-.381c.055-.142.256-.228.447-.385" transform="translate(-26.919 -152.698)" fill="#12263f"/>
      </g>
    </g>
  </g>
</svg>
