<svg xmlns="http://www.w3.org/2000/svg" xmlns:xlink="http://www.w3.org/1999/xlink" width="43.835" height="40.906" viewBox="0 0 43.835 40.906">
  <defs>
    <clipPath id="clip-path">
      <rect id="Rect치ngulo_403826" data-name="Rect치ngulo 403826" width="25.57" height="34.413" fill="#12263f"/>
    </clipPath>
  </defs>
  <g id="Grupo_1103706" data-name="Grupo 1103706" transform="translate(-907.333 -888.582)">
    <g id="Grupo_1102462" data-name="Grupo 1102462" transform="translate(907.333 888.582)">
      <rect id="Rect치ngulo_402862" data-name="Rect치ngulo 402862" width="26.726" height="40.906" rx="13.363" transform="translate(0 0)" fill="#4b96e3"/>
      <circle id="Elipse_11523" data-name="Elipse 11523" cx="5.727" cy="5.727" r="5.727" transform="translate(0 0)" fill="#ffbe01"/>
    </g>
    <g id="Grupo_1102561" data-name="Grupo 1102561" transform="translate(925.598 893.277)">
      <g id="Grupo_1102560" data-name="Grupo 1102560" clip-path="url(#clip-path)">
        <path id="Trazado_913167" data-name="Trazado 913167" d="M9.128,7.507c-.771,0-1.5.006-2.227,0-.336,0-.742.107-.915-.312-.166-.4.185-.607.412-.84Q9.337,3.334,12.28.322c.415-.425.6-.429,1.007-.012q3.027,3.1,6.055,6.2c.2.2.372.405.243.7-.122.279-.386.3-.651.3-.81,0-1.62,0-2.481,0,0,.6-.012,1.18.014,1.753,0,.078.182.179.3.217a12.534,12.534,0,0,1,5.524,3.613A12.78,12.78,0,1,1,8.8,9.493a.391.391,0,0,0,.329-.462c-.019-.486-.005-.973-.005-1.524m0,2.948a11.684,11.684,0,0,0-8.088,12.3,11.8,11.8,0,0,0,23.546-1.342,11.688,11.688,0,0,0-3.572-8.242,11.339,11.339,0,0,0-4.541-2.751c-.012.121-.023.177-.023.233,0,1.915-.006,3.83.01,5.744a.584.584,0,0,0,.249.394,7.249,7.249,0,0,1,3.409,5.91A7.341,7.341,0,1,1,8.863,16.81a.513.513,0,0,0,.269-.5c-.008-1.834,0-3.667,0-5.5v-.351m3.661-9.26L7.582,6.532H9.36c.641,0,.742.1.742.755q0,4.211,0,8.422v.452a7.553,7.553,0,0,1,5.371,0v-.47q0-4.246,0-8.492c0-.532.132-.662.658-.664.587,0,1.174,0,1.865,0L12.789,1.195M6.416,23.024a6.373,6.373,0,1,0,6.333-6.381,6.391,6.391,0,0,0-6.333,6.381" transform="translate(0.001 0)" fill="#12263f"/>
        <path id="Trazado_913168" data-name="Trazado 913168" d="M141.3,341.091a5.66,5.66,0,1,1,5.665-5.631,5.656,5.656,0,0,1-5.665,5.631m-.031-.975a4.685,4.685,0,1,0-4.631-4.816,4.684,4.684,0,0,0,4.631,4.816" transform="translate(-128.522 -312.421)" fill="#12263f"/>
        <path id="Trazado_913169" data-name="Trazado 913169" d="M208.76,367.648c0-.106,0-.209,0-.312a.459.459,0,0,1,.442-.488.448.448,0,0,1,.513.448c0,.315.142.422.4.534a2.4,2.4,0,0,1,.7.49.454.454,0,0,1-.018.706.471.471,0,0,1-.685-.044,1.141,1.141,0,0,0-1.236-.326.7.7,0,0,0-.524.7.716.716,0,0,0,.565.672,3.014,3.014,0,0,0,.584.082,1.813,1.813,0,0,1,1.612,1.5,1.692,1.692,0,0,1-1.106,1.782.356.356,0,0,0-.271.4.475.475,0,0,1-.947.037c-.009-.267-.13-.359-.354-.46a2.689,2.689,0,0,1-.673-.483.449.449,0,0,1-.029-.681.458.458,0,0,1,.684-.022,1.163,1.163,0,0,0,.964.38.829.829,0,0,0,.767-.726.794.794,0,0,0-.736-.749,6.531,6.531,0,0,1-.688-.094,1.762,1.762,0,0,1-1.351-1.545,1.722,1.722,0,0,1,1.141-1.7l.239-.1" transform="translate(-196.467 -347.543)" fill="#12263f"/>
      </g>
    </g>
  </g>
</svg>
