<svg xmlns="http://www.w3.org/2000/svg" width="48.888" height="40.906" viewBox="0 0 48.888 40.906">
  <g id="Grupo_1103713" data-name="Grupo 1103713" transform="translate(-382.333 -4685.365)">
    <g id="Grupo_1100929" data-name="Grupo 1100929" transform="translate(382.333 4685.365)">
      <rect id="Rectángulo_402862" data-name="Rectángulo 402862" width="26.726" height="40.906" rx="13.363" transform="translate(0 0)" fill="#4b96e3"/>
      <circle id="Elipse_11523" data-name="Elipse 11523" cx="5.727" cy="5.727" r="5.727" transform="translate(0 0)" fill="#ffbe01"/>
    </g>
    <g id="Grupo_1102568" data-name="Grupo 1102568" transform="translate(396.898 4690.966)">
      <path id="Trazado_913192" data-name="Trazado 913192" d="M6.332,2.489c.1-.705.2-.784.895-.784.634,0,1.269,0,1.9,0a.359.359,0,0,0,.38-.211A2.66,2.66,0,0,1,11.975,0a2.659,2.659,0,0,1,2.467,1.5.358.358,0,0,0,.379.212c.657-.007,1.315,0,1.972,0,.617,0,.756.128.8.784h4.3a1.879,1.879,0,0,1,2.051,2.037q0,4.237,0,8.474v.42c.456-.081.87-.169,1.29-.228a8.055,8.055,0,0,1,8.871,6.175,7.889,7.889,0,0,1-1.619,6.915,2.648,2.648,0,0,0-.6,1.616,11.525,11.525,0,0,0,1.242,5.3c.053.115.112.228.155.347a.546.546,0,0,1-.488.766c-.08.007-.162,0-.242,0H24.431c-.554,0-.673-.1-.81-.637a4.152,4.152,0,0,0-.225-.688,1.7,1.7,0,0,0-1.93-1c-.526.064-1.049.153-1.576.189a2.633,2.633,0,0,1-.852-.1,1.034,1.034,0,0,1-.789-1.014c-.014-.217-.032-.434-.051-.689H2A1.861,1.861,0,0,1,.032,28.84,2.536,2.536,0,0,1,0,28.358Q0,16.44,0,4.525A1.884,1.884,0,0,1,2.053,2.489q1.954,0,3.909,0h.369ZM18.6,18.332H12a2.69,2.69,0,0,1-.346-.007.519.519,0,0,1-.494-.529.526.526,0,0,1,.466-.557,1.509,1.509,0,0,1,.31-.012c2.329,0,4.658,0,6.987.006a.51.51,0,0,0,.468-.249c.452-.594.949-1.153,1.411-1.739a.9.9,0,0,0,.212-.5c.013-2.975.009-5.948.009-8.923V5.459H17.6c-.067.643-.2.762-.84.762H7.283c-.749,0-.8-.041-.963-.76H2.957V27.43H17.462a.733.733,0,0,0-.272-.906,1.232,1.232,0,0,1-.575-.94,3.652,3.652,0,0,1,.05-.559H12.012c-.582,0-.865-.186-.86-.564s.27-.543.872-.543h1.314c1.3,0,2.606,0,3.909,0,.117,0,.293-.013.341-.086.234-.358.433-.737.691-1.189h-.529q-2.975,0-5.949,0c-.407,0-.656-.228-.649-.559s.253-.528.636-.544c.092,0,.185,0,.276,0h6.023c.176-1.1.341-2.136.51-3.2ZM31.9,33.185c-.039-.106-.066-.192-.1-.275a12.971,12.971,0,0,1-.977-3.693,4.93,4.93,0,0,1,.98-3.89,6.377,6.377,0,0,0,1.321-5.24,6.957,6.957,0,0,0-13.791,1.807,3.293,3.293,0,0,1,0,.654,4.959,4.959,0,0,1-1.346,2.6c-.091.113-.179.229-.285.364a1.993,1.993,0,0,0,.272.2,1.257,1.257,0,0,1,.712,1.432c-.056.489-.053.493.424.6a.559.559,0,0,1,.2,1.048c-.172.107-.335.229-.521.357A2.072,2.072,0,0,1,19.33,30.7c0,.321.147.406.418.376.538-.059,1.075-.125,1.611-.191a2.81,2.81,0,0,1,3.171,1.933c.046.126.092.251.134.367H31.9ZM6.352,3.6H2.1c-.732,0-.989.262-.989,1.005V28.253c0,.776.236,1.013,1.008,1.013H17.591c.072-.249.134-.465.205-.709H2.608c-.6,0-.785-.173-.785-.747q0-11.376,0-22.753c0-.564.177-.734.755-.736,1.13,0,2.259,0,3.39,0h.385V3.6Zm10.1-.74c-.038-.018-.058-.034-.078-.034-.668,0-1.337-.006-2.005-.01-.524,0-.635-.08-.807-.569a1.678,1.678,0,0,0-3.18,0c-.172.491-.281.568-.806.569H7.5V5.094h8.953V2.854Zm1.137,1.466h3.7c.688,0,.838.15.839.827v9.06a.957.957,0,0,0,.71-.949V4.544c0-.677-.266-.946-.939-.947q-1.989,0-3.978,0h-.332v.725Z" fill="#12263f"/>
      <path id="Trazado_913193" data-name="Trazado 913193" d="M47.106,225.921c0-.529-.006-1.06,0-1.589a.954.954,0,0,1,.976-1.028q1.658-.032,3.317,0a.948.948,0,0,1,.971,1.031q.01,1.606,0,3.214a.958.958,0,0,1-.992,1.016q-1.641.028-3.283,0a.962.962,0,0,1-.989-1.02c-.008-.542,0-1.083,0-1.625Zm4.142-1.5H48.243v3.026h3.005Z" transform="translate(-42.751 -202.654)" fill="#12263f"/>
      <path id="Trazado_913194" data-name="Trazado 913194" d="M52.356,81.189c0,.53.006,1.06,0,1.589a.956.956,0,0,1-1.006,1.032q-1.625.022-3.249,0a.959.959,0,0,1-1.01-1.029q-.01-1.607,0-3.214a.971.971,0,0,1,1.023-1.022q1.607-.017,3.214,0A.978.978,0,0,1,52.352,79.6c.006.529,0,1.06,0,1.589Zm-4.142-1.523v3.024h3.016V79.666Z" transform="translate(-42.733 -71.279)" fill="#12263f"/>
      <path id="Trazado_913195" data-name="Trazado 913195" d="M49.739,156.3c-.53,0-1.06.006-1.589,0a.975.975,0,0,1-1.038-1.041q-.01-1.59,0-3.179a.966.966,0,0,1,1.029-1.044q1.607-.011,3.214,0a.959.959,0,0,1,1.02,1.018q.012,1.607,0,3.214A.975.975,0,0,1,51.33,156.3c-.529.007-1.06,0-1.589,0Zm1.518-4.135H48.242v3h3.015Z" transform="translate(-42.754 -137.074)" fill="#12263f"/>
      <path id="Trazado_913196" data-name="Trazado 913196" d="M124.933,89.392q-1.778,0-3.558,0c-.408,0-.66-.21-.667-.54s.257-.566.68-.566q3.54,0,7.08,0c.461,0,.72.249.673.629-.038.3-.262.474-.651.475C127.305,89.393,126.12,89.391,124.933,89.392Z" transform="translate(-109.554 -80.127)" fill="#12263f"/>
      <path id="Trazado_913197" data-name="Trazado 913197" d="M124.974,160.742c1.187,0,2.376,0,3.563,0,.434,0,.683.259.63.631a.565.565,0,0,1-.627.472c-.518.008-1.038,0-1.557,0h-5.432a1.714,1.714,0,0,1-.345-.018.537.537,0,0,1-.468-.557.524.524,0,0,1,.533-.525c.461-.014.922-.006,1.383-.006h2.318Z" transform="translate(-109.582 -145.887)" fill="#12263f"/>
      <path id="Trazado_913198" data-name="Trazado 913198" d="M124.986,115.159H121.6a2.35,2.35,0,0,1-.379-.02.54.54,0,0,1,0-1.065,1.941,1.941,0,0,1,.345-.02h6.849a2.288,2.288,0,0,1,.276.007.537.537,0,0,1,.514.546.526.526,0,0,1-.515.542c-.183.018-.369.011-.553.011h-3.147Z" transform="translate(-109.61 -103.514)" fill="#12263f"/>
      <path id="Trazado_913199" data-name="Trazado 913199" d="M232.959,163.507c-.038.146-.035.255-.087.32-.408.507-.044.953.125,1.4.043.114.247.18.39.238.53.214.6.306.6.868,0,.358,0,.715,0,1.072,0,.327-.128.6-.452.649-.653.106-.663.692-.871,1.118-.048.1.087.294.149.439.2.458.173.6-.179.952-.268.27-.54.536-.807.808a.547.547,0,0,1-.748.131c-.533-.383-.957,0-1.406.165-.094.035-.142.222-.191.347-.225.566-.3.621-.919.622-.323,0-.646-.01-.968,0a.614.614,0,0,1-.722-.5c-.122-.625-.691-.636-1.115-.823-.119-.053-.34.1-.5.177a.623.623,0,0,1-.809-.146c-.278-.292-.565-.577-.856-.856a.561.561,0,0,1-.144-.774c.384-.537,0-.962-.178-1.4-.049-.124-.3-.179-.475-.237a.637.637,0,0,1-.48-.7c.016-.4.011-.807,0-1.211a.541.541,0,0,1,.432-.622c.652-.1.671-.68.88-1.109.04-.082-.048-.237-.1-.35-.263-.606-.253-.668.222-1.143.228-.228.464-.45.683-.686a.59.59,0,0,1,.833-.141c.527.365.935-.041,1.369-.2.122-.045.178-.306.236-.478a.646.646,0,0,1,.707-.481c.38.01.761.013,1.141,0a.621.621,0,0,1,.714.511c.124.631.7.618,1.12.814.107.051.32-.093.471-.172a.635.635,0,0,1,.839.147c.277.293.577.566.85.861a2.346,2.346,0,0,1,.249.394Zm-7.177,6.576c.123.05.25.1.376.153a5.978,5.978,0,0,0,.855.361.827.827,0,0,1,.687.639c.059.255.207.3.444.3s.4-.038.452-.3a.8.8,0,0,1,.683-.64,2.416,2.416,0,0,0,.729-.3.851.851,0,0,1,1-.025c.225.147.347.006.493-.134s.262-.27.116-.493a.82.82,0,0,1,.022-.967,2.755,2.755,0,0,0,.312-.762.814.814,0,0,1,.618-.665.374.374,0,0,0,.322-.438c0-.254-.058-.412-.323-.473a.777.777,0,0,1-.605-.633,2.712,2.712,0,0,0-.308-.764.838.838,0,0,1-.036-1c.172-.25-.01-.36-.142-.518a.331.331,0,0,0-.5-.09.815.815,0,0,1-.937-.027,2.494,2.494,0,0,0-.728-.3.86.86,0,0,1-.729-.685c-.055-.26-.23-.262-.439-.263s-.38.012-.433.269a.861.861,0,0,1-.733.681,2.59,2.59,0,0,0-.729.3.8.8,0,0,1-.906.039.365.365,0,0,0-.53.079c-.168.18-.268.323-.117.56a.8.8,0,0,1-.031.907,2.452,2.452,0,0,0-.309.726.846.846,0,0,1-.677.734c-.256.056-.26.232-.261.44s.007.38.262.437a.842.842,0,0,1,.676.736,1.951,1.951,0,0,0,.275.666.916.916,0,0,1,.046,1.037.369.369,0,0,0-.018.308c.206.351.373.392.752.234.115-.048.237-.083.373-.13Z" transform="translate(-201.767 -146.079)" fill="#12263f"/>
      <path id="Trazado_913200" data-name="Trazado 913200" d="M124.486,19.934a.594.594,0,0,1-.578.6.587.587,0,0,1-.032-1.173.589.589,0,0,1,.612.568Z" transform="translate(-111.925 -17.575)" fill="#12263f"/>
      <path id="Trazado_913201" data-name="Trazado 913201" d="M248.45,190.5a3.426,3.426,0,1,1,3.378,3.44A3.42,3.42,0,0,1,248.45,190.5Zm3.427,2.333a2.319,2.319,0,1,0-2.32-2.328A2.306,2.306,0,0,0,251.877,192.833Z" transform="translate(-225.491 -169.801)" fill="#12263f"/>
    </g>
  </g>
</svg>
