<svg xmlns="http://www.w3.org/2000/svg" xmlns:xlink="http://www.w3.org/1999/xlink" width="46.403" height="40.906" viewBox="0 0 46.403 40.906">
  <defs>
    <clipPath id="clip-path">
      <rect id="Rect치ngulo_403825" data-name="Rect치ngulo 403825" width="30.787" height="27.085" fill="#12263f"/>
    </clipPath>
  </defs>
  <g id="Grupo_1103705" data-name="Grupo 1103705" transform="translate(-646.333 -888.582)">
    <g id="Grupo_1102461" data-name="Grupo 1102461" transform="translate(646.333 888.582)">
      <rect id="Rect치ngulo_402862" data-name="Rect치ngulo 402862" width="26.726" height="40.906" rx="13.363" transform="translate(0 0)" fill="#4b96e3"/>
      <circle id="Elipse_11523" data-name="Elipse 11523" cx="5.727" cy="5.727" r="5.727" transform="translate(0 0)" fill="#ffbe01"/>
    </g>
    <g id="Grupo_1102559" data-name="Grupo 1102559" transform="translate(661.949 898.327)">
      <g id="Grupo_1102558" data-name="Grupo 1102558" clip-path="url(#clip-path)">
        <path id="Trazado_913162" data-name="Trazado 913162" d="M18.062,19.106V20.2c.542-.132,1.075-.3,1.622-.387a11.609,11.609,0,0,1,5.346.287,3.9,3.9,0,0,1,.814.361,1.32,1.32,0,0,1,.7,1.257c-.024,1.072-.031,2.146,0,3.217a1.336,1.336,0,0,1-.861,1.392,8.825,8.825,0,0,1-1.859.564,11.463,11.463,0,0,1-5.313-.276,6.023,6.023,0,0,0-2.012.006,11.022,11.022,0,0,1-6.869-.169,1.438,1.438,0,0,0-1.218,0,9.724,9.724,0,0,1-4.493.584,8.216,8.216,0,0,1-2.777-.568,3.218,3.218,0,0,1-.708-.419A1.175,1.175,0,0,1,0,25.057Q.011,20.48,0,15.9,0,8.34,0,.777C0,.146.151,0,.785,0H30.008c.631,0,.779.148.779.781q0,8.773,0,17.547c0,.631-.149.779-.781.779H18.062ZM23.388,3.728H7.394a3.236,3.236,0,0,1-2.588,2.6v5.6c.434.028.843.045,1.249.084a7.481,7.481,0,0,1,2.592.633A1.407,1.407,0,0,1,9.563,14.1c-.033.423-.006.851-.006,1.269H23.4a3.287,3.287,0,0,1,.905-1.716,3.33,3.33,0,0,1,1.685-.881V6.332a3.259,3.259,0,0,1-2.6-2.6M3.719,11.918V11.6q0-2.8,0-5.605c0-.489.159-.655.642-.688A2.127,2.127,0,0,0,6.37,3.289c.032-.477.2-.636.694-.636h16.65c.512,0,.674.152.708.655A2.131,2.131,0,0,0,26.415,5.3c.5.035.656.2.656.707q0,3.532,0,7.065c0,.535-.144.69-.67.728a2.133,2.133,0,0,0-1.979,1.974c-.039.532-.191.675-.723.675h-6.15a3.907,3.907,0,0,1,.445.746,3.632,3.632,0,0,1,.083.828H29.7V1.086H1.076v11.39l2.643-.558M1.141,13.8c.989,1.056,6.272,1.06,7.276,0-.974-1.052-6.26-1.064-7.276,0m8.437,3.692a2.891,2.891,0,0,0,.587.288,17.2,17.2,0,0,0,2.168.421,9.3,9.3,0,0,0,4.052-.419,4.745,4.745,0,0,0,.577-.3c-1.185-1.089-6.262-1.071-7.383.012m15.88,3.965a2.859,2.859,0,0,0-.587-.289,17.662,17.662,0,0,0-2.2-.423,9.254,9.254,0,0,0-4.019.421,4.747,4.747,0,0,0-.577.3c1.168,1.084,6.249,1.077,7.383-.011M9.579,24.291c-.033,1.036-.2.958.865,1.352a2.87,2.87,0,0,0,.351.1,10.805,10.805,0,0,0,3.95.171,12.858,12.858,0,0,0,1.91-.5.528.528,0,0,0,.317-.327,4.154,4.154,0,0,0,.015-.791,11.891,11.891,0,0,1-7.407,0m-1.1.071a11.827,11.827,0,0,1-7.395-.011c-.02.953-.231.942.816,1.258a10.171,10.171,0,0,0,5.751.013c.848-.236.89-.339.828-1.26M8.464,18.8a11.848,11.848,0,0,1-7.373-.013c-.05.756-.132.68.528.884a11.545,11.545,0,0,0,2.358.459,8.731,8.731,0,0,0,3.98-.438c.606-.234.584-.137.507-.892m8.507,1.786a11.858,11.858,0,0,1-7.392-.005c-.038.748-.142.673.536.885a11.247,11.247,0,0,0,2.326.455,9.132,9.132,0,0,0,3.953-.41c.628-.225.624-.236.577-.925m-15.883.055c-.038.75-.122.605.531.908a1.923,1.923,0,0,0,.25.085,9.791,9.791,0,0,0,3.832.352,13.515,13.515,0,0,0,2.262-.443c.577-.159.6-.291.5-.886a11.808,11.808,0,0,1-7.37-.017m15.878,1.806a11.8,11.8,0,0,1-7.374-.008c-.1.616-.09.718.477.872a14.08,14.08,0,0,0,2.358.467,8.8,8.8,0,0,0,3.983-.42c.7-.265.594-.186.556-.911m-15.876.052c-.044.755-.138.68.531.888a11.506,11.506,0,0,0,2.359.459,9.043,9.043,0,0,0,3.982-.433c.567-.208.6-.291.5-.9a11.833,11.833,0,0,1-7.373-.017M8.48,16.931a11.862,11.862,0,0,1-7.392-.006c-.042.75-.14.676.533.885a11.512,11.512,0,0,0,2.359.458A8.765,8.765,0,0,0,7.9,17.851c.768-.288.593-.212.583-.92m9.59,5.841c-.064.648-.066.723.537.884a14.131,14.131,0,0,0,2.361.451,9.034,9.034,0,0,0,3.981-.435c.564-.208.6-.3.494-.892a11.946,11.946,0,0,1-7.373-.008m-1.1-4.042a12.031,12.031,0,0,1-7.393,0c-.055.654-.062.718.546.881a13.9,13.9,0,0,0,2.329.447,9.121,9.121,0,0,0,3.952-.414c.62-.223.622-.244.567-.916M1.085,15.079c-.061.648-.048.669.538.9.082.032.167.056.251.083a10.293,10.293,0,0,0,3.568.381A7.613,7.613,0,0,0,8,15.963c.532-.215.57-.3.458-.876a12.014,12.014,0,0,1-7.372-.008m24.361,9.554a11.836,11.836,0,0,1-7.375-.013c-.063.629-.028.7.555.913a9.182,9.182,0,0,0,4.052.424A13.449,13.449,0,0,0,25,25.477c.514-.146.536-.28.447-.845" transform="translate(0 0.001)" fill="#12263f"/>
        <path id="Trazado_913163" data-name="Trazado 913163" d="M125.412,61.426a4.431,4.431,0,0,1,3.784-4.449,3.958,3.958,0,0,1,3.948,1.853,4.68,4.68,0,0,1-.82,6.15,4.164,4.164,0,0,1-6.739-2.411c-.087-.374-.116-.761-.172-1.142m7.525,0a9.786,9.786,0,0,0-.331-1.339,3.066,3.066,0,0,0-2.543-2.064,2.93,2.93,0,0,0-2.793,1.187,3.634,3.634,0,0,0,.021,4.486,2.91,2.91,0,0,0,2.837,1.15,3.455,3.455,0,0,0,2.81-3.42" transform="translate(-114.297 -51.89)" fill="#12263f"/>
        <path id="Trazado_913164" data-name="Trazado 913164" d="M73.79,101.785c.42,0,.84,0,1.26,0a.533.533,0,1,1,0,1.058q-1.26.008-2.52,0a.533.533,0,1,1,0-1.058c.42-.006.84,0,1.26,0" transform="translate(-65.559 -92.762)" fill="#12263f"/>
        <path id="Trazado_913165" data-name="Trazado 913165" d="M235.507,101.784c.409,0,.818,0,1.227,0a.533.533,0,1,1,0,1.058q-1.26.008-2.52,0a.533.533,0,1,1,0-1.058c.431-.006.862,0,1.293,0" transform="translate(-212.914 -92.762)" fill="#12263f"/>
        <path id="Trazado_913166" data-name="Trazado 913166" d="M153.466,75.217a1.654,1.654,0,0,1,.357.344.984.984,0,0,0,1.352.306c.314-.213.321-.472,0-.668-.283-.17-.587-.306-.88-.46-.254-.133-.516-.254-.758-.407a1.388,1.388,0,0,1,.03-2.5c.252-.152.522-.233.68-.557.166-.34.665-.235.864.115a.809.809,0,0,0,.329.309,1.832,1.832,0,0,1,.889.81.532.532,0,0,1-.2.742.52.52,0,0,1-.711-.216.956.956,0,0,0-1.278-.316c-.381.2-.4.495-.031.714.284.169.586.308.88.46.215.112.434.219.645.337a1.367,1.367,0,0,1,.848,1.31,1.557,1.557,0,0,1-.987,1.345.677.677,0,0,0-.42.365.51.51,0,0,1-.888,0,.671.671,0,0,0-.418-.367,1.609,1.609,0,0,1-.9-.922c-.144-.387.1-.757.608-.752" transform="translate(-139.228 -64.774)" fill="#12263f"/>
      </g>
    </g>
  </g>
</svg>
