<svg xmlns="http://www.w3.org/2000/svg" xmlns:xlink="http://www.w3.org/1999/xlink" width="50.055" height="40.906" viewBox="0 0 50.055 40.906">
  <defs>
    <clipPath id="clip-path">
      <rect id="Rect치ngulo_403831" data-name="Rect치ngulo 403831" width="36.846" height="37.8" fill="#12263f"/>
    </clipPath>
  </defs>
  <g id="Grupo_1103714" data-name="Grupo 1103714" transform="translate(-646.333 -4685.365)">
    <g id="Grupo_1100929" data-name="Grupo 1100929" transform="translate(646.333 4685.365)">
      <rect id="Rect치ngulo_402862" data-name="Rect치ngulo 402862" width="26.726" height="40.906" rx="13.363" transform="translate(0 0)" fill="#4b96e3"/>
      <circle id="Elipse_11523" data-name="Elipse 11523" cx="5.727" cy="5.727" r="5.727" transform="translate(0 0)" fill="#ffbe01"/>
    </g>
    <g id="Grupo_1102570" data-name="Grupo 1102570" transform="translate(659.542 4686.825)">
      <g id="Grupo_1102569" data-name="Grupo 1102569" clip-path="url(#clip-path)">
        <path id="Trazado_913202" data-name="Trazado 913202" d="M69.77,57.7H60.646c-.745,0-.906-.165-.906-.92q0-8.145,0-16.29c0-.742.166-.9.921-.9h1.288c0-.242,0-.44,0-.639.013-.524.22-.746.745-.738.948.014,1.9.051,2.845.078.1,0,.2,0,.346,0a6.233,6.233,0,0,1,2.7-5.534,6.028,6.028,0,0,1,3.944-1.085,6.274,6.274,0,0,1,5.8,6.629c.237-.015.47-.036.7-.042.809-.02,1.619-.04,2.429-.048.594-.006.793.2.8.8,0,.176,0,.351,0,.58.495,0,.959,0,1.423,0,.574,0,.783.206.783.775q0,8.278,0,16.556c0,.583-.21.782-.815.782q-4.4,0-8.807,0c-.267,0-.419.035-.524.334a1.368,1.368,0,0,1-1.338.941c-.48.017-.962.005-1.442.005A1.575,1.575,0,0,1,69.77,57.7m6.478-13.678c.149-.021.272-.043.4-.054.957-.088,1.913-.185,2.871-.255a.609.609,0,0,1,.7.578.628.628,0,0,1-.659.633c-.417.027-.835.036-1.25.081-.749.081-1.5.183-2.275.28v1.509c.04-.005.1-.014.157-.02,1.094-.112,2.186-.242,3.283-.319a.859.859,0,0,1,.639.285c.3.391-.036.857-.589.921-1.367.158-2.73.346-4.1.512-.211.026-.268.147-.358.317a2.861,2.861,0,0,1-.607.836c-.218.188-.3.339-.211.584.8-.159,1.586-.355,2.384-.464.963-.132,1.936-.2,2.906-.274a.591.591,0,0,1,.675.563.634.634,0,0,1-.613.645c-.1.011-.2.006-.3.012a21.765,21.765,0,0,0-4.566.691c-.325.089-.646.258-.979.019a.172.172,0,0,0-.138.008c-.3.13-.588.266-.888.4v4.454a15.223,15.223,0,0,1,4.077-1.083c1.39-.167,2.788-.261,4.207-.389V39.411c-.945.042-1.864.08-2.782.13a.279.279,0,0,0-.191.143c-.219.466-.426.938-.645,1.427.7-.044,1.387-.1,2.077-.128a.634.634,0,0,1,.744.582c.016.363-.253.605-.7.633-.543.034-1.088.05-1.627.115-1.427.172-1.426.18-1.661,1.623a.531.531,0,0,0,.013.086M71.474,55.966V51.449c-.5-.031-.912-.5-1.455-.227-.045.023-.123-.015-.183-.031-.232-.063-.461-.134-.694-.193a21.975,21.975,0,0,0-4.463-.613.642.642,0,0,1-.69-.647.609.609,0,0,1,.712-.566c.568.026,1.14.041,1.7.122,1.186.171,2.365.381,3.565.578.071-.2,0-.355-.224-.543a2.769,2.769,0,0,1-.607-.836c-.09-.17-.147-.287-.357-.319-.737-.112-1.467-.268-2.205-.362-.652-.083-1.311-.1-1.966-.158a.627.627,0,0,1-.621-.635.6.6,0,0,1,.631-.576,7.811,7.811,0,0,1,.834.037c.914.09,1.826.19,2.709.283V45.237c-1.187-.106-2.331-.213-3.476-.309-.438-.037-.713-.276-.7-.636a.623.623,0,0,1,.742-.579c.795.051,1.588.124,2.382.194.284.025.567.072.91.116-.127-.46-.243-.858-.347-1.259a.433.433,0,0,0-.457-.357c-.87-.058-1.739-.144-2.608-.212-.281-.022-.519-.134-.568-.41a.755.755,0,0,1,.119-.582.893.893,0,0,1,.606-.212c.679.013,1.357.075,2.041.119-.221-.5-.431-.981-.653-1.46a.242.242,0,0,0-.175-.112c-.92-.048-1.839-.087-2.775-.129V54.557a22.825,22.825,0,0,1,8.269,1.41m1-17.391c0-.315-.015-.581,0-.845a1.9,1.9,0,0,1,3.8.227,1.926,1.926,0,0,1-1.852,1.853c-.235.016-.472,0-.706,0v4.942c.336,0,.639.015.94-.009.088-.007.232-.122.239-.2a11.107,11.107,0,0,1,1.6-4.455,4.545,4.545,0,0,0-.393-5.175,4.694,4.694,0,0,0-4.9-1.954,4.947,4.947,0,0,0-3.372,7.428,12.912,12.912,0,0,1,1.088,2.325,13.586,13.586,0,0,1,.373,1.7c.029.123.135.311.223.322a8.172,8.172,0,0,0,.981.015V39.847c-.343-.025-.672-.024-.991-.077a1.9,1.9,0,0,1-1.576-2.049,1.931,1.931,0,0,1,1.931-1.732,1.9,1.9,0,0,1,1.87,1.827c.011.248,0,.5,0,.76ZM68.9,56.464l.01-.046c-.128-.035-.255-.077-.384-.1a27.574,27.574,0,0,0-5.616-.53c-.8,0-.96-.16-.96-.95q0-6.757,0-13.514v-.493H60.99V56.464Zm13.36-15.637v.528q0,6.792,0,13.585c0,.642-.2.816-.838.847-1.337.064-2.676.124-4.01.239-.707.061-1.4.232-2.106.353l.013.074h7.908V40.827ZM71.768,44.722h.675V39.837h-.675ZM74.816,46H69.389c-.026.5.049.579.518.58q2.2,0,4.391,0c.47,0,.544-.084.518-.58M70.3,47.811c-.03.49.045.582.477.584q1.323.006,2.646,0c.451,0,.539-.119.449-.584Zm.214-9.2c0-.3.015-.541,0-.778a.658.658,0,0,0-.648-.619.7.7,0,0,0-.711.6.661.661,0,0,0,.519.732,6.814,6.814,0,0,0,.844.06m3.176,0a6.8,6.8,0,0,0,.84-.058.663.663,0,0,0,.523-.73.7.7,0,0,0-.707-.609.659.659,0,0,0-.652.615c-.019.237,0,.476,0,.78m-.721,11.035H71.225c-.014.473.058.557.47.564.265,0,.53,0,.795,0,.438-.005.517-.1.481-.564m.228,7.488a3.434,3.434,0,0,1-1.1.417,3.173,3.173,0,0,1-1.059-.4c-.056.541-.007.6.471.6q.586,0,1.173,0c.506,0,.56-.062.513-.622" transform="translate(-53.68 -28.444)" fill="#12263f"/>
        <path id="Trazado_913203" data-name="Trazado 913203" d="M31.8,64.3c-.029.125-.051.248-.085.368a.6.6,0,0,1-1.184-.17,15.208,15.208,0,0,1,.291-1.834.775.775,0,0,1,.5-.435,13.815,13.815,0,0,1,1.606-.273.6.6,0,0,1,.753.5c.045.351-.179.617-.593.7-.146.029-.294.051-.485.084.088.126.146.217.213.3a18.214,18.214,0,0,1,3.963,13.109A18.42,18.42,0,0,1,2.738,84.7a17.839,17.839,0,0,1-2.7-10.748A18.18,18.18,0,0,1,4.2,63.33a2.868,2.868,0,0,1,.275-.314.6.6,0,0,1,.919.769,2.894,2.894,0,0,1-.21.269,16.48,16.48,0,0,0-3.88,12.488c.727,6.927,4.368,11.9,10.835,14.472,6.144,2.447,11.975,1.454,17.151-2.661a16.4,16.4,0,0,0,6.218-11.382A16.878,16.878,0,0,0,32.3,64.87c-.133-.185-.278-.36-.42-.538-.013-.017-.044-.021-.078-.036" transform="translate(0 -55.66)" fill="#12263f"/>
        <path id="Trazado_913204" data-name="Trazado 913204" d="M176.79,1.315c0,.2.01.4,0,.606a.592.592,0,0,1-.6.6.582.582,0,0,1-.609-.589c-.016-.441-.015-.884,0-1.326A.6.6,0,0,1,176.787.6c.014.239,0,.48,0,.72" transform="translate(-157.76 0)" fill="#12263f"/>
        <path id="Trazado_913205" data-name="Trazado 913205" d="M217.924,15.146c-.528,0-.835-.426-.649-.823a9.965,9.965,0,0,1,.737-1.276.595.595,0,0,1,1.029.579,10.829,10.829,0,0,1-.76,1.306c-.084.126-.286.173-.358.214" transform="translate(-195.186 -11.49)" fill="#12263f"/>
        <path id="Trazado_913206" data-name="Trazado 913206" d="M92.826,47.469c.23.108.37.164.5.237.341.192.686.379,1.013.594a.6.6,0,0,1-.589,1.041c-.414-.215-.818-.451-1.214-.7a.528.528,0,0,1-.217-.726c.106-.193.345-.312.507-.448" transform="translate(-82.893 -42.654)" fill="#12263f"/>
        <path id="Trazado_913207" data-name="Trazado 913207" d="M248.09,50.434a2.621,2.621,0,0,1-.484-.474.483.483,0,0,1,.175-.669,7.886,7.886,0,0,1,1.314-.742.734.734,0,0,1,.653.18.663.663,0,0,1,.057.642,4.835,4.835,0,0,1-1.715,1.063" transform="translate(-222.426 -43.604)" fill="#12263f"/>
        <path id="Trazado_913208" data-name="Trazado 913208" d="M128.386,12.885a1.342,1.342,0,0,1,.384.3,11.842,11.842,0,0,1,.666,1.143.6.6,0,1,1-1.057.587c-.225-.365-.443-.735-.638-1.116a.622.622,0,0,1,.645-.912" transform="translate(-114.715 -11.577)" fill="#12263f"/>
        <path id="Trazado_913209" data-name="Trazado 913209" d="M201.49,231.16c.081,0,.207,0,.333,0a.6.6,0,0,1,.617.547.61.61,0,0,1-.552.655c-.375.048-.755.058-1.132.085a19.455,19.455,0,0,0-4.127.734c-.512.151-.911-.143-.865-.617a.579.579,0,0,1,.5-.541c1.359-.265,2.72-.523,4.083-.766.359-.064.729-.064,1.14-.1" transform="translate(-175.904 -207.711)" fill="#12263f"/>
        <path id="Trazado_913210" data-name="Trazado 913210" d="M102.6,231.173a22.323,22.323,0,0,1,5.177.843c.45.139.65.436.541.8a.628.628,0,0,1-.864.368,21.118,21.118,0,0,0-5-.792,1.43,1.43,0,0,1-.372-.056.6.6,0,0,1,.133-1.163c.151-.01.3,0,.381,0" transform="translate(-91.351 -207.72)" fill="#12263f"/>
      </g>
    </g>
  </g>
</svg>
