<svg xmlns="http://www.w3.org/2000/svg" xmlns:xlink="http://www.w3.org/1999/xlink" width="48.11" height="40.906" viewBox="0 0 48.11 40.906">
  <defs>
    <clipPath id="clip-path">
      <rect id="Rect치ngulo_403832" data-name="Rect치ngulo 403832" width="36.494" height="36.409" fill="#12263f"/>
    </clipPath>
  </defs>
  <g id="Grupo_1103715" data-name="Grupo 1103715" transform="translate(-907.333 -4685.365)">
    <g id="Grupo_1100929" data-name="Grupo 1100929" transform="translate(907.333 4685.365)">
      <rect id="Rect치ngulo_402862" data-name="Rect치ngulo 402862" width="26.726" height="40.906" rx="13.363" transform="translate(0 0)" fill="#4b96e3"/>
      <circle id="Elipse_11523" data-name="Elipse 11523" cx="5.727" cy="5.727" r="5.727" transform="translate(0 0)" fill="#ffbe01"/>
    </g>
    <g id="Grupo_1102572" data-name="Grupo 1102572" transform="translate(918.949 4688.563)">
      <g id="Grupo_1102571" data-name="Grupo 1102571" clip-path="url(#clip-path)">
        <path id="Trazado_913211" data-name="Trazado 913211" d="M22.708,27.49a.719.719,0,0,1,1.045.151,3.036,3.036,0,0,0,2.958,1.084,5.938,5.938,0,0,1,.809-.005c-.137-.187-.237-.316-.329-.451a1.254,1.254,0,0,1,.234-1.757c.33-.28.668-.55,1.01-.815a1.278,1.278,0,0,1,1.88.208c.4.476.4.476.986.2-.427-.446-.849-.9-1.289-1.335-.067-.066-.219-.059-.332-.06-.708,0-1.416,0-2.124,0-.42,0-.662-.219-.653-.564.009-.327.244-.531.645-.534.839-.005,1.679-.019,2.517.011a1.048,1.048,0,0,1,.618.263c.588.541,1.139,1.122,1.721,1.67a.633.633,0,0,0,.436.147c.064,0,.13-.218.166-.344s.037-.285.064-.427a1.217,1.217,0,0,1,1.19-1.006,12.411,12.411,0,0,1,1.718.175,1.246,1.246,0,0,1,.963,1.346c-.027.679-.022.669.575.969a7.393,7.393,0,0,1,1.085.629.489.489,0,0,0,.713-.038,1.906,1.906,0,0,1,.751-.394,1.185,1.185,0,0,1,1.221.46c.273.335.548.669.811,1.013a1.239,1.239,0,0,1-.226,1.867.653.653,0,0,0-.245.945,9.824,9.824,0,0,1,.4,1.392c.03.108.062.215.1.356.423-.245.8-.479,1.186-.681a5.984,5.984,0,0,1,.834-.342.545.545,0,0,1,.794.555c.012.852.014,1.7,0,2.556a.849.849,0,0,0,.263.658c.509.528,1,1.075,1.534,1.656.583-.638,1.159-1.258,1.716-1.894a.634.634,0,0,0,.063-.374c.005-.786,0-1.573,0-2.36,0-.684.328-.9.957-.638a5.03,5.03,0,0,1,3.259,5.06,5.312,5.312,0,0,1-3.628,4.847,1.011,1.011,0,0,0-.63.567,13.023,13.023,0,0,1-3.811,4.534c-.093.071-.184.144-.313.244.152.074.277.131.4.2a1.441,1.441,0,0,1,.662,1.971,3.249,3.249,0,0,1-1.677,1.474q-3.163,1.533-6.327,3.062c-.672.325-1.347.641-2.015.975a2.552,2.552,0,0,1-1.753.216Q30.824,54.308,28,53.715a.992.992,0,0,0-.526.035q-1.231.462-2.445.97a.688.688,0,0,0-.319.34,1.8,1.8,0,0,1-1.723,1.2c-.642.011-1.285.017-1.927,0a1.771,1.771,0,0,1-1.747-1.768q-.021-3.441,0-6.882a1.793,1.793,0,0,1,1.768-1.8c.641-.027,1.285-.024,1.927,0a1.856,1.856,0,0,1,1.707,1.212l3.973-1.784c-.438-.7-.891-1.361-1.274-2.059a5.461,5.461,0,0,1-.818-2.991.561.561,0,0,0-.127-.312c-.127-.182-.278-.348-.414-.525a1.245,1.245,0,0,1,.21-1.869.639.639,0,0,0,.239-.968c-.141-.259-.167-.578-.284-.853a.441.441,0,0,0-.3-.241c-.839-.02-1.678-.023-2.517,0a.593.593,0,0,0-.406.265c-.495.818-.965,1.651-1.443,2.478-.052.091-.1.184-.161.27a.532.532,0,0,1-.75.192.5.5,0,0,1-.2-.718c.628-1.119,1.266-2.233,1.934-3.328a.8.8,0,0,1,.564-.262c.516-.036,1.036-.012,1.641-.012-.484-.577-.247-1.178-.236-1.8H22.635c-.59,0-1.18,0-1.77,0-.412,0-.634-.193-.642-.529s.23-.566.652-.569c1.128-.006,2.255.007,3.382-.012a.908.908,0,0,0,.541-.208,1.37,1.37,0,0,1,1.246-.322.469.469,0,0,0,.634-.382,6.826,6.826,0,0,1,.293-.665c-.631,0-1.214-.016-1.795.006a1.2,1.2,0,0,1-.926-.328c-.384-.356-.788-.693-1.2-1.011a.78.78,0,0,1-.348-.977Zm2.1,26.128c.858-.34,1.64-.669,2.438-.954a1.552,1.552,0,0,1,.8-.065c1.923.4,3.841.814,5.757,1.239a1.67,1.67,0,0,0,1.142-.122c2.779-1.348,5.562-2.686,8.337-4.041a3.8,3.8,0,0,0,.931-.639.727.727,0,0,0,.219-.608.7.7,0,0,0-.56-.327,4.157,4.157,0,0,0-1.263.2c-2.214.764-4.414,1.567-6.628,2.327a1.567,1.567,0,0,1-.9,0c-.9-.271-1.785-.6-2.676-.906-.668-.229-1.338-.454-2-.687-.443-.155-.6-.413-.48-.751s.417-.425.852-.282c.037.012.073.03.11.043,1.436.49,2.871.986,4.312,1.459a.689.689,0,0,0,.526-.061.512.512,0,0,0,.092-.889,5.644,5.644,0,0,0-1.344-.852c-1.256-.555-2.541-1.046-3.808-1.577a1.5,1.5,0,0,0-1.253,0c-1.457.654-2.914,1.305-4.367,1.968a.4.4,0,0,0-.217.267c-.013,1.729-.01,3.458-.01,5.258M49.624,33.075c0,.744.021,1.4-.011,2.048a1.168,1.168,0,0,1-.245.667c-.688.791-1.407,1.555-2.12,2.324-.374.4-.656.4-1.023.006-.7-.761-1.413-1.515-2.089-2.3a1.294,1.294,0,0,1-.276-.731c-.037-.7-.013-1.4-.013-2.19-.324.2-.585.345-.825.516a4.035,4.035,0,0,0,.378,6.869c.409.2.416.532.347.9A4.668,4.668,0,0,1,42.7,43.311a8.865,8.865,0,0,1-3.051,2.3c-1.1.527-2.214,1.01-3.321,1.515a1.947,1.947,0,0,0-.224.136c.263.3.5.578.752.838a.489.489,0,0,0,.331.136,12.4,12.4,0,0,0,1.8-.137,11.8,11.8,0,0,0,8.73-6.8.915.915,0,0,1,.629-.529,4.221,4.221,0,0,0,3.283-4.591,3.776,3.776,0,0,0-2-3.109m-8.28.418a8.326,8.326,0,0,1-.36-.809c-.195-.609-.358-1.228-.545-1.84a1.268,1.268,0,0,1,.259-1.316c.2-.216.568-.437.555-.636-.018-.261-.336-.5-.525-.753-.024-.031-.048-.062-.073-.093-.34-.428-.34-.428-.784-.09a1.3,1.3,0,0,1-1.63.16c-.565-.327-1.141-.636-1.717-.943a1.237,1.237,0,0,1-.724-1.2,2.262,2.262,0,0,0,.023-.507.443.443,0,0,0-.241-.3,7.2,7.2,0,0,0-.894-.117c-.525-.06-.539-.048-.593.491a1.31,1.31,0,0,1-1.1,1.293c-.6.159-1.2.34-1.8.525a1.275,1.275,0,0,1-1.317-.264c-.216-.193-.439-.56-.638-.546-.263.018-.5.333-.756.521-.021.016-.041.033-.061.05-.452.366-.452.366-.09.84a1.311,1.311,0,0,1,.07,1.7c-.308.5-.578,1.024-.843,1.548a1.294,1.294,0,0,1-1.4.779c-.065-.007-.131-.011-.2-.023-.3-.057-.478.011-.479.365a6.086,6.086,0,0,1-.083.781c-.07.524-.07.527.445.58a1.347,1.347,0,0,1,1.318,1.035c.161.618.337,1.234.534,1.842a1.286,1.286,0,0,1-.288,1.38,1.8,1.8,0,0,1-.33.278c-.28.181-.24.338-.069.605.276.432.739.506,1.14.729l.283-.2a1.262,1.262,0,0,1,1.471-.033c.553.321,1.117.626,1.684.921a1.31,1.31,0,0,1,.755,1.345,2.709,2.709,0,0,1-.045.311c-.05.243.035.372.293.394.287.024.572.065.859.1.513.06.513.06.579-.454a1.36,1.36,0,0,1,1.08-1.326c.607-.156,1.208-.332,1.805-.522a1.3,1.3,0,0,1,1.488.4,2.5,2.5,0,0,1,.2.246c.165.248.334.237.546.047a9.316,9.316,0,0,1,.736-.59c.23-.168.249-.315.064-.547-.66-.826-.658-1.171-.068-2.073a1.354,1.354,0,0,0,.3-.622,5.43,5.43,0,0,1,1.167-3.459M23.707,51.077c0-1.114,0-2.228,0-3.341a.731.731,0,0,0-.786-.827q-.865-.021-1.73,0a.72.72,0,0,0-.779.793q-.009,3.342,0,6.683a.7.7,0,0,0,.785.776c.537.008,1.075,0,1.612,0,.66,0,.9-.24.9-.9,0-1.061,0-2.123,0-3.184M41.276,40.041a4.13,4.13,0,0,1-.513.823,9.4,9.4,0,0,1-1.158.941A1.258,1.258,0,0,1,37.9,41.61a1.6,1.6,0,0,1-.2-.245c-.157-.261-.339-.277-.623-.167a8.331,8.331,0,0,1-1.427.419c-.368.071-.53.207-.549.6a1.26,1.26,0,0,1-.98,1.267,4.547,4.547,0,0,1-.6.044.723.723,0,0,0,.109.093,14.919,14.919,0,0,0,3.778,1.287,2.091,2.091,0,0,0,1.035.029,7.761,7.761,0,0,0,3.266-2.18,7.827,7.827,0,0,0,.835-1.361.387.387,0,0,0-.075-.36c-.4-.356-.818-.685-1.2-1m-4.8,5.8-.274-.08a15.523,15.523,0,0,1-7.329-4.271,10.219,10.219,0,0,0-1.187-.948,5.233,5.233,0,0,0,.064.525,9.6,9.6,0,0,0,2.037,3.674.611.611,0,0,0,.3.133,11.139,11.139,0,0,1,1.091.294c1.108.433,2.2.9,3.306,1.344.116.047.27.122.363.083.524-.222,1.034-.475,1.625-.754m-7.3-5.611-.035.02,2.009,1.907a3.675,3.675,0,0,0,.088-.562c0-.117-.03-.3-.107-.34-.643-.356-1.3-.686-1.955-1.024" transform="translate(-16.246 -19.867)" fill="#12263f"/>
        <path id="Trazado_913212" data-name="Trazado 913212" d="M142.6,6.1a6.753,6.753,0,0,0-5.381-4.687c-.345-.057-.62-.177-.625-.57,0-.371.26-.493.579-.579a7.71,7.71,0,0,1,9.176,4.782c.118.319.242.484.608.39a2.659,2.659,0,0,1,.626-.038c.566-.006.815.391.545.887-.358.654-.734,1.3-1.1,1.946-.4.7-.8,1.411-1.208,2.113-.29.5-.629.556-1.038.161-1.1-1.063-2.209-2.125-3.292-3.209a.8.8,0,0,1-.225-.641c.051-.174.333-.317.542-.4a4.387,4.387,0,0,1,.8-.155m4.1.484c-.132-.006-.184-.011-.236-.01-.748.012-.773-.008-.984-.716a6.5,6.5,0,0,0-1.3-2.4,6.567,6.567,0,0,0-4.135-2.274c.011.046.009.065.017.07.107.073.216.145.324.216A7.789,7.789,0,0,1,143.776,6.2c.153.6.006.827-.6.924-.057.009-.113.026-.17.04l.1-.057,2.028,2.214L146.7,6.579" transform="translate(-114.968 -0.001)" fill="#12263f"/>
        <path id="Trazado_913213" data-name="Trazado 913213" d="M13.29,119a1.832,1.832,0,1,1-1.839,1.81A1.842,1.842,0,0,1,13.29,119m-.735,1.784a.735.735,0,1,0,.808-.681.739.739,0,0,0-.808.681" transform="translate(-9.638 -100.159)" fill="#12263f"/>
        <path id="Trazado_913214" data-name="Trazado 913214" d="M45.678,18.7a1.825,1.825,0,1,1-.024-3.65,1.826,1.826,0,1,1,.024,3.65m.013-1.1a.724.724,0,1,0-.749-.7.723.723,0,0,0,.749.7" transform="translate(-36.897 -12.666)" fill="#12263f"/>
        <path id="Trazado_913215" data-name="Trazado 913215" d="M1.85,64.846A1.83,1.83,0,1,1,0,66.642a1.838,1.838,0,0,1,1.85-1.8m.722,1.826a.735.735,0,1,0-.724.728.737.737,0,0,0,.724-.728" transform="translate(0 -54.578)" fill="#12263f"/>
        <path id="Trazado_913216" data-name="Trazado 913216" d="M23.106,32.567l-.011.021a1.874,1.874,0,0,1-2.049.618,1.829,1.829,0,1,1,1.286-3.421,1.845,1.845,0,0,1,.916,2.5c-.046.094-.095.186-.142.279M21.633,32.2a.734.734,0,0,0-.028-1.467.734.734,0,1,0,.028,1.467" transform="translate(-16.644 -24.943)" fill="#12263f"/>
        <path id="Trazado_913217" data-name="Trazado 913217" d="M81.194,62.171a5.872,5.872,0,1,1,5.894-5.811,5.852,5.852,0,0,1-5.894,5.811m.026-1.1a4.774,4.774,0,1,0-4.779-4.76,4.765,4.765,0,0,0,4.779,4.76" transform="translate(-63.414 -42.442)" fill="#12263f"/>
      </g>
    </g>
  </g>
</svg>
