<svg xmlns="http://www.w3.org/2000/svg" xmlns:xlink="http://www.w3.org/1999/xlink" width="61.606" height="40.906" viewBox="0 0 61.606 40.906">
  <defs>
    <clipPath id="clip-path">
      <rect id="Rectángulo_403548" data-name="Rectángulo 403548" width="61.606" height="36.588" fill="#12263f"/>
    </clipPath>
  </defs>
  <g id="Grupo_1103707" data-name="Grupo 1103707" transform="translate(-1165.818 -888.582)">
    <g id="Grupo_1102463" data-name="Grupo 1102463" transform="translate(1169.333 888.582)">
      <rect id="Rectángulo_402862" data-name="Rectángulo 402862" width="26.726" height="40.906" rx="13.363" transform="translate(0 0)" fill="#4b96e3"/>
      <circle id="Elipse_11523" data-name="Elipse 11523" cx="5.727" cy="5.727" r="5.727" transform="translate(0 0)" fill="#ffbe01"/>
    </g>
    <g id="Grupo_1102467" data-name="Grupo 1102467" transform="translate(1165.818 892.9)">
      <g id="Grupo_1102387" data-name="Grupo 1102387">
        <g id="Grupo_1102386" data-name="Grupo 1102386" clip-path="url(#clip-path)">
          <path id="Línea_679" data-name="Línea 679" d="M7.433-.334H-.621A.287.287,0,0,1-.908-.621.287.287,0,0,1-.621-.908H7.433a.287.287,0,0,1,.287.287A.287.287,0,0,1,7.433-.334Z" transform="translate(0.908 33.622)" fill="#12263f"/>
          <path id="Línea_680" data-name="Línea 680" d="M6.336-.334H-.621A.287.287,0,0,1-.908-.621.287.287,0,0,1-.621-.908H6.336a.287.287,0,0,1,.287.287A.287.287,0,0,1,6.336-.334Z" transform="translate(54.984 33.622)" fill="#12263f"/>
        </g>
      </g>
      <path id="Línea_681" data-name="Línea 681" d="M40.665-.334H-.621A.287.287,0,0,1-.908-.621.287.287,0,0,1-.621-.908H40.665a.287.287,0,0,1,.287.287A.287.287,0,0,1,40.665-.334Z" transform="translate(12.066 33.622)" fill="#12263f"/>
      <g id="Grupo_1102389" data-name="Grupo 1102389">
        <g id="Grupo_1102388" data-name="Grupo 1102388" clip-path="url(#clip-path)">
          <path id="Línea_682" data-name="Línea 682" d="M6.284-.167H-.31A.144.144,0,0,1-.454-.31.144.144,0,0,1-.31-.454H6.284a.144.144,0,0,1,.144.144A.144.144,0,0,1,6.284-.167Z" transform="translate(9.83 36.755)" fill="#12263f"/>
          <path id="Línea_683" data-name="Línea 683" d="M6.289-.167H-.31A.144.144,0,0,1-.454-.31.144.144,0,0,1-.31-.454h6.6a.144.144,0,0,1,.144.144A.144.144,0,0,1,6.289-.167Z" transform="translate(20.44 36.755)" fill="#12263f"/>
          <path id="Línea_684" data-name="Línea 684" d="M13.283-.167H-.31A.144.144,0,0,1-.454-.31.144.144,0,0,1-.31-.454H13.283a.144.144,0,0,1,.144.144A.144.144,0,0,1,13.283-.167Z" transform="translate(30.809 36.755)" fill="#12263f"/>
          <path id="Línea_685" data-name="Línea 685" d="M7.423-.167H-.31A.144.144,0,0,1-.454-.31.144.144,0,0,1-.31-.454H7.423a.144.144,0,0,1,.144.144A.144.144,0,0,1,7.423-.167Z" transform="translate(48.411 36.755)" fill="#12263f"/>
          <path id="Trazado_912791" data-name="Trazado 912791" d="M89.4,55.1H87a.574.574,0,0,1-.574-.574V52.607A8.713,8.713,0,0,1,82.96,51.08a.574.574,0,0,1-.165-.71l1.245-2.516a.574.574,0,0,1,.4-.307h0A3.035,3.035,0,0,1,83.4,45.156a3.5,3.5,0,0,1,.973-2.478,4.468,4.468,0,0,1,2.051-1.16V39.644A.574.574,0,0,1,87,39.071h2.4a.574.574,0,0,1,.574.574v1.793a8.581,8.581,0,0,1,3.063,1.137.574.574,0,0,1,.209.731L92.03,45.852a.574.574,0,0,1-.324.293l.034.023a3.207,3.207,0,0,1,1.489,2.823,3.7,3.7,0,0,1-3.255,3.662v1.878A.574.574,0,0,1,89.4,55.1Zm-1.827-1.148h1.253V52.174a.574.574,0,0,1,.492-.568c1.032-.148,2.763-.684,2.763-2.615a2.068,2.068,0,0,0-.977-1.868,7.46,7.46,0,0,0-2.216-.834,7.831,7.831,0,0,1-1.251-.394,1.646,1.646,0,0,1-.526-.36,1.009,1.009,0,0,1-.281-.7.931.931,0,0,1,.443-.812,1.4,1.4,0,0,1,.753-.181,8.766,8.766,0,0,1,3.223.979l.732-1.532a8.259,8.259,0,0,0-2.654-.792.574.574,0,0,1-.5-.569V40.218H87.573v1.755a.574.574,0,0,1-.465.563c-1.626.315-2.559,1.27-2.559,2.619a1.919,1.919,0,0,0,.943,1.751,7.459,7.459,0,0,0,2.187.785,7.981,7.981,0,0,1,1.292.391,1.662,1.662,0,0,1,.544.368,1.029,1.029,0,0,1,.286.712c0,.529-.364,1.095-1.384,1.095a6.1,6.1,0,0,1-2.141-.5,8.889,8.889,0,0,1-1.509-.78l-.724,1.464a8.183,8.183,0,0,0,3.049,1.125.574.574,0,0,1,.482.567ZM86.266,48.5a5.825,5.825,0,0,0,2.15.613h.037c-.039-.016-.084-.034-.136-.052-.247-.087-.571-.167-.913-.251S86.66,48.623,86.266,48.5Z" transform="translate(-56.581 -26.72)" fill="#12263f"/>
          <path id="Elipse_11564" data-name="Elipse 11564" d="M10.738-1.815a12.55,12.55,0,0,1,8.877,21.431A12.554,12.554,0,1,1,5.852-.829,12.476,12.476,0,0,1,10.738-1.815Zm0,23.96A11.406,11.406,0,1,0-.668,10.738,11.419,11.419,0,0,0,10.738,22.145Z" transform="translate(20.699 9.63)" fill="#12263f"/>
          <path id="Línea_686" data-name="Línea 686" d="M.7,1.081A.383.383,0,0,1,.426.969L-1.1-.559a.384.384,0,0,1,0-.543.384.384,0,0,1,.543,0L.969.426A.384.384,0,0,1,.7,1.081Z" transform="translate(37.362 3.715)" fill="#12263f"/>
          <path id="Línea_687" data-name="Línea 687" d="M-.831,1.081A.383.383,0,0,1-1.1.969a.384.384,0,0,1,0-.543L.426-1.1a.384.384,0,0,1,.543,0,.384.384,0,0,1,0,.543L-.559.969A.383.383,0,0,1-.831,1.081Z" transform="translate(37.362 3.715)" fill="#12263f"/>
          <path id="Línea_688" data-name="Línea 688" d="M.7,1.081A.383.383,0,0,1,.426.969L-1.1-.559a.384.384,0,0,1,0-.543.384.384,0,0,1,.543,0L.969.426A.384.384,0,0,1,.7,1.081Z" transform="translate(50.749 21.422)" fill="#12263f"/>
          <path id="Línea_689" data-name="Línea 689" d="M-.831,1.081A.383.383,0,0,1-1.1.969a.384.384,0,0,1,0-.543L.426-1.1a.384.384,0,0,1,.543,0,.384.384,0,0,1,0,.543L-.559.969A.383.383,0,0,1-.831,1.081Z" transform="translate(50.749 21.422)" fill="#12263f"/>
          <path id="Línea_690" data-name="Línea 690" d="M1.939,2.323a.383.383,0,0,1-.272-.112L-1.1-.559a.384.384,0,0,1,0-.543.384.384,0,0,1,.543,0l2.77,2.77a.384.384,0,0,1-.272.656Z" transform="translate(12.296 13.899)" fill="#12263f"/>
          <path id="Línea_691" data-name="Línea 691" d="M-.831,2.323A.383.383,0,0,1-1.1,2.21a.384.384,0,0,1,0-.543L1.667-1.1a.384.384,0,0,1,.543,0,.384.384,0,0,1,0,.543L-.559,2.21A.383.383,0,0,1-.831,2.323Z" transform="translate(12.296 13.899)" fill="#12263f"/>
          <path id="Elipse_11565" data-name="Elipse 11565" d="M.8-1.215A2.016,2.016,0,1,1-1.215.8,2.018,2.018,0,0,1,.8-1.215Zm0,3.264A1.248,1.248,0,1,0-.447.8,1.249,1.249,0,0,0,.8,2.049Z" transform="translate(21.378 1.215)" fill="#12263f"/>
          <path id="Trazado_912792" data-name="Trazado 912792" d="M151.056,22.976A1.125,1.125,0,1,1,149.93,24.1,1.126,1.126,0,0,1,151.056,22.976Zm0,1.483a.357.357,0,1,0-.358-.358A.358.358,0,0,0,151.056,24.459Z" transform="translate(-102.534 -15.713)" fill="#12263f"/>
        </g>
      </g>
    </g>
  </g>
</svg>
