<svg xmlns="http://www.w3.org/2000/svg" xmlns:xlink="http://www.w3.org/1999/xlink" width="43.88" height="40.906" viewBox="0 0 43.88 40.906">
  <defs>
    <clipPath id="clip-path">
      <rect id="Rect치ngulo_403829" data-name="Rect치ngulo 403829" width="32.25" height="32.245" transform="translate(0 0)" fill="#12263f"/>
    </clipPath>
  </defs>
  <g id="Grupo_1103708" data-name="Grupo 1103708" transform="translate(-382.333 -1309.793)">
    <g id="Grupo_1102460" data-name="Grupo 1102460" transform="translate(382.333 1309.793)">
      <rect id="Rect치ngulo_402862" data-name="Rect치ngulo 402862" width="26.726" height="40.906" rx="13.363" transform="translate(0 0)" fill="#4b96e3"/>
      <circle id="Elipse_11523" data-name="Elipse 11523" cx="5.727" cy="5.727" r="5.727" transform="translate(0 0)" fill="#ffbe01"/>
    </g>
    <g id="Grupo_1102567" data-name="Grupo 1102567" transform="translate(393.963 1315.681)">
      <g id="Grupo_1102566" data-name="Grupo 1102566" transform="translate(0 0.001)" clip-path="url(#clip-path)">
        <path id="Trazado_913188" data-name="Trazado 913188" d="M5.113,26.276,6.65,24.74C3.3,20.7,2.306,16.168,4.343,11.258S10.286,3.839,15.57,3.32V1.143a14.26,14.26,0,0,0-3.578.554A14.816,14.816,0,0,0,7.306,3.979c-.066.048-.13.1-.2.139a.552.552,0,0,1-.768-.13.542.542,0,0,1,.135-.768C7,2.848,7.535,2.472,8.1,2.15A16.116,16.116,0,1,1,.309,19.217,15.861,15.861,0,0,1,3.093,6.638a1.418,1.418,0,0,1,.22-.267.517.517,0,0,1,.7-.02.492.492,0,0,1,.16.65,3.6,3.6,0,0,1-.3.462A14.977,14.977,0,0,0,4.946,26.1c.054.059.111.117.167.175M16.1,27.792A11.673,11.673,0,1,0,4.453,16.113,11.694,11.694,0,0,0,16.1,27.792m12.819-11.1c-.52,5.273-3.037,9.178-7.941,11.212S11.539,28.94,7.547,25.63L6.009,27.16A14.939,14.939,0,0,0,31.07,16.692Zm2.147-1.145A14.906,14.906,0,0,0,16.7,1.172v2.1c7.229,1,11.294,5.068,12.272,12.292h1.932a1.649,1.649,0,0,0,.165-.016" transform="translate(0 0)" fill="#12263f"/>
        <path id="Trazado_913189" data-name="Trazado 913189" d="M50.648,50.036a.558.558,0,0,1-.56.544.546.546,0,0,1-.538-.561.534.534,0,0,1,.555-.537.542.542,0,0,1,.543.554" transform="translate(-44.976 -44.914)" fill="#12263f"/>
        <path id="Trazado_913190" data-name="Trazado 913190" d="M107.435,77.837a2.769,2.769,0,0,1,2.186,1.954,3.284,3.284,0,0,1,.123.922q.016,2.865,0,5.73a.45.45,0,0,0,.269.484,1.615,1.615,0,0,1,.792,1.832,1.643,1.643,0,0,1-1.62,1.268c-2.5.007-5,0-7.5,0-1.181,0-2.362,0-3.543,0a1.66,1.66,0,0,1-1.674-1.246,1.62,1.62,0,0,1,.857-1.894.359.359,0,0,0,.2-.386q0-2.726,0-5.453a2.858,2.858,0,0,1,2.28-3.222,4.973,4.973,0,0,1-.038-.786,1.506,1.506,0,0,1,.7-1.147c.205-.132.208-.248.137-.451-.27-.775-.518-1.557-.783-2.333a.6.6,0,0,1,.127-.73.593.593,0,0,1,.74-.012c.192.106.393.2.589.294a1.642,1.642,0,0,0,1.935-.223.567.567,0,0,1,.865.006,1.631,1.631,0,0,0,1.9.226q.358-.175.715-.354a.537.537,0,0,1,.645.07.549.549,0,0,1,.146.633c-.27.8-.526,1.6-.8,2.4a.344.344,0,0,0,.137.482,1.656,1.656,0,0,1,.619,1.934m-3.8,11.082h.278q2.6,0,5.21,0a.557.557,0,0,0,.151-1.1c-.538-.113-.63-.222-.63-.765q0-3.161,0-6.321a1.676,1.676,0,0,0-1.82-1.813q-3.178,0-6.356,0a1.679,1.679,0,0,0-1.829,1.839q0,3.16,0,6.321c0,.51-.109.636-.621.739a.53.53,0,0,0-.39.832.869.869,0,0,0,.591.263c1.806.02,3.612.012,5.418.012m-2.368-15c.172.52.33,1.024.513,1.518a.341.341,0,0,0,.267.136q1.6.014,3.2,0c.087,0,.229-.051.251-.112.184-.5.345-1.017.519-1.544a4.494,4.494,0,0,1-1.437-.028,2.5,2.5,0,0,0-1.88,0,4.387,4.387,0,0,1-1.428.029m2.373,3.884c.695,0,1.389,0,2.084,0,.437,0,.692-.21.692-.556s-.255-.554-.693-.555q-2.084,0-4.168,0c-.437,0-.692.209-.692.555s.255.553.693.555c.695,0,1.389,0,2.084,0" transform="translate(-87.509 -65.574)" fill="#12263f"/>
        <path id="Trazado_913191" data-name="Trazado 913191" d="M146.8,157.684c.048-.877.184-1.123.587-1.11.389.012.508.242.554,1.109h1.195c.127,0,.255,0,.382,0,.384.011.625.222.63.548s-.245.558-.65.562c-.508,0-1.016,0-1.547,0v1.112a1.968,1.968,0,0,1,1.82.613,1.649,1.649,0,0,1,.377,1.126c-.038,1.007-.7,1.5-2.209,1.616-.053.433.138,1.1-.6,1.069-.662-.025-.486-.631-.537-1.091-.548,0-1.088.008-1.628,0a.552.552,0,0,1-.081-1.1,2.787,2.787,0,0,1,.347-.007H146.8v-1.113c-.19,0-.382.005-.573,0a1.666,1.666,0,0,1,.006-3.332c.182-.005.365,0,.57,0m0,1.106c-.388.035-.81-.126-1.013.3a.688.688,0,0,0,.035.571c.233.364.621.232.978.224Zm1.138,3.332c.383-.011.8.133,1.007-.285a.686.686,0,0,0-.028-.571c-.229-.371-.621-.231-.979-.237Z" transform="translate(-131.244 -142.12)" fill="#12263f"/>
      </g>
    </g>
  </g>
</svg>
