<svg xmlns="http://www.w3.org/2000/svg" xmlns:xlink="http://www.w3.org/1999/xlink" width="41.471" height="40.906" viewBox="0 0 41.471 40.906">
  <defs>
    <clipPath id="clip-path">
      <rect id="Rect치ngulo_403827" data-name="Rect치ngulo 403827" width="30.108" height="30.092" fill="#12263f"/>
    </clipPath>
  </defs>
  <g id="Grupo_1103711" data-name="Grupo 1103711" transform="translate(-642.282 -1309.793)">
    <g id="Grupo_1103709" data-name="Grupo 1103709">
      <g id="Grupo_1102470" data-name="Grupo 1102470" transform="translate(642.282 1309.793)">
        <rect id="Rect치ngulo_402862" data-name="Rect치ngulo 402862" width="26.726" height="40.906" rx="13.363" transform="translate(0 0)" fill="#4b96e3"/>
        <circle id="Elipse_11523" data-name="Elipse 11523" cx="5.727" cy="5.727" r="5.727" transform="translate(0 0)" fill="#ffbe01"/>
      </g>
      <g id="Grupo_1102563" data-name="Grupo 1102563" transform="translate(653.645 1316.125)">
        <g id="Grupo_1102562" data-name="Grupo 1102562" clip-path="url(#clip-path)">
          <path id="Trazado_913170" data-name="Trazado 913170" d="M25.072,132.868l-1.52.776a1.519,1.519,0,0,1,.263,1.371,1.7,1.7,0,0,1-.9,1.052,1.506,1.506,0,0,1,.045,1.777,1.484,1.484,0,0,1-1.6.7,1.685,1.685,0,0,1-1.767,1.729c-.028.179-.04.363-.086.539a1.5,1.5,0,0,1-2.229.984c-.516-.28-1.018-.588-1.553-.9l-.322.447a1.529,1.529,0,0,1-2.71-.181l-.087-.16a1.533,1.533,0,0,1-1.469.09,1.669,1.669,0,0,1-.933-1.145,1.627,1.627,0,0,1-2.059-1.818,1.667,1.667,0,0,1-1.469-.917,1.519,1.519,0,0,1,.267-1.705L5.018,133.1a6.4,6.4,0,0,1-.905.631,1.2,1.2,0,0,1-1.129-.111c-.765-.439-1.533-.873-2.29-1.326a1.328,1.328,0,0,1-.495-1.87q2.013-3.515,4.052-7.015a1.336,1.336,0,0,1,1.9-.492c.713.4,1.418.811,2.124,1.222a1.421,1.421,0,0,1,.778,1.755l1.209.433c.564.2,1.131.392,1.689.609a.407.407,0,0,0,.491-.087,3.25,3.25,0,0,1,1.931-1.018,7.709,7.709,0,0,1,1.909.137,10.408,10.408,0,0,0,4.6-.044c.052-.013.1-.034.116-.038a3.224,3.224,0,0,1,.1-.911,1.628,1.628,0,0,1,.574-.716c.751-.482,1.534-.913,2.314-1.348a1.336,1.336,0,0,1,1.89.514Q27.9,126.91,29.9,130.41a1.344,1.344,0,0,1-.531,1.912c-.7.416-1.413.82-2.121,1.226a1.378,1.378,0,0,1-2.082-.536c-.022-.036-.048-.071-.1-.143M7.335,134.945c.261-.366.484-.7.728-1.016a1.383,1.383,0,0,1,1.857-.424,6.011,6.011,0,0,1,.9.8c1.169-.689,2.222-.1,2.478,1.448a1.592,1.592,0,0,1,1.459,2.382c1.222.268,1.641.947,1.364,2.238.5.29,1,.6,1.522.874a.87.87,0,0,0,.823-1.532c-.559-.338-1.129-.658-1.691-.992-.178-.106-.279-.259-.156-.463a.315.315,0,0,1,.479-.1l.255.146c.678.393,1.351.8,2.037,1.177a.871.871,0,0,0,.871-1.5c-.3-.194-.619-.365-.93-.546-.4-.236-.811-.469-1.212-.71-.17-.1-.27-.28-.132-.434a.733.733,0,0,1,.443-.129c.071-.007.151.077.226.121.847.494,1.692.99,2.541,1.48a.817.817,0,0,0,1.029-.046.852.852,0,0,0-.125-1.449c-.832-.5-1.673-.98-2.512-1.465-.206-.119-.384-.26-.242-.515s.352-.183.561-.06c.657.387,1.314.774,1.978,1.148a.873.873,0,1,0,.872-1.512q-3.206-1.864-6.418-3.717a1.4,1.4,0,0,0-1.2-.122,8.867,8.867,0,0,0-1.025.419.828.828,0,0,0-.33.325c-.257.454-.468.935-.739,1.38a2.156,2.156,0,0,1-1.713,1,1,1,0,0,1-1.176-.978,4.736,4.736,0,0,1,.008-.588c.036-.784.061-1.569.124-2.351a1.058,1.058,0,0,1,.251-.563c.339-.393.715-.755,1.094-1.147-.92-.33-1.837-.663-2.759-.978a.318.318,0,0,0-.267.133q-1.622,2.78-3.22,5.573a.31.31,0,0,0,.014.279c.625.8,1.261,1.586,1.931,2.423m17.421-2.651c-1.1-1.911-2.184-3.786-3.277-5.654a.347.347,0,0,0-.305-.112,10.578,10.578,0,0,1-5.269.015,3.072,3.072,0,0,0-3.018.77c-.605.581-1.213,1.158-1.816,1.741a.381.381,0,0,0-.128.213c-.051.935-.1,1.871-.129,2.807-.01.327.155.455.482.415a1.513,1.513,0,0,0,1.217-.723c.274-.481.507-.986.775-1.471a.869.869,0,0,1,.322-.344c.326-.172.671-.31,1.012-.451a2.371,2.371,0,0,1,2.244.176c1.938,1.149,3.895,2.265,5.848,3.387a.5.5,0,0,0,.377.068c.551-.256,1.089-.543,1.665-.836m-16.3-6.8a.785.785,0,0,0-.418-.731c-.718-.411-1.433-.829-2.152-1.24a.724.724,0,0,0-1.125.3q-1.972,3.407-3.939,6.818a.733.733,0,0,0,.3,1.152q1.044.61,2.095,1.208a.732.732,0,0,0,1.15-.3q1.972-3.407,3.936-6.82a2.471,2.471,0,0,0,.154-.384m13.136-.129a4.411,4.411,0,0,0,.2.5q1.972,3.426,3.952,6.847a.723.723,0,0,0,1.126.3c.682-.387,1.359-.783,2.038-1.174.579-.333.673-.664.346-1.234q-.659-1.147-1.322-2.292-1.291-2.235-2.583-4.469c-.263-.453-.627-.594-1.033-.369-.78.434-1.558.874-2.315,1.348-.186.117-.286.371-.413.546M9.867,139.35a1.849,1.849,0,0,0,.51-.378c.7-.956,1.381-1.931,2.056-2.908a.872.872,0,0,0-1.418-1.014c-.692.965-1.369,1.939-2.05,2.912a.766.766,0,0,0-.069.888,1.037,1.037,0,0,0,.972.5m2.059,1.242a1.822,1.822,0,0,0,.512-.371c.592-.793,1.157-1.608,1.716-2.425a.87.87,0,0,0-1.417-1.008c-.581.8-1.146,1.616-1.712,2.428a.766.766,0,0,0-.064.862,1.037,1.037,0,0,0,.966.515m-1.769-5.637a.94.94,0,0,0-.64-.925.766.766,0,0,0-.945.314q-.625.857-1.222,1.736a.817.817,0,0,0,.2,1.181.817.817,0,0,0,1.209-.159c.428-.577.837-1.168,1.241-1.762a1.618,1.618,0,0,0,.158-.384m4.116,6.484a2.53,2.53,0,0,0,.517-.378,7.371,7.371,0,0,0,.643-.9.872.872,0,0,0-1.427-1c-.223.293-.431.6-.638.9a.769.769,0,0,0-.055.86,1.052,1.052,0,0,0,.959.513" transform="translate(0 -111.989)" fill="#12263f"/>
          <path id="Trazado_913171" data-name="Trazado 913171" d="M113.7,1.511a15.069,15.069,0,0,1,1.709.523,4.961,4.961,0,0,1,2.857,5.531,5.011,5.011,0,0,1-4.781,4,5.087,5.087,0,0,1-2.6-.658,1.268,1.268,0,0,0-.579-.155c-1.962-.011-3.923-.006-5.885-.007-.8,0-1.1-.3-1.1-1.1,0-.011,0-.022,0-.033a4.265,4.265,0,0,1,.166-1.733,3.6,3.6,0,0,1-.157-1.7,3.428,3.428,0,0,1,.116-.7.434.434,0,0,0,.013-.178,4.35,4.35,0,0,1,0-2.371.251.251,0,0,0,0-.148,4.751,4.751,0,0,1-.111-2.033A.79.79,0,0,1,104.2,0q4.316-.008,8.631,0a.849.849,0,0,1,.871.872c.01.227,0,.455,0,.635m4,5.071a4.332,4.332,0,1,0-4.324,4.334,4.341,4.341,0,0,0,4.324-4.334m-4.656-5.09c0-.129-.007-.314,0-.5.011-.255-.108-.343-.356-.343q-4.183.007-8.366,0c-.253,0-.359.1-.355.346.006.359,0,.719,0,1.078,0,.412.036.449.446.449,1.645,0,3.29-.012,4.934.007a3.4,3.4,0,0,0,1.83-.407,10.018,10.018,0,0,1,1.863-.632m-3.349,8.6c-.333-.584-.648-1.149-.981-1.7a.375.375,0,0,0-.274-.15c-1.372-.009-2.743,0-4.115-.011-.281,0-.362.123-.356.376.009.348,0,.7,0,1.045,0,.414.029.442.449.443H109.7m-.113-6.913h-2.32q-1.453,0-2.906,0c-.2,0-.382.017-.384.28,0,.435,0,.871,0,1.306a.249.249,0,0,0,.282.28c1.393,0,2.786,0,4.179-.006a.3.3,0,0,0,.223-.126c.312-.565.61-1.138.925-1.733M108.426,5.7h-4.163c-.212,0-.286.122-.286.314,0,.37,0,.741,0,1.111,0,.41.043.454.445.454q1.879,0,3.758,0c.093,0,.185-.013.247-.018Z" transform="translate(-94.271 0)" fill="#12263f"/>
          <path id="Trazado_913172" data-name="Trazado 913172" d="M198.026,42c0,.221,0,.425,0,.629,0,.224-.072.4-.327.394s-.323-.184-.326-.4,0-.407,0-.645c-.388,0-.733,0-1.079,0-.226,0-.406-.071-.412-.313-.006-.262.185-.343.421-.342.675,0,1.351,0,2.026,0,.464,0,.745-.244.75-.634s-.272-.651-.73-.661-.893,0-1.34,0a1.3,1.3,0,1,1-.019-2.6c.117-.005.234,0,.382,0,0-.226,0-.41,0-.593,0-.241.053-.46.34-.456.268,0,.322.211.316.442-.005.184,0,.368,0,.609.4,0,.777,0,1.154,0,.2,0,.34.1.343.313,0,.233-.147.323-.359.334-.1,0-.2,0-.294,0-.643,0-1.285-.006-1.928.012a.6.6,0,0,0-.608.534.584.584,0,0,0,.322.654,1.188,1.188,0,0,0,.472.089c.5.018,1-.014,1.5.037a1.243,1.243,0,0,1,1.105,1.22,1.281,1.281,0,0,1-.968,1.309,5.334,5.334,0,0,1-.741.068" transform="translate(-178.57 -33.195)" fill="#12263f"/>
        </g>
      </g>
    </g>
  </g>
</svg>
