<svg xmlns="http://www.w3.org/2000/svg" xmlns:xlink="http://www.w3.org/1999/xlink" width="39.121" height="40.906" viewBox="0 0 39.121 40.906">
  <defs>
    <clipPath id="clip-path">
      <rect id="Rect치ngulo_403828" data-name="Rect치ngulo 403828" width="27.261" height="28.897" fill="#12263f"/>
    </clipPath>
  </defs>
  <g id="Grupo_1103712" data-name="Grupo 1103712" transform="translate(-903.231 -1309.793)">
    <g id="Grupo_1103710" data-name="Grupo 1103710">
      <g id="Grupo_1102473" data-name="Grupo 1102473" transform="translate(903.231 1309.793)">
        <rect id="Rect치ngulo_402862" data-name="Rect치ngulo 402862" width="26.726" height="40.906" rx="13.363" transform="translate(0 0)" fill="#4b96e3"/>
        <circle id="Elipse_11523" data-name="Elipse 11523" cx="5.727" cy="5.727" r="5.727" transform="translate(0 0)" fill="#ffbe01"/>
      </g>
      <g id="Grupo_1102565" data-name="Grupo 1102565" transform="translate(915.091 1317.8)">
        <g id="Grupo_1102564" data-name="Grupo 1102564" clip-path="url(#clip-path)">
          <path id="Trazado_913173" data-name="Trazado 913173" d="M155.5,14.14h-14.64v1.148l-1.052-.331V4.756h1.017V0c.117.047.206.076.29.117.875.419,1.753.833,2.622,1.264a.685.685,0,0,0,.695.008c.706-.366,1.434-.691,2.146-1.046a.487.487,0,0,1,.486,0c.743.367,1.5.715,2.238,1.083a.484.484,0,0,0,.484,0c.752-.372,1.509-.736,2.274-1.082a.6.6,0,0,1,.444,0c.94.434,1.87.892,2.807,1.333a.328.328,0,0,1,.216.35c-.01.786,0,1.573,0,2.359V4.74h1.042v4.2h2.08V26.763h-2.066v2.086H141.992c.412-.338.8-.672,1.215-.984a.628.628,0,0,1,.345-.046q5.766,0,11.532,0h.412Zm.011-8.316H140.86v7.234h14.647ZM141.913,1.669V4.72h12.558c0-.713.008-1.4-.009-2.088a.4.4,0,0,0-.2-.274c-.583-.3-1.171-.583-1.769-.848a.6.6,0,0,0-.442.006c-.744.338-1.48.695-2.212,1.057a.573.573,0,0,1-.575.006c-.719-.365-1.454-.7-2.175-1.059a.542.542,0,0,0-.544,0c-.722.36-1.455.7-2.176,1.057a.54.54,0,0,1-.544.006c-.62-.313-1.251-.6-1.908-.917M156.591,25.7h1V10h-1Z" transform="translate(-131.38)" fill="#12263f"/>
          <path id="Trazado_913174" data-name="Trazado 913174" d="M6.662,275.083A6.552,6.552,0,0,1,0,268.2a6.682,6.682,0,0,1,6.611-6.229,6.608,6.608,0,0,1,6.512,6.921,6.493,6.493,0,0,1-6.466,6.189m5.387-6.548a5.425,5.425,0,0,0-5.4-5.51,5.521,5.521,0,1,0,.054,11.04,5.414,5.414,0,0,0,5.347-5.53" transform="translate(0 -246.187)" fill="#12263f"/>
          <path id="Trazado_913175" data-name="Trazado 913175" d="M253.094,253.1h3.1v3.112h-3.1Zm1.036,2.055h1.019v-1H254.13Z" transform="translate(-237.844 -237.853)" fill="#12263f"/>
          <path id="Trazado_913176" data-name="Trazado 913176" d="M325.7,256.3h-3.1V253.2h3.1Zm-2.039-1.048h1v-1.02h-1Z" transform="translate(-303.163 -237.939)" fill="#12263f"/>
          <path id="Trazado_913177" data-name="Trazado 913177" d="M256.2,325.832H253.1V322.72H256.2Zm-1.05-2.055h-1.01v1h1.01Z" transform="translate(-237.845 -303.275)" fill="#12263f"/>
          <path id="Trazado_913178" data-name="Trazado 913178" d="M325.7,325.915h-3.1V322.81h3.1Zm-1.046-2.059h-1v1.02h1Z" transform="translate(-303.164 -303.359)" fill="#12263f"/>
          <path id="Trazado_913179" data-name="Trazado 913179" d="M253.091,392.33h3.1v3.1h-3.1Zm2.06,1.052h-1.009v1.009h1.009Z" transform="translate(-237.841 -368.69)" fill="#12263f"/>
          <path id="Trazado_913180" data-name="Trazado 913180" d="M322.605,392.429h3.1v3.1h-3.1Zm1.049,2.052h1v-1.015h-1Z" transform="translate(-303.167 -368.783)" fill="#12263f"/>
          <path id="Trazado_913181" data-name="Trazado 913181" d="M184.13,255.054c-.356-.3-.66-.54-.95-.8a.392.392,0,0,1-.1-.251c-.014-.249,0-.5,0-.773H186.2v3.12c-.336,0-.661.005-.984,0a.274.274,0,0,1-.185-.1c-.221-.294-.431-.6-.674-.937h.8v-1.032h-1.02Z" transform="translate(-172.038 -237.973)" fill="#12263f"/>
          <path id="Trazado_913182" data-name="Trazado 913182" d="M213.592,392.137v3.095h-1.365a7.664,7.664,0,0,0,1.282-3.118l.083.023" transform="translate(-199.439 -368.487)" fill="#12263f"/>
          <path id="Trazado_913183" data-name="Trazado 913183" d="M227.128,324.724l-.5-1.949h.5Z" transform="translate(-212.969 -303.326)" fill="#12263f"/>
          <path id="Trazado_913184" data-name="Trazado 913184" d="M180.111,118.748q-2.391,0-4.782,0a1.427,1.427,0,0,1-1.567-1.562q-.007-1.032,0-2.064a1.435,1.435,0,0,1,1.55-1.553q4.781,0,9.563,0a1.44,1.44,0,0,1,1.567,1.57c0,.71,0,1.419,0,2.129a1.409,1.409,0,0,1-1.484,1.479c-1.616.006-3.231,0-4.847,0m0-1.049q2.375,0,4.75,0c.434,0,.535-.1.536-.543q0-1,0-2c0-.423-.117-.54-.547-.54q-4.75,0-9.5,0c-.423,0-.535.117-.538.552q-.005,1,0,2c0,.439.1.532.548.532q2.375,0,4.75,0" transform="translate(-163.289 -106.724)" fill="#12263f"/>
          <path id="Trazado_913185" data-name="Trazado 913185" d="M61.077,317.19l.637.664-5.84,5.842-.63-.647,5.833-5.859" transform="translate(-51.915 -298.078)" fill="#12263f"/>
          <path id="Trazado_913186" data-name="Trazado 913186" d="M120.557,380.945a1.47,1.47,0,0,1,1.512,1.444,1.521,1.521,0,0,1-1.475,1.566,1.487,1.487,0,0,1-1.5-1.468,1.508,1.508,0,0,1,1.459-1.542m.008,1.952a.427.427,0,0,0,.453-.418.436.436,0,0,0-.395-.476.441.441,0,0,0-.476.432.448.448,0,0,0,.417.462" transform="translate(-111.922 -357.992)" fill="#12263f"/>
          <path id="Trazado_913187" data-name="Trazado 913187" d="M52.673,312.936a1.44,1.44,0,0,1-1.472,1.506,1.454,1.454,0,0,1-1.47-1.514,1.471,1.471,0,1,1,2.942.008m-1.477.454a.426.426,0,0,0,.442-.43.435.435,0,1,0-.869-.056.449.449,0,0,0,.427.485" transform="translate(-46.735 -292.679)" fill="#12263f"/>
        </g>
      </g>
    </g>
  </g>
</svg>
