<svg id="Grupo_1102627" data-name="Grupo 1102627" xmlns="http://www.w3.org/2000/svg" xmlns:xlink="http://www.w3.org/1999/xlink" width="241.949" height="215.77" viewBox="0 0 241.949 215.77">
  <defs>
    <clipPath id="clip-path">
      <rect id="Rectángulo_403922" data-name="Rectángulo 403922" width="241.949" height="215.77" fill="none"/>
    </clipPath>
    <clipPath id="clip-path-3">
      <path id="Trazado_913372" data-name="Trazado 913372" d="M56.511,0A63.836,63.836,0,0,0,25.275,8.276C5.018,19.406,20.99,67.562,3.64,116.812A64.951,64.951,0,0,0,0,138.367v.258c.051,28.5,17.484,54.408,29.968,61.692,15.635,9.12,68.739,7.167,68.739,7.167,2.85-.026,8.092.536,14.887,1.1,34.173,2.827,107.627,5.656,113.663-66.484,7.235-86.482-30.963-93.647-53.62-98.446C132.459,34.933,95.831.075,56.754,0Z" fill="none"/>
    </clipPath>
    <clipPath id="clip-path-5">
      <rect id="Rectángulo_403916" data-name="Rectángulo 403916" width="41.338" height="61.826" fill="none"/>
    </clipPath>
    <clipPath id="clip-path-6">
      <rect id="Rectángulo_403917" data-name="Rectángulo 403917" width="16.847" height="47.121" fill="none"/>
    </clipPath>
  </defs>
  <g id="Grupo_1102626" data-name="Grupo 1102626" clip-path="url(#clip-path)">
    <g id="Grupo_1102615" data-name="Grupo 1102615">
      <g id="Grupo_1102614" data-name="Grupo 1102614" clip-path="url(#clip-path)">
        <path id="Trazado_913369" data-name="Trazado 913369" d="M98.707,207.483c17.184-.163,121.315,21.1,128.55-65.385S196.294,48.45,173.638,43.653C121.625,32.638,76.879-20.079,25.276,8.276,5.018,19.406,20.99,67.562,3.64,116.812c-12.7,36.054,10.694,74.385,26.329,83.505s68.739,7.166,68.739,7.166" transform="translate(0 0)" fill="#eef0f2"/>
        <path id="Trazado_913370" data-name="Trazado 913370" d="M255.212,180.839h1.867c9.767-9.229,17.509-21.488,21.935-37.7V89.5h-23.8Z" transform="translate(-58.395 -20.479)" fill="#f0f3fd"/>
        <rect id="Rectángulo_403856" data-name="Rectángulo 403856" width="55.355" height="144.291" transform="translate(151.027 26.743)" fill="#cbcfd5"/>
        <rect id="Rectángulo_403857" data-name="Rectángulo 403857" width="6.274" height="144.291" transform="translate(154.164 30.802)" fill="#d4d8dc"/>
        <rect id="Rectángulo_403858" data-name="Rectángulo 403858" width="6.274" height="144.291" transform="translate(164.636 30.802)" fill="#d4d8dc"/>
        <rect id="Rectángulo_403859" data-name="Rectángulo 403859" width="6.274" height="144.291" transform="translate(175.107 30.802)" fill="#d4d8dc"/>
        <rect id="Rectángulo_403860" data-name="Rectángulo 403860" width="6.274" height="144.291" transform="translate(185.578 30.802)" fill="#d4d8dc"/>
        <rect id="Rectángulo_403861" data-name="Rectángulo 403861" width="42.448" height="144.291" transform="translate(27.172 17.747)" fill="#d4d8dc"/>
        <rect id="Rectángulo_403862" data-name="Rectángulo 403862" width="4.811" height="144.291" transform="translate(29.578 21.806)" fill="#f0f3fd"/>
        <rect id="Rectángulo_403863" data-name="Rectángulo 403863" width="4.811" height="144.291" transform="translate(37.607 21.806)" fill="#f0f3fd"/>
        <rect id="Rectángulo_403864" data-name="Rectángulo 403864" width="4.811" height="144.291" transform="translate(45.637 21.806)" fill="#f0f3fd"/>
        <rect id="Rectángulo_403865" data-name="Rectángulo 403865" width="4.811" height="144.291" transform="translate(53.666 21.806)" fill="#f0f3fd"/>
      </g>
    </g>
    <g id="Grupo_1102617" data-name="Grupo 1102617">
      <g id="Grupo_1102616" data-name="Grupo 1102616" clip-path="url(#clip-path-3)">
        <path id="Trazado_913371" data-name="Trazado 913371" d="M191.835,223.106h62.433a75.515,75.515,0,0,0,14.141-19.675h0V157.6H191.835Z" transform="translate(-43.893 -36.061)" fill="#d4d8dc"/>
        <rect id="Rectángulo_403867" data-name="Rectángulo 403867" width="5.79" height="9.688" transform="translate(178.316 127.804)" fill="#cbcfd5"/>
        <rect id="Rectángulo_403868" data-name="Rectángulo 403868" width="5.79" height="9.688" transform="translate(178.316 144.032)" fill="#cbcfd5"/>
        <rect id="Rectángulo_403869" data-name="Rectángulo 403869" width="5.79" height="9.688" transform="translate(178.316 159.291)" fill="#cbcfd5"/>
        <rect id="Rectángulo_403870" data-name="Rectángulo 403870" width="5.79" height="9.688" transform="translate(170.782 127.804)" fill="#cbcfd5"/>
        <rect id="Rectángulo_403871" data-name="Rectángulo 403871" width="5.79" height="9.688" transform="translate(170.782 144.032)" fill="#cbcfd5"/>
        <rect id="Rectángulo_403872" data-name="Rectángulo 403872" width="5.79" height="9.688" transform="translate(170.782 159.291)" fill="#cbcfd5"/>
        <rect id="Rectángulo_403873" data-name="Rectángulo 403873" width="5.79" height="9.688" transform="translate(163.248 127.804)" fill="#cbcfd5"/>
        <rect id="Rectángulo_403874" data-name="Rectángulo 403874" width="5.79" height="9.688" transform="translate(163.248 144.032)" fill="#cbcfd5"/>
        <rect id="Rectángulo_403875" data-name="Rectángulo 403875" width="5.79" height="9.688" transform="translate(163.248 159.291)" fill="#cbcfd5"/>
        <rect id="Rectángulo_403876" data-name="Rectángulo 403876" width="5.79" height="9.688" transform="translate(155.713 127.804)" fill="#cbcfd5"/>
        <rect id="Rectángulo_403877" data-name="Rectángulo 403877" width="5.79" height="9.688" transform="translate(155.713 144.032)" fill="#cbcfd5"/>
        <rect id="Rectángulo_403878" data-name="Rectángulo 403878" width="5.79" height="9.688" transform="translate(155.713 159.291)" fill="#cbcfd5"/>
        <rect id="Rectángulo_403879" data-name="Rectángulo 403879" width="5.79" height="9.688" transform="translate(178.316 174.774)" fill="#cbcfd5"/>
        <rect id="Rectángulo_403880" data-name="Rectángulo 403880" width="5.79" height="9.688" transform="translate(170.782 174.774)" fill="#cbcfd5"/>
        <rect id="Rectángulo_403881" data-name="Rectángulo 403881" width="5.79" height="9.688" transform="translate(163.248 174.774)" fill="#cbcfd5"/>
        <rect id="Rectángulo_403882" data-name="Rectángulo 403882" width="5.79" height="9.688" transform="translate(155.713 174.774)" fill="#cbcfd5"/>
        <rect id="Rectángulo_403883" data-name="Rectángulo 403883" width="5.79" height="9.688" transform="translate(208.761 127.804)" fill="#cbcfd5"/>
        <rect id="Rectángulo_403884" data-name="Rectángulo 403884" width="5.79" height="9.688" transform="translate(208.761 144.032)" fill="#cbcfd5"/>
        <rect id="Rectángulo_403885" data-name="Rectángulo 403885" width="5.79" height="9.688" transform="translate(208.761 159.291)" fill="#cbcfd5"/>
        <rect id="Rectángulo_403886" data-name="Rectángulo 403886" width="5.79" height="9.688" transform="translate(201.227 127.804)" fill="#cbcfd5"/>
        <rect id="Rectángulo_403887" data-name="Rectángulo 403887" width="5.79" height="9.688" transform="translate(201.227 144.032)" fill="#cbcfd5"/>
        <rect id="Rectángulo_403888" data-name="Rectángulo 403888" width="5.79" height="9.688" transform="translate(201.227 159.291)" fill="#cbcfd5"/>
        <rect id="Rectángulo_403889" data-name="Rectángulo 403889" width="5.79" height="9.688" transform="translate(193.693 127.804)" fill="#cbcfd5"/>
        <rect id="Rectángulo_403890" data-name="Rectángulo 403890" width="5.79" height="9.688" transform="translate(193.693 144.032)" fill="#cbcfd5"/>
        <rect id="Rectángulo_403891" data-name="Rectángulo 403891" width="5.79" height="9.688" transform="translate(193.693 159.291)" fill="#cbcfd5"/>
        <rect id="Rectángulo_403892" data-name="Rectángulo 403892" width="5.79" height="9.688" transform="translate(186.158 127.804)" fill="#cbcfd5"/>
        <rect id="Rectángulo_403893" data-name="Rectángulo 403893" width="5.79" height="9.688" transform="translate(186.158 144.032)" fill="#cbcfd5"/>
        <rect id="Rectángulo_403894" data-name="Rectángulo 403894" width="5.79" height="9.688" transform="translate(186.158 159.291)" fill="#cbcfd5"/>
        <rect id="Rectángulo_403895" data-name="Rectángulo 403895" width="5.79" height="9.688" transform="translate(208.761 174.774)" fill="#cbcfd5"/>
        <rect id="Rectángulo_403896" data-name="Rectángulo 403896" width="5.79" height="9.688" transform="translate(201.227 174.774)" fill="#cbcfd5"/>
        <rect id="Rectángulo_403897" data-name="Rectángulo 403897" width="5.79" height="9.688" transform="translate(193.693 174.774)" fill="#cbcfd5"/>
        <rect id="Rectángulo_403898" data-name="Rectángulo 403898" width="5.79" height="9.688" transform="translate(186.158 174.774)" fill="#cbcfd5"/>
      </g>
    </g>
    <g id="Grupo_1102625" data-name="Grupo 1102625">
      <g id="Grupo_1102624" data-name="Grupo 1102624" clip-path="url(#clip-path)">
        <rect id="Rectángulo_403899" data-name="Rectángulo 403899" width="46.313" height="107.573" transform="translate(6.166 65.537)" fill="#f0f3fd"/>
        <rect id="Rectángulo_403900" data-name="Rectángulo 403900" width="5.658" height="10.912" transform="translate(9.857 70.15)" fill="#cbcfd5"/>
        <rect id="Rectángulo_403901" data-name="Rectángulo 403901" width="5.657" height="10.912" transform="translate(19.334 70.15)" fill="#cbcfd5"/>
        <rect id="Rectángulo_403902" data-name="Rectángulo 403902" width="5.658" height="10.912" transform="translate(28.245 70.15)" fill="#cbcfd5"/>
        <rect id="Rectángulo_403903" data-name="Rectángulo 403903" width="5.658" height="10.912" transform="translate(9.857 84.348)" fill="#cbcfd5"/>
        <rect id="Rectángulo_403904" data-name="Rectángulo 403904" width="5.657" height="10.912" transform="translate(19.334 84.348)" fill="#cbcfd5"/>
        <rect id="Rectángulo_403905" data-name="Rectángulo 403905" width="5.658" height="10.912" transform="translate(28.245 84.348)" fill="#cbcfd5"/>
        <rect id="Rectángulo_403906" data-name="Rectángulo 403906" width="5.658" height="10.912" transform="translate(9.857 98.548)" fill="#cbcfd5"/>
        <rect id="Rectángulo_403907" data-name="Rectángulo 403907" width="5.657" height="10.912" transform="translate(19.334 98.548)" fill="#cbcfd5"/>
        <rect id="Rectángulo_403908" data-name="Rectángulo 403908" width="5.658" height="10.912" transform="translate(28.245 98.548)" fill="#cbcfd5"/>
        <rect id="Rectángulo_403909" data-name="Rectángulo 403909" width="5.658" height="10.912" transform="translate(9.857 112.747)" fill="#cbcfd5"/>
        <rect id="Rectángulo_403910" data-name="Rectángulo 403910" width="5.657" height="10.912" transform="translate(19.334 112.747)" fill="#cbcfd5"/>
        <rect id="Rectángulo_403911" data-name="Rectángulo 403911" width="5.658" height="10.912" transform="translate(28.245 112.747)" fill="#cbcfd5"/>
        <rect id="Rectángulo_403912" data-name="Rectángulo 403912" width="5.658" height="10.912" transform="translate(37.286 70.15)" fill="#cbcfd5"/>
        <rect id="Rectángulo_403913" data-name="Rectángulo 403913" width="5.658" height="10.912" transform="translate(37.286 84.348)" fill="#cbcfd5"/>
        <rect id="Rectángulo_403914" data-name="Rectángulo 403914" width="5.658" height="10.912" transform="translate(37.286 98.548)" fill="#cbcfd5"/>
        <rect id="Rectángulo_403915" data-name="Rectángulo 403915" width="5.658" height="10.912" transform="translate(37.286 112.747)" fill="#cbcfd5"/>
        <path id="Trazado_913373" data-name="Trazado 913373" d="M201.238,124.878a81.093,81.093,0,1,1-81.093-81.092,81.093,81.093,0,0,1,81.093,81.092" transform="translate(-8.935 -10.019)" fill="#cbcfd5"/>
        <path id="Trazado_913374" data-name="Trazado 913374" d="M192.014,128.769a67.978,67.978,0,1,1-67.978-67.978,67.979,67.979,0,0,1,67.978,67.978" transform="translate(-12.827 -13.909)" fill="#eef0f2"/>
        <path id="Trazado_913375" data-name="Trazado 913375" d="M176.874,88.372c-.531-.307-.8-.841-.594-1.194l5.219-9.04c.2-.352.8-.389,1.331-.083s.8.841.593,1.193L178.2,88.289c-.2.352-.8.389-1.331.083" transform="translate(-40.319 -17.812)" fill="#d4d8dc"/>
        <path id="Trazado_913376" data-name="Trazado 913376" d="M201.327,113.659c-.307-.531-.27-1.127.083-1.331l9.041-5.219c.352-.2.887.062,1.193.594s.27,1.127-.083,1.33l-9.04,5.219c-.352.2-.887-.062-1.194-.594" transform="translate(-46.018 -24.492)" fill="#d4d8dc"/>
        <path id="Trazado_913377" data-name="Trazado 913377" d="M210.385,148.348c0-.614.33-1.111.737-1.111h10.439c.406,0,.736.5.736,1.111s-.33,1.111-.736,1.111H211.122c-.407,0-.737-.5-.737-1.111" transform="translate(-48.138 -33.689)" fill="#d4d8dc"/>
        <path id="Trazado_913378" data-name="Trazado 913378" d="M201.587,181.607c.307-.531.841-.8,1.194-.594l9.04,5.219c.352.2.389.8.082,1.331s-.841.8-1.194.593l-9.04-5.219c-.352-.2-.389-.8-.083-1.331" transform="translate(-46.077 -41.401)" fill="#d4d8dc"/>
        <path id="Trazado_913379" data-name="Trazado 913379" d="M177.324,206.06c.531-.307,1.127-.27,1.331.083l5.219,9.041c.2.352-.062.887-.593,1.194s-1.127.269-1.331-.083l-5.219-9.04c-.2-.352.062-.887.594-1.194" transform="translate(-40.421 -47.101)" fill="#d4d8dc"/>
        <path id="Trazado_913380" data-name="Trazado 913380" d="M144.134,215.119c.614,0,1.111.33,1.111.736v10.439c0,.407-.5.737-1.111.737s-1.111-.33-1.111-.737V215.855c0-.406.5-.736,1.111-.736" transform="translate(-32.725 -49.221)" fill="#d4d8dc"/>
        <path id="Trazado_913381" data-name="Trazado 913381" d="M109.375,206.32c.531.307.8.841.594,1.194l-5.219,9.04c-.2.352-.8.389-1.33.083s-.8-.841-.594-1.193l5.219-9.041c.2-.352.8-.389,1.331-.083" transform="translate(-23.512 -47.16)" fill="#d4d8dc"/>
        <path id="Trazado_913382" data-name="Trazado 913382" d="M83.9,182.058c.307.531.27,1.127-.083,1.33l-9.041,5.219c-.352.2-.887-.062-1.193-.594s-.27-1.127.083-1.33l9.04-5.219c.352-.2.887.062,1.194.594" transform="translate(-16.788 -41.505)" fill="#d4d8dc"/>
        <path id="Trazado_913383" data-name="Trazado 913383" d="M74.489,148.868c0,.614-.33,1.111-.736,1.111H63.312c-.406,0-.736-.5-.736-1.111s.33-1.111.736-1.111h10.44c.406,0,.736.5.736,1.111" transform="translate(-14.318 -33.808)" fill="#d4d8dc"/>
        <path id="Trazado_913384" data-name="Trazado 913384" d="M83.638,114.109c-.307.531-.841.8-1.194.594l-9.04-5.219c-.352-.2-.389-.8-.083-1.33s.841-.8,1.193-.594l9.041,5.219c.352.2.389.8.083,1.331" transform="translate(-16.729 -24.595)" fill="#d4d8dc"/>
        <path id="Trazado_913385" data-name="Trazado 913385" d="M108.925,88.631c-.531.307-1.127.27-1.33-.083l-5.219-9.041c-.2-.352.062-.887.594-1.194s1.127-.269,1.33.083l5.219,9.04c.2.352-.062.887-.594,1.194" transform="translate(-23.409 -17.872)" fill="#d4d8dc"/>
        <path id="Trazado_913386" data-name="Trazado 913386" d="M143.615,79.223c-.615,0-1.112-.33-1.112-.736V68.046c0-.406.5-.736,1.112-.736s1.111.33,1.111.736v10.44c0,.406-.5.736-1.111.736" transform="translate(-32.606 -15.401)" fill="#d4d8dc"/>
        <path id="Trazado_913387" data-name="Trazado 913387" d="M136.253,138.925l-.719.561a1.4,1.4,0,0,1-1.968-.243L109.808,108.8a1.4,1.4,0,0,1,.243-1.968l.718-.561a1.4,1.4,0,0,1,1.969.243L136.5,136.957a1.4,1.4,0,0,1-.243,1.968" transform="translate(-25.057 -24.248)" fill="#d4d8dc"/>
        <path id="Trazado_913388" data-name="Trazado 913388" d="M142.87,138.078l-.1-.119a1.362,1.362,0,0,1,.141-1.92L184.8,99.893a1.361,1.361,0,0,1,1.92.141l.1.119a1.361,1.361,0,0,1-.141,1.919l-41.887,36.147a1.362,1.362,0,0,1-1.92-.141" transform="translate(-32.591 -22.781)" fill="#d4d8dc"/>
        <path id="Trazado_913389" data-name="Trazado 913389" d="M147.048,147.738a4.044,4.044,0,1,1-4.043-4.043,4.043,4.043,0,0,1,4.043,4.043" transform="translate(-31.795 -32.879)" fill="#d4d8dc"/>
        <path id="Trazado_913390" data-name="Trazado 913390" d="M64.262,246.328s-47.755-17.044-42.083-29.861S64.565,238.9,64.565,238.9s-44.022-43.949-27.209-59.417,30.5,53.791,30.5,53.791S73.228,185.7,88.85,188.5,70.5,250.2,70.5,250.2Z" transform="translate(-4.968 -40.551)" fill="#d4d8dc"/>
        <g id="Grupo_1102620" data-name="Grupo 1102620" transform="translate(23.518 144.154)" opacity="0.5">
          <g id="Grupo_1102619" data-name="Grupo 1102619">
            <g id="Grupo_1102618" data-name="Grupo 1102618" clip-path="url(#clip-path-5)">
              <path id="Trazado_913391" data-name="Trazado 913391" d="M43.969,186.924c2.064,5.091,4.184,10.156,6.316,15.216s4.292,10.109,6.456,15.155c2.179,5.039,4.35,10.083,6.56,15.109l3.305,7.544,3.332,7.531.878-.773c-3.334-2-6.687-3.97-10.032-5.954l-2.51-1.485-2.516-1.475-5.032-2.95-5.042-2.933-2.523-1.464-2.528-1.455q-5.053-2.914-10.138-5.776,4.915,3.145,9.864,6.233l2.472,1.547,2.479,1.538,4.958,3.072,4.97,3.055,2.484,1.527,2.491,1.517c3.323,2.02,6.637,4.054,9.971,6.056l1.649.99-.771-1.764-3.3-7.546-3.328-7.533c-2.212-5.025-4.463-10.033-6.7-15.046q-3.387-7.506-6.81-15c-2.29-4.991-4.591-9.977-6.949-14.938" transform="translate(-30.496 -186.924)" fill="#fff"/>
            </g>
          </g>
        </g>
        <g id="Grupo_1102623" data-name="Grupo 1102623" transform="translate(62.7 155.828)" opacity="0.5">
          <g id="Grupo_1102622" data-name="Grupo 1102622">
            <g id="Grupo_1102621" data-name="Grupo 1102621" clip-path="url(#clip-path-6)">
              <path id="Trazado_913392" data-name="Trazado 913392" d="M98.15,202.061c-1.651,3.838-3.184,7.719-4.676,11.614s-2.941,7.806-4.344,11.733-2.764,7.869-4.081,11.827-2.59,7.932-3.746,11.947c1.653-3.838,3.187-7.718,4.678-11.614s2.942-7.805,4.343-11.734,2.762-7.869,4.079-11.828,2.591-7.931,3.748-11.946" transform="translate(-81.303 -202.061)" fill="#fff"/>
            </g>
          </g>
        </g>
        <path id="Trazado_913393" data-name="Trazado 913393" d="M280.514,56.516c-1.445-.036-3.432,2.1-3.432,2.1-7,3.2-15.688,2.874-19.611.172l-1.2,10.519c6.374,1.333,11.877-.536,19.958-7.236,0,0,.918-.01,1.723-.033.376-.011,3.069-1.569,2.78-2.283-.3-.753-1.614.972-1.614.972s-.292-.352.4-1.336,2.44-2.842.995-2.878" transform="translate(-58.637 -12.931)" fill="#fa6d61"/>
        <path id="Trazado_913394" data-name="Trazado 913394" d="M284.109,57.721s1.507-2.637,2.01-2.513.126,1.508.126,1.508Z" transform="translate(-65.006 -12.631)" fill="#fa6d61"/>
        <path id="Trazado_913395" data-name="Trazado 913395" d="M284.087,61.725s-2.834-.167-3.211.462-1.381,3.642-.879,4.019,10.426.376,10.929-.251-1-3.768-1.633-4.019a18.043,18.043,0,0,0-3.042-.389Z" transform="translate(-64.034 -14.082)" fill="#12263f"/>
        <path id="Trazado_913396" data-name="Trazado 913396" d="M286.847,58.586V56.993a.878.878,0,0,0,0-1.587v-1.03a1.129,1.129,0,0,0,0-2.129V51.3l-1,.628s.009.156.024.428a1.128,1.128,0,0,0,.1,1.963c.016.354.032.733.048,1.131a.877.877,0,0,0,.055,1.529c.027.853.23,1.338-.1,1.732-.629.753-1.633.879-1.382,1.633s3.169.523,3.517,0c.5-.753-1.256-1.082-1.256-1.758" transform="translate(-65.107 -11.738)" fill="#fa7367"/>
        <path id="Trazado_913397" data-name="Trazado 913397" d="M270.444,36.126c1.022-1.687,3.911-.221,5.23.573l-.457-1.955S268.56,31.6,268.309,37s9.672,9.547,9.672,9.547l-.463-1.978c-2.288-1.148-9.179-4.974-7.073-8.448" transform="translate(-61.39 -7.742)" fill="#fa7367"/>
        <path id="Trazado_913398" data-name="Trazado 913398" d="M299.458,36.126c-1.022-1.687-3.911-.221-5.23.573l.457-1.955s6.657-3.14,6.908,2.261-9.672,9.547-9.672,9.547l.464-1.978c2.288-1.148,9.179-4.974,7.073-8.448" transform="translate(-66.794 -7.742)" fill="#fa7367"/>
        <path id="Trazado_913399" data-name="Trazado 913399" d="M276.6,30.29s-1.131,17.962,7.663,18.213S291.3,30.29,291.3,30.29Z" transform="translate(-63.278 -6.931)" fill="#5da1e6"/>
        <path id="Trazado_913400" data-name="Trazado 913400" d="M276.659,36.022h14.764c.029-.979.023-1.879,0-2.637H276.559c.007.759.034,1.658.1,2.637" transform="translate(-63.279 -7.639)" fill="#fa7367"/>
        <path id="Trazado_913401" data-name="Trazado 913401" d="M260.706,21.345a10.424,10.424,0,0,1,1.491.608q.716.353,1.4.767t1.322.886a10.068,10.068,0,0,1,1.225,1.045,10.3,10.3,0,0,1-1.491-.608q-.717-.352-1.4-.766c-.452-.276-.893-.57-1.321-.888a10.266,10.266,0,0,1-1.225-1.044" transform="translate(-59.652 -4.884)" fill="#fa7367"/>
        <path id="Trazado_913402" data-name="Trazado 913402" d="M257.322,41.219a10.329,10.329,0,0,1,1.457-.686c.5-.194,1-.362,1.508-.509s1.024-.274,1.546-.375a10.21,10.21,0,0,1,1.6-.2,10.291,10.291,0,0,1-1.456.688q-.744.289-1.508.507t-1.547.374a10.388,10.388,0,0,1-1.6.2" transform="translate(-58.877 -9.027)" fill="#fa7367"/>
        <path id="Trazado_913403" data-name="Trazado 913403" d="M275.167,7.851c.278.806.489,1.623.684,2.444s.358,1.646.5,2.476.267,1.662.364,2.5.17,1.679.18,2.532a25.308,25.308,0,0,1-.686-2.444q-.286-1.232-.5-2.476t-.363-2.5c-.093-.838-.17-1.679-.181-2.531" transform="translate(-62.96 -1.796)" fill="#fa7367"/>
        <path id="Trazado_913404" data-name="Trazado 913404" d="M298.6,4.065c-.345,1.127-.749,2.227-1.174,3.319s-.872,2.173-1.34,3.247-.956,2.137-1.471,3.189-1.047,2.1-1.64,3.116c.345-1.127.748-2.228,1.173-3.319s.872-2.174,1.34-3.247.957-2.136,1.473-3.188,1.046-2.1,1.638-3.116" transform="translate(-67.036 -0.93)" fill="#fa7367"/>
        <path id="Trazado_913405" data-name="Trazado 913405" d="M303.216,29.886a17.6,17.6,0,0,1,1.971-.709q1-.3,2.013-.528t2.043-.392a17.285,17.285,0,0,1,2.085-.21,17.25,17.25,0,0,1-1.971.709q-1,.3-2.012.527c-.676.153-1.357.285-2.044.391a17.443,17.443,0,0,1-2.085.211" transform="translate(-69.378 -6.417)" fill="#fa7367"/>
        <path id="Trazado_913406" data-name="Trazado 913406" d="M14.348,271.059s-2.387,1.093-2.644,2.506,1.93,2.828,3.6,3.6,7.326.772,7.455,0-5.013-2.57-5.527-3.6-.936-1.026-.936-1.026Z" transform="translate(-2.673 -62.02)" fill="#6b8be8"/>
        <path id="Trazado_913407" data-name="Trazado 913407" d="M61.408,269.738a8.062,8.062,0,0,0-1.181,4.055c.138,1.934,1.658,2.763,3.868,2.763s6.907.414,7.736,0-2.072-2.487-4.42-3.315-2.072-1.52-2.072-1.52Z" transform="translate(-13.778 -61.718)" fill="#6b8be8"/>
        <path id="Trazado_913408" data-name="Trazado 913408" d="M24.916,160.473s-3.322,9.667-4.017,24.458-10.282,59.521-6.106,61.783,13.185-2.165,19.142-21.578c4.7-15.313,4.872-23.143,4.872-23.143s4,28.538,6.264,35.673,7.482,9.4,9.4,9.57,3.306-14.965,2.263-26.8-8.242-53.948-8.242-53.948Z" transform="translate(-3.145 -36.717)" fill="#2a3c52"/>
        <path id="Trazado_913409" data-name="Trazado 913409" d="M57.381,236.925a89.308,89.308,0,0,1-1.179,13.84,15.77,15.77,0,0,1-3.693-6.358c-2.263-7.134-6.265-35.672-6.265-35.672l1.915-18.793s9.57,30.8,9.223,46.983" transform="translate(-10.581 -43.46)" fill="#12263f"/>
        <path id="Trazado_913410" data-name="Trazado 913410" d="M46.161,214.311s-.023,1.033-.278,3.082Z" transform="translate(-10.498 -49.036)" fill="#12263f"/>
        <path id="Trazado_913411" data-name="Trazado 913411" d="M47.137,120.421l-.377-1.443-.2-.146.13-.131-.106-.487-.937,3.877Z" transform="translate(-10.444 -27.048)" fill="#9fc0f1"/>
        <path id="Trazado_913412" data-name="Trazado 913412" d="M45.413,116.812l-.745,2.454,3.6,2.016-5.234,2.865-4.8-2.081,1.147-2.99,1.459-.5-.264-4.462,3.539.636Z" transform="translate(-8.747 -26.11)" fill="#fa6d61"/>
        <path id="Trazado_913413" data-name="Trazado 913413" d="M38.983,122.812l4.269,2.329,1.319-.722,1.763-3.295-1.493-.838.311-1.023c-.576-.308-2.122-1.021-3.308-.505a2.7,2.7,0,0,0-.848.648l.012.191-.254.087a14.375,14.375,0,0,0-1.769,3.126" transform="translate(-8.92 -27.131)" fill="#fb938a"/>
        <path id="Trazado_913414" data-name="Trazado 913414" d="M48.475,109.778c-.079-4.047-2.923-6-5.009-5.162-1.706.683-4,3.19-3.4,5.888a.838.838,0,0,0-.847.807c-.238,1.327.794,1.513,1.289,1.3a1.3,1.3,0,0,0,.416-.3,9.069,9.069,0,0,0,3.153,2.464c3,1.549,4.458-1.939,4.4-4.994" transform="translate(-8.965 -23.893)" fill="#fb938a"/>
        <path id="Trazado_913415" data-name="Trazado 913415" d="M39.185,102.793c1.536-7.444,6.4-5.993,7.677-5.266,2.106,1.2,1.544,4.98-.472,6.4a3.09,3.09,0,0,1-.747.386,6.375,6.375,0,0,1-4.632-.113,5.146,5.146,0,0,0-1.559,4.585.84.84,0,0,0-.847.808c-.238,1.327.794,1.513,1.289,1.3a1.28,1.28,0,0,0,.416-.3,5.947,5.947,0,0,0,.389.463.714.714,0,0,1-.629.678,8.575,8.575,0,0,1-1.1.06,2.876,2.876,0,0,1-2.445-3.332,4.187,4.187,0,0,1,.189-.872c.027-.271,2.27-3.824,2.469-4.791" transform="translate(-8.352 -22.174)" fill="#6b8be8"/>
        <path id="Trazado_913416" data-name="Trazado 913416" d="M84.2,120.244c-1.437.16-3.1,2.594-3.1,2.594l-.015-.045c-6.5,4.119-15.152,4.975-19.407,2.83l.239,10.584c6.495.457,11.694-2.142,18.792-9.876,0,0,.908-.134,1.7-.266.372-.062,2.828-1.971,2.445-2.64-.4-.7-1.468,1.182-1.468,1.182s-.336-.309.216-1.378,2.032-3.146.6-2.986" transform="translate(-14.112 -27.511)" fill="#fb938a"/>
        <path id="Trazado_913417" data-name="Trazado 913417" d="M37.52,120.069s1.161,3.323,3.126,2.9a2,2,0,0,0,.945-.709,2.113,2.113,0,0,0,.641-1.7s5.676.163,9.2,2.686c2.315,1.655,3.58,2.2,7.584,3.016a26.749,26.749,0,0,1-2.254,11.1,6.7,6.7,0,0,1-2.442-.4c-.282,10.827.493,14.909-.046,21.3-5.173,2.153-20.4-.9-27.744-3.244l2-14.354a12.008,12.008,0,0,1-2.137-9.685c1.3-5.495,4.212-8.253,6.41-9.224a40.273,40.273,0,0,1,4.717-1.673" transform="translate(-5.972 -27.473)" fill="#9fc0f1"/>
        <path id="Trazado_913418" data-name="Trazado 913418" d="M54.4,162.572c.063-.751.108-1.47.139-2.172-4.354.268-11.5,2.032-20.124-6.574-5.139-5.128-4.656-14.1-5.33-14.865l-2.427,20.366c7.34,2.339,22.57,5.4,27.743,3.244" transform="translate(-6.1 -31.796)" fill="#8ab2ee"/>
        <path id="Trazado_913419" data-name="Trazado 913419" d="M25.561,175.816c.29-3.317-7.252-4.727-7.79.1.114.882,1.185-.093,1.7.676-.494-1.729,3.022-4.339,4.638-.687Z" transform="translate(-4.066 -39.536)" fill="#ffbe01"/>
        <path id="Trazado_913420" data-name="Trazado 913420" d="M29.211,176.625c-.579-1.028-18.2.489-18.813,1.4s-1.326,14.68-.438,15.087,20.923-.426,21.727-1.469-.7-11.863-2.476-15.021" transform="translate(-2.184 -40.334)" fill="#ffbe01"/>
        <path id="Trazado_913421" data-name="Trazado 913421" d="M31.44,183.283,9.035,185.154s.158-6.805,1.207-7.568,18.229-2.685,19.006-1.533,2.193,7.23,2.193,7.23" transform="translate(-2.067 -40.2)" fill="#ffca2f"/>
        <path id="Trazado_913422" data-name="Trazado 913422" d="M24.034,185.873s-.135,3.141-1.22,3.146-1.735-2.9-1.735-2.9Z" transform="translate(-4.823 -42.529)" fill="#5da1e6"/>
        <path id="Trazado_913423" data-name="Trazado 913423" d="M24.38,130.791s-9.422,10.923-9.033,20.252,2.541,12.076,2.541,12.076-.74,2,.16,3.022,1.289-.008,2.018-.234,1.981-.187,1.828-1.306a1.636,1.636,0,0,0-1.2-1.357,4.145,4.145,0,0,1,1.034-.006s-.956-1.127-1.668-.922c-1.955-5.944.7-13.408,8.2-20.647Z" transform="translate(-3.509 -29.926)" fill="#fb938a"/>
        <path id="Trazado_913424" data-name="Trazado 913424" d="M31.746,121.918c-4.779,1.276-7.548,3.979-9.816,8.938-2.29,5.007-2.978,5.1-2.978,5.1l7.076,8.16,5.948-5.632Z" transform="translate(-4.336 -27.896)" fill="#9fc0f1"/>
        <path id="Trazado_913425" data-name="Trazado 913425" d="M41.095,118.54l-1.453.765c.165,2.132,3.821,5.689,5.468,6.6l-.42-4c-2.355-.514-3.678-1.831-3.595-3.37" transform="translate(-9.07 -27.123)" fill="#8ab2ee"/>
        <path id="Trazado_913426" data-name="Trazado 913426" d="M46.866,119.184a4.976,4.976,0,0,1-.679,2.873l2.207,2.234c.1-1.488.558-2.625-.05-3.813Z" transform="translate(-10.568 -27.27)" fill="#8ab2ee"/>
        <rect id="Rectángulo_403918" data-name="Rectángulo 403918" width="33.506" height="16.557" transform="translate(70.793 198.43)" fill="#5da1e6"/>
        <rect id="Rectángulo_403919" data-name="Rectángulo 403919" width="44.327" height="38.852" transform="translate(114.99 176.918)" fill="#4b96e3"/>
        <rect id="Rectángulo_403920" data-name="Rectángulo 403920" width="44.718" height="57.756" transform="translate(170.138 158.013)" fill="#fa7367"/>
        <path id="Trazado_913427" data-name="Trazado 913427" d="M180.407,174.661s-2.481-.49-3.478.471-.085,3.3.787,4.84,5.293,4.729,5.829,4.2-2.472-4.833-2.294-5.927-.153-1.329-.153-1.329Z" transform="translate(-40.383 -39.935)" fill="#6b8be8"/>
        <path id="Trazado_913428" data-name="Trazado 913428" d="M240.919,196.628a7.765,7.765,0,0,0-.8,3.99c.293,1.845,1.82,2.515,3.942,2.331s6.665-.174,7.426-.641-2.195-2.215-4.518-2.816-2.115-1.287-2.115-1.287Z" transform="translate(-54.93 -44.99)" fill="#6b8be8"/>
        <path id="Trazado_913429" data-name="Trazado 913429" d="M212.134,88.136s-4.234,8.892-6.513,22.975c-.777,4.8-2.917,12.8-5.256,21.375-4.53,16.614-18.094,14.715-19.048,23.076-.612,5.373,18.174,9.15,27.475-3.7,9.051-12.5,12.11-22.469,12.11-22.469s.72,27.754,2.107,34.831,6.138,9.811,7.951,10.187,4.8-13.965,5.088-25.406-2.005-52.541-2.005-52.541Z" transform="translate(-41.484 -20.166)" fill="#2a3c52"/>
        <path id="Trazado_913430" data-name="Trazado 913430" d="M240.238,164.562a86.159,86.159,0,0,1-2.637,13.12,15.207,15.207,0,0,1-2.843-6.488c-1.387-7.076-2.106-34.832-2.106-34.832l3.881-17.781s5.8,30.528,3.7,45.981" transform="translate(-53.233 -27.132)" fill="#12263f"/>
        <path id="Trazado_913431" data-name="Trazado 913431" d="M244.32,50.793l-.251-2.261-1,1.759Z" transform="translate(-55.615 -11.104)" fill="#9fc0f1"/>
        <path id="Trazado_913432" data-name="Trazado 913432" d="M242.884,46.89l-.981,2.267,3.222,2.322L239.8,53.652l-4.37-2.516,1.424-2.738,1.451-.319.234-4.3,3.318.994Z" transform="translate(-53.869 -10.017)" fill="#fa6d61"/>
        <path id="Trazado_913433" data-name="Trazado 913433" d="M236.2,51.973l3.832,2.7,1.342-.548,2.046-2.961-1.337-.965.409-.945a4.085,4.085,0,0,0-3.113-.844,2.6,2.6,0,0,0-.881.528l-.01.184-.252.056a13.85,13.85,0,0,0-2.035,2.8" transform="translate(-54.043 -11.055)" fill="#fb938a"/>
        <path id="Trazado_913434" data-name="Trazado 913434" d="M246.6,40.581c.366-3.883-2.144-6.06-4.232-5.488-1.707.468-4.172,2.618-3.9,5.266a.807.807,0,0,0-.9.681c-.372,1.244.6,1.534,1.093,1.382a1.256,1.256,0,0,0,.431-.242,8.748,8.748,0,0,0,2.749,2.7c2.707,1.811,4.479-1.37,4.755-4.3" transform="translate(-54.34 -8.009)" fill="#fb938a"/>
        <path id="Trazado_913435" data-name="Trazado 913435" d="M233.584,49.562s.7,3.45,2.7,3.3a2.012,2.012,0,0,0,1.032-.574,2.115,2.115,0,0,0,.866-1.6s5.6.932,8.754,3.909c2.068,1.954,3.248,2.661,7.1,4.018A26.736,26.736,0,0,1,250.305,69.3a6.687,6.687,0,0,1-2.364-.731c-1.749,10.689-1.534,14.839-2.934,21.1C239.59,91.092,224.915,86,217.96,82.685l3.925-13.951a12.01,12.01,0,0,1-.8-9.885c2.031-5.268,5.293-7.605,7.6-8.269a40.258,40.258,0,0,1,4.9-1.017" transform="translate(-49.871 -11.34)" fill="#9fc0f1"/>
        <path id="Trazado_913436" data-name="Trazado 913436" d="M245.007,93.6c.164-.735.307-1.441.433-2.132-4.35-.325-11.669.453-19.047-9.243-4.4-5.779-2.7-14.6-3.266-15.45L217.96,86.623c6.955,3.313,21.629,8.408,27.046,6.977" transform="translate(-49.871 -15.279)" fill="#8ab2ee"/>
        <path id="Trazado_913437" data-name="Trazado 913437" d="M217,103.617c.558-3.282-6.844-5.3-7.772-.538.042.888,1.188,0,1.642.811-.352-1.764,3.365-4.079,4.678-.308Z" transform="translate(-47.874 -22.94)" fill="#ffbe01"/>
        <path id="Trazado_913438" data-name="Trazado 913438" d="M220.3,104.977c-.494-1.072-18.181-.992-18.865-.13s-2.515,14.524-1.663,15,20.888,1.276,21.775.3.27-11.88-1.247-15.172" transform="translate(-45.66 -23.839)" fill="#ffbe01"/>
        <path id="Trazado_913439" data-name="Trazado 913439" d="M222.1,111.829l-22.484.044s.711-6.77,1.819-7.444,18.386-1.195,19.066.016,1.6,7.384,1.6,7.384" transform="translate(-45.675 -23.731)" fill="#ffca2f"/>
        <path id="Trazado_913440" data-name="Trazado 913440" d="M214.734,113.5s-.389,3.119-1.472,3.037-1.494-3.029-1.494-3.029Z" transform="translate(-48.454 -25.97)" fill="#5da1e6"/>
        <path id="Trazado_913441" data-name="Trazado 913441" d="M219.063,58.778S208.783,68.9,208.414,78.229s1.551,12.243,1.551,12.243-.9,1.936-.086,3.024,1.285.1,2.031-.07,1.99-.025,1.928-1.153a1.636,1.636,0,0,0-1.086-1.451,4.226,4.226,0,0,1,1.032.078s-.861-1.2-1.588-1.053c-1.466-6.084,1.787-13.307,9.854-19.912Z" transform="translate(-47.676 -13.449)" fill="#fb938a"/>
        <path id="Trazado_913442" data-name="Trazado 913442" d="M228.326,50.666c-4.908.615-8.019,2.919-10.937,7.524-2.948,4.65-3.643,4.648-3.643,4.648l5.9,9.044,6.658-4.773Z" transform="translate(-48.907 -11.593)" fill="#9fc0f1"/>
        <path id="Trazado_913443" data-name="Trazado 913443" d="M238.315,32.963c2.282-6.958,6.779-5.039,7.923-4.2,1.886,1.377.935,4.936-1.149,6.072a2.954,2.954,0,0,1-.757.288,6.141,6.141,0,0,1-4.421-.612,4.954,4.954,0,0,0-1.993,4.218.808.808,0,0,0-.9.682c-.373,1.244.595,1.534,1.093,1.382a1.233,1.233,0,0,0,.431-.243,5.8,5.8,0,0,0,.322.485.689.689,0,0,1-.676.581,8.616,8.616,0,0,1-1.058-.062,2.772,2.772,0,0,1-1.978-3.456,4.034,4.034,0,0,1,.277-.814c.055-.256,2.589-3.413,2.886-4.317" transform="translate(-53.784 -6.377)" fill="#6b8be8"/>
        <path id="Trazado_913444" data-name="Trazado 913444" d="M238.717,48.317l-1.681.417c-.125,2.135,3.015,6.155,4.522,7.285L241.684,52c-1.131-.377-3.169-2.085-2.967-3.683" transform="translate(-54.235 -11.055)" fill="#8ab2ee"/>
        <path id="Trazado_913445" data-name="Trazado 913445" d="M244.134,49.3a4.941,4.941,0,0,1-1.07,2.926l1.884,2.512c.3-1.46.909-2.525.467-3.783Z" transform="translate(-55.615 -11.28)" fill="#8ab2ee"/>
        <path id="Trazado_913446" data-name="Trazado 913446" d="M287.014,56.734s.972-.434.846,1.073-.5,2.889-1.507,3.015-1.885-.628-1.759-1.381,2.42-2.706,2.42-2.706" transform="translate(-65.115 -12.968)" fill="#fb938a"/>
      </g>
    </g>
  </g>
</svg>
