<svg xmlns="http://www.w3.org/2000/svg" xmlns:xlink="http://www.w3.org/1999/xlink" width="56.455" height="53.431" viewBox="0 0 56.455 53.431">
  <defs>
    <clipPath id="clip-path">
      <rect id="Rectángulo_403849" data-name="Rectángulo 403849" width="44.914" height="44.914" fill="none"/>
    </clipPath>
  </defs>
  <g id="Grupo_1103116" data-name="Grupo 1103116" transform="translate(-838.545 -8639.648)">
    <g id="Grupo_1103115" data-name="Grupo 1103115">
      <g id="Grupo_1103114" data-name="Grupo 1103114">
        <ellipse id="Elipse_11568" data-name="Elipse 11568" cx="20.631" cy="20.631" rx="20.631" ry="20.631" transform="translate(853.738 8651.816)" fill="#fa6d61"/>
        <g id="Grupo_1102599" data-name="Grupo 1102599" transform="translate(838.545 8639.648)">
          <g id="Grupo_1102598" data-name="Grupo 1102598" clip-path="url(#clip-path)">
            <path id="Trazado_913274" data-name="Trazado 913274" d="M32.275,0a2.242,2.242,0,0,1,1.76,2.2c.007.438,0,.877,0,1.315s0,.876,0,1.341c.523-.132,1.02-.3,1.53-.379A7.97,7.97,0,0,1,43.727,16.49c-.2.338-.371.428-.668.136a1.02,1.02,0,0,0-.224-.131.626.626,0,0,0-.127-.118c-.363-.182-.433-.363-.178-.754a6.02,6.02,0,0,0,.918-3.2,6.511,6.511,0,0,0-9.087-6.091.485.485,0,0,0-.334.524q.016,5.434,0,10.869a.525.525,0,0,0,.382.577,6.391,6.391,0,0,0,6.463-.8c.586-.424.579-.434,1.1.051.467.572.474.582-.142,1.042a7.825,7.825,0,0,1-7.407,1.262c-.1-.03-.193-.066-.29-.1a.539.539,0,0,0-.1.008c0,.918.013,1.842,0,2.766a2.161,2.161,0,0,1-4.183.684.637.637,0,0,0-.358-.4,37.964,37.964,0,0,0-8.98-2.537c-.162-.028-.256-.007-.236.184.007.072,0,.146,0,.219a2.882,2.882,0,0,0,.025.913c.109.3.5.158.763.264A2.186,2.186,0,0,1,22.4,24.3c-.047.225-.069.321.226.347a2.136,2.136,0,0,1,1.616,3.345.4.4,0,0,0,.015.527,2.016,2.016,0,0,1,0,2.343.427.427,0,0,0,0,.565,2.022,2.022,0,0,1-.009,2.344.391.391,0,0,0-.009.527,2.012,2.012,0,0,1,.122,2.2,2.033,2.033,0,0,1-1.879,1.155q-5.633.012-11.266,0A3.269,3.269,0,0,1,8.7,36.51a2.9,2.9,0,0,0-2.57-1.024c-.3.023-.359.105-.349.376.019.511,0,1.023.008,1.534,0,.171-.018.265-.231.263-1.854-.017-3.709-.024-5.563-.034V23.154c1.547.005,3.094.006,4.641.019.374,0,.871-.167,1.087.078.184.209.054.694.063,1.057a.219.219,0,0,1,0,.044c-.04.241.077.291.3.287.7-.013,1.4,0,2.1-.008a2.213,2.213,0,0,0,1.6-.686c.337-.345.685-.678,1.02-1.024a3.559,3.559,0,0,1,1.951-1.09c.214-.038.289-.127.282-.346-.015-.511-.03-1.024,0-1.533.024-.351-.112-.405-.421-.4-1.065.017-2.131.01-3.2,0a1.718,1.718,0,0,1-1.623-.778c-.369-.737-.92-.7-1.543-.674-.277.011-.555.01-.832,0-.346-.014-.79.148-1.013-.064s-.066-.664-.067-1.009c0-.258-.039-.36-.345-.394a4.3,4.3,0,0,1-3.8-2.975c-.074-.2-.043-.432-.214-.594V11.489c.158-.078.129-.244.17-.374A4.354,4.354,0,0,1,3.377,8.072c.317-.086.771.055.928-.2a1.835,1.835,0,0,0,.038-.986c-.025-.326.112-.384.4-.378.774.017,1.548.007,2.322.005.155,0,.3.025.4-.175A2.221,2.221,0,0,1,9.712,5.07a56.3,56.3,0,0,0,10.513-.684,38.917,38.917,0,0,0,8.751-2.361,1.478,1.478,0,0,0,1.018-.9,1.746,1.746,0,0,1,.992-.941C31.1.131,31.249.143,31.31,0ZM12.2,28.7c-.427-.045-.55-.472-.85-.677-.264-.181-.265-.334-.019-.57.874-.84,1.728-1.7,2.575-2.568a.814.814,0,0,1,.648-.266c1.855.011,3.71.009,5.565,0,.549,0,.86-.271.862-.717s-.306-.719-.855-.72q-3.264-.006-6.529,0a2.24,2.24,0,0,0-1.683.71c-.354.369-.718.728-1.083,1.086a3.619,3.619,0,0,1-2.675,1.1c-.555-.007-1.11.005-1.665.009-.7-.073-.7-.073-.7.6,0,2.287.014,4.575-.012,6.861-.005.443.133.568.533.5.057-.01.115-.016.172-.024a3.908,3.908,0,0,1,3.172,1.389,2.195,2.195,0,0,0,1.556.791c.524.028,1.05,0,1.576.016.191,0,.252-.061.251-.25q-.018-3.283-.025-6.567a11.1,11.1,0,0,0,.044-1.562,5.3,5.3,0,0,0-.854.865M29.694,21.32V3.745c0-.059,0-.117,0-.175.014-.19-.023-.275-.241-.174-.3.141-.617.26-.933.374a49.411,49.411,0,0,1-15.014,2.72c-.345.013-.476.071-.467.452.026,1.023.006,1.04,1.052,1.02.337-.006.432.09.4.412s.1.767-.073.97-.63.079-.959.061-.42.072-.416.409c.019,1.666.016,3.333,0,5,0,.3.056.408.377.4.343-.013.816-.168,1,.07.173.221.033.673.068,1.02.033.321-.089.4-.389.376-.332-.022-.775-.117-.973.051-.233.2-.04.657-.081,1-.035.292.055.41.373.412a39.956,39.956,0,0,1,4.021.272,51.207,51.207,0,0,1,8.63,1.645,35.238,35.238,0,0,1,3.622,1.269M4.317,30.411c0-1.8,0-3.594,0-5.391,0-.26-.032-.387-.346-.375-.73.028-1.461.013-2.191.006-.2,0-.312.01-.311.271q.014,5.5,0,11c0,.24.083.286.3.282.73-.013,1.461-.02,2.191,0,.295.009.36-.085.358-.363-.011-1.812-.006-3.623-.006-5.435M31.139,12.278q0,4.911,0,9.822a2.369,2.369,0,0,0,.012.437.683.683,0,0,0,.68.623.667.667,0,0,0,.731-.557,1.783,1.783,0,0,0,.036-.435q0-9.866,0-19.733a1.838,1.838,0,0,0-.029-.392.669.669,0,0,0-.713-.581.678.678,0,0,0-.7.6,2.062,2.062,0,0,0-.016.437q0,4.89,0,9.779m-22.452.043c0,1.636,0,3.271,0,4.907,0,.6.253.861.844.871s1.168,0,1.752,0c.143,0,.305.028.3-.2-.012-.392.1-.85-.062-1.156-.127-.233-.62-.049-.949-.08a.167.167,0,0,0-.044,0c-.31.052-.388-.083-.387-.385,0-1.061-.008-1.073,1.062-1.069.31,0,.389-.088.387-.392q-.021-2.519,0-5.038c0-.323-.109-.381-.4-.379-1.067.006-1.054,0-1.049-1.078,0-.308.118-.35.382-.351,1.082,0,1.082-.011,1.061-1.1a.606.606,0,0,1,0-.087c.026-.209-.066-.281-.275-.277-.555.011-1.11,0-1.665,0-.7,0-.956.252-.956.947q0,2.431,0,4.863m7.357,23.893a2.176,2.176,0,0,1,.349-2.045c.127-.158,0-.23-.062-.332a2.106,2.106,0,0,1,.007-2.495c.088-.132.138-.21.026-.37a2.086,2.086,0,0,1,0-2.562c.071-.1.129-.173.029-.3a2.054,2.054,0,0,1-.383-1.854c.032-.131.012-.168-.128-.194-1.144-.207-1.4-.006-1.4,1.131,0,2.86.008,5.721-.01,8.581,0,.372.1.478.458.445s.726-.007,1.113-.007M4.353,12.346c0-.861,0-1.722,0-2.583,0-.168.049-.35-.247-.343a2.9,2.9,0,0,0-.082,5.768c.3.017.337-.1.334-.348-.01-.832,0-1.663,0-2.5m2.864-.036V9.028c0-1.044,0-1.031-1.029-1.043-.3,0-.388.068-.386.38.014,2.407.008,4.814.008,7.221,0,1.07,0,1.058,1.05,1.065.284,0,.367-.071.364-.358-.015-1.327-.006-2.655-.006-3.982m9.424,9.419c.291,0,.584.012.874,0,.431-.023,1.048.2,1.243-.091.219-.321.066-.9.075-1.36,0-.015,0-.029,0-.044.011-.143-.053-.209-.2-.225-1.3-.15-2.6-.3-3.915-.367-.206-.01-.242.073-.239.253.009.525.012,1.049,0,1.574-.006.218.079.271.28.267.627-.01,1.253,0,1.88,0m3.619,8.687c.686,0,1.373.006,2.06,0,.52-.006.824-.271.835-.7.011-.453-.293-.731-.84-.734q-2.038-.011-4.076,0c-.513,0-.834.28-.847.7s.329.732.853.739c.672.008,1.344,0,2.016,0m.044,1.455c-.672,0-1.344,0-2.016,0-.569.006-.911.293-.9.737.014.428.349.7.889.7q1.994.005,3.988,0c.558,0,.871-.252.884-.692.015-.469-.293-.737-.877-.744-.658-.007-1.315,0-1.972,0m.007,2.9c-.7,0-1.4-.009-2.1,0a.734.734,0,0,0-.815.723.749.749,0,0,0,.839.706q2.038.01,4.076,0c.542,0,.855-.281.849-.729-.006-.432-.3-.693-.829-.7-.672-.01-1.344,0-2.016,0m-.044-7.258c.672,0,1.344,0,2.016,0,.555,0,.865-.261.872-.706s-.3-.729-.847-.731q-2.038-.012-4.076,0a.748.748,0,0,0-.841.706c-.008.428.332.725.86.73.672.007,1.344,0,2.016,0" fill="#12263f"/>
            <path id="Trazado_913275" data-name="Trazado 913275" d="M86.145,111.421c-3.215,0-6.431-.006-9.646.008-.343,0-.475-.048-.463-.436.03-1.018.009-1.034,1.019-1.015.335.006.442-.074.435-.425-.024-1.183,0-2.368-.014-3.551,0-.261.032-.385.346-.38,1.228.02,2.455.016,3.683,0,.264,0,.347.056.343.335-.017,1.213,0,2.426-.015,3.639,0,.312.085.383.387.38,1.055-.011,1.056,0,1.056-1.069,0-1.929.006-3.858-.007-5.788,0-.3.057-.4.378-.4q1.819.03,3.639,0c.3,0,.355.09.354.367-.011,2.148,0,4.3-.012,6.446,0,.316.042.452.413.442,1.032-.026,1.032-.006,1.032-1.054,0-2.894.005-5.788-.007-8.682,0-.318.062-.423.4-.416,1.183.024,2.368.027,3.551,0,.37-.009.413.124.413.441-.011,3.069,0,6.139-.015,9.208,0,.377.063.522.483.506.969-.036.97-.011.97-.989,0-3.391.006-6.782-.009-10.172,0-.372.107-.46.464-.452,1,.022,1,.006,1,1,0,3.873-.006,7.746.009,11.62,0,.367-.089.448-.45.447-3.245-.016-6.489-.009-9.734-.009m5.8-5.783h.02v-3.37c0-1,0-.98-1.005-1.006-.39-.01-.443.132-.44.474.018,2.393.015,4.785.019,7.178,0,1.058,0,1.047,1.047,1.038.291,0,.368-.095.365-.375-.013-1.313-.006-2.625-.006-3.938m-7.21,1.4h.013q0,.964,0,1.929c0,.988,0,.974.969.989.334.005.449-.074.445-.431-.016-1.432,0-2.864.008-4.3,0-1.1,0-1.093-1.121-1.062-.253.007-.322.085-.319.329.013.847,0,1.7,0,2.542m-4.376,1.488h.017v-.394c0-1.1,0-1.1-1.112-1.067-.241.006-.333.067-.326.321.019.758.027,1.517.014,2.276-.007.423.311.316.481.271.309-.083.805.329.914-.271a6.477,6.477,0,0,0,.012-1.136" transform="translate(-51.415 -66.516)" fill="#12263f"/>
            <path id="Trazado_913276" data-name="Trazado 913276" d="M113.037,29.637c-.522-.485-.515-.474-1.1-.051a6.392,6.392,0,0,1-6.463.8.525.525,0,0,1-.382-.577q.019-5.434,0-10.869a.485.485,0,0,1,.334-.524,6.511,6.511,0,0,1,9.087,6.091,6.02,6.02,0,0,1-.918,3.2c-.255.391-.185.572.178.754a.615.615,0,0,1,.127.117,5.94,5.94,0,0,1-.861,1.058m-6.479-3.785a2.18,2.18,0,0,1-.35,0c-.374-.061-.405.117-.335.422a1.744,1.744,0,0,0,.84,1.278c.582.271.616.681.57,1.191-.009.1.014.207,0,.306-.063.365.112.426.437.421,1-.016,1.019,0,.991-1a.766.766,0,0,1,.45-.819,2.079,2.079,0,0,0,.993-2.131,2.154,2.154,0,0,0-1.7-1.786c-.185-.04-.378-.037-.563-.074a.679.679,0,0,1-.6-.656.659.659,0,0,1,.5-.732.608.608,0,0,1,.816.321c.128.381.359.382.66.365a5.233,5.233,0,0,1,.657,0c.228.016.278-.086.242-.287a2.061,2.061,0,0,0-1.073-1.568.632.632,0,0,1-.377-.685c.015-1.132,0-1.126-1.133-1.083-.223.008-.313.063-.3.3.017.306-.009.614.008.92a.454.454,0,0,1-.293.5,2.02,2.02,0,0,0-1.109,1.441,2.173,2.173,0,0,0,2.06,2.632c.5.058.748.274.766.674a.679.679,0,0,1-.543.745.693.693,0,0,1-.852-.5c-.061-.153-.124-.2-.274-.195s-.321,0-.482,0m5.771-2.183c-.713,0-.713,0-.713.668,0,.792,0,.792.773.792.682,0,.682,0,.682-.7,0-.764,0-.764-.741-.764" transform="translate(-71.062 -12.084)" fill="#4b96e3"/>
            <path id="Trazado_913277" data-name="Trazado 913277" d="M15.543,1.436c-.5,0-.994-.01-1.484,0-.228.007-.293-.065-.3-.3C13.718,0,13.71.005,14.831.005c.979,0,1.958.007,2.937,0,.244,0,.357.024.353.32-.019,1.242-.014,2.484,0,3.726,0,.226-.057.29-.289.3-1.167.029-1.166.037-1.166-1.137V2.6c-.172-.042-.219.1-.293.167A23.231,23.231,0,0,1,2.411,9.291c-.681.074-1.371.069-2.055.117C.1,9.426,0,9.376,0,9.085c-.007-1.1-.019-1.1,1.093-1.158A21.681,21.681,0,0,0,15.276,1.8c.1-.093.244-.16.267-.364" transform="translate(44.914 35.467) rotate(180)" fill="#12263f"/>
            <path id="Trazado_913278" data-name="Trazado 913278" d="M96.161,15.337q0-4.89,0-9.779a2.085,2.085,0,0,1,.015-.437.679.679,0,0,1,.7-.6.669.669,0,0,1,.713.581,1.837,1.837,0,0,1,.028.392q0,9.866,0,19.733a1.8,1.8,0,0,1-.036.435.667.667,0,0,1-.731.557.682.682,0,0,1-.68-.623,2.34,2.34,0,0,1-.012-.437q0-4.911,0-9.822" transform="translate(-65.021 -3.059)" fill="#4b96e3"/>
            <path id="Trazado_913279" data-name="Trazado 913279" d="M26.829,25.911q0-2.431,0-4.863c0-.695.252-.943.956-.947.555,0,1.11.006,1.665,0,.209,0,.3.067.274.277a.605.605,0,0,0,0,.087c.021,1.086.021,1.093-1.061,1.1-.264,0-.381.043-.382.351,0,1.073-.018,1.083,1.049,1.078.293,0,.4.057.4.379q-.024,2.519,0,5.038c0,.3-.077.393-.387.392-1.07,0-1.059.008-1.063,1.069,0,.3.078.437.387.385a.165.165,0,0,1,.044,0c.329.031.822-.153.949.08.166.306.051.764.062,1.156.007.231-.154.2-.3.2-.584,0-1.168.008-1.752,0s-.843-.27-.844-.871c0-1.636,0-3.271,0-4.907" transform="translate(-18.141 -13.59)" fill="#4b96e3"/>
            <path id="Trazado_913280" data-name="Trazado 913280" d="M7.388,32.02c0,.832-.006,1.664,0,2.5,0,.248-.037.365-.334.348a2.9,2.9,0,0,1,.082-5.769c.3-.007.247.175.247.343,0,.861,0,1.722,0,2.583" transform="translate(-3.035 -19.674)" fill="#4b96e3"/>
            <path id="Trazado_913281" data-name="Trazado 913281" d="M18.55,80.5l-.01,7.929c-.058.008-.115.014-.172.024-.4.071-.538-.054-.533-.5.026-2.287.012-4.574.012-6.861,0-.668,0-.668.7-.6" transform="translate(-12.06 -54.412)" fill="#4b96e3"/>
            <path id="Trazado_913282" data-name="Trazado 913282" d="M38.484,87.521c-.369-.117-.557-.445-.809-.7a5.317,5.317,0,0,1,.854-.865,11.1,11.1,0,0,1-.044,1.563" transform="translate(-25.476 -58.125)" fill="#4b96e3"/>
            <path id="Trazado_913283" data-name="Trazado 913283" d="M122.2,111.683c0,1.313-.007,2.626.006,3.938,0,.281-.074.373-.365.375-1.046.009-1.046.02-1.047-1.038,0-2.393,0-4.785-.019-7.178,0-.342.051-.484.441-.474,1,.026,1.005.005,1.005,1.006v3.37h-.02" transform="translate(-81.666 -72.561)" fill="#4b96e3"/>
            <path id="Trazado_913284" data-name="Trazado 913284" d="M102.9,119.123c0-.848.008-1.7,0-2.542,0-.244.065-.322.318-.329,1.122-.03,1.124-.039,1.121,1.062,0,1.432-.024,2.864-.008,4.3,0,.357-.111.436-.445.431-.968-.015-.968,0-.969-.989v-1.929H102.9" transform="translate(-69.576 -78.603)" fill="#4b96e3"/>
            <path id="Trazado_913285" data-name="Trazado 913285" d="M86.424,126.664a6.475,6.475,0,0,1-.012,1.136c-.108.6-.605.188-.914.271-.17.046-.488.152-.481-.271.013-.758,0-1.517-.014-2.276-.006-.254.085-.315.326-.321,1.113-.029,1.113-.037,1.112,1.067v.394h-.017" transform="translate(-57.479 -84.658)" fill="#4b96e3"/>
            <path id="Trazado_913286" data-name="Trazado 913286" d="M108.1,28.877c.161,0,.322.007.482,0s.213.041.274.195a.694.694,0,0,0,.852.5.679.679,0,0,0,.543-.745c-.018-.4-.267-.616-.766-.674a2.173,2.173,0,0,1-2.06-2.632,2.02,2.02,0,0,1,1.109-1.441.454.454,0,0,0,.293-.5c-.017-.306.009-.614-.008-.92-.013-.234.077-.289.3-.3,1.138-.042,1.147-.049,1.133,1.083a.633.633,0,0,0,.377.685,2.059,2.059,0,0,1,1.073,1.568c.037.2-.014.3-.241.287a5.238,5.238,0,0,0-.657,0c-.3.017-.532.015-.66-.365a.608.608,0,0,0-.816-.321.659.659,0,0,0-.5.732.679.679,0,0,0,.6.657c.185.037.378.035.563.074a2.154,2.154,0,0,1,1.7,1.787,2.078,2.078,0,0,1-.993,2.131.767.767,0,0,0-.45.819c.028,1,.009.983-.991,1-.325.005-.5-.056-.437-.421.017-.1-.005-.2,0-.306.046-.51.012-.92-.57-1.191a1.743,1.743,0,0,1-.84-1.278c-.07-.305-.039-.483.335-.422a2.217,2.217,0,0,0,.35,0" transform="translate(-72.608 -15.109)" fill="#12263f"/>
            <path id="Trazado_913287" data-name="Trazado 913287" d="M125.957,35.777c.742,0,.742,0,.742.764,0,.7,0,.7-.682.7-.773,0-.773,0-.773-.792,0-.668,0-.668.713-.668" transform="translate(-84.69 -24.192)" fill="#12263f"/>
            <path id="Trazado_913288" data-name="Trazado 913288" d="M53.945,21.16c-.212.062-.271-.035-.3-.258-.161-1.139-.171-1.151,1-1.293a49.165,49.165,0,0,0,8.59-1.763c.223-.069.36-.044.4.216a1.759,1.759,0,0,0,.09.292c.259.814.26.816-.537,1.043a54.783,54.783,0,0,1-9.231,1.764" transform="translate(-36.221 -12.045)" fill="#020202"/>
          </g>
        </g>
      </g>
    </g>
  </g>
</svg>
