<svg xmlns="http://www.w3.org/2000/svg" xmlns:xlink="http://www.w3.org/1999/xlink" width="56.611" height="66.97" viewBox="0 0 56.611 66.97">
  <defs>
    <clipPath id="clip-path">
      <rect id="Rectángulo_403844" data-name="Rectángulo 403844" width="56.611" height="52.675" fill="none"/>
    </clipPath>
  </defs>
  <g id="Grupo_1103154" data-name="Grupo 1103154" transform="translate(-844.389 -4285.786)">
    <g id="Grupo_1103153" data-name="Grupo 1103153">
      <g id="Grupo_1103152" data-name="Grupo 1103152">
        <ellipse id="Elipse_11574" data-name="Elipse 11574" cx="20.631" cy="20.631" rx="20.631" ry="20.631" transform="translate(852.956 4311.493)" fill="#fa6d61"/>
        <g id="Grupo_1102592" data-name="Grupo 1102592" transform="translate(844.389 4285.785)">
          <g id="Grupo_1102591" data-name="Grupo 1102591" transform="translate(0 0)" clip-path="url(#clip-path)">
            <path id="Trazado_913246" data-name="Trazado 913246" d="M39.6,19.979A20.069,20.069,0,1,1,21.63,8.837a23.858,23.858,0,0,1,11.343,3.322l-1.952,2.406c-1.7-.988-5.641-3.033-9.391-3.033A17.374,17.374,0,1,0,39,28.9a17.134,17.134,0,0,0-1.658-7.386Z" transform="translate(0.488 2.762)" fill="#4b96e3"/>
            <path id="Trazado_913247" data-name="Trazado 913247" d="M31.762,22.4a12.553,12.553,0,0,1,.929,4.772,12.792,12.792,0,1,1-6.163-10.942L24.5,18.354a9.95,9.95,0,1,0,5.354,8.817,9.826,9.826,0,0,0-.515-3.128Z" transform="translate(2.219 4.493)" fill="#4b96e3"/>
            <path id="Trazado_913248" data-name="Trazado 913248" d="M21.022,26.49l1.424-1.5a4.519,4.519,0,1,1-4.519-4.524,4.253,4.253,0,0,1,.722.06L16.8,22.474a2.678,2.678,0,0,0-.742,1.95,3.013,3.013,0,0,0,2.981,2.909,2.719,2.719,0,0,0,1.985-.843" transform="translate(4.191 6.397)" fill="#4b96e3"/>
            <path id="Trazado_913249" data-name="Trazado 913249" d="M42.424,8.576l-7.479,5.441L23.156,22.591,33.528,12.559l1.664-1.611,4.786-4.632Z" transform="translate(7.238 1.974)" fill="#4b96e3"/>
            <path id="Trazado_913250" data-name="Trazado 913250" d="M46.222,9.987a.67.67,0,0,1,.387.622.661.661,0,0,1-.413.608L35.6,15.534a.656.656,0,0,1-.255.054.714.714,0,0,1-.2-.033L32,14.565l1.343-.982,1.979.621,8.929-3.636L40.079,8.684l.315-.227a.641.641,0,0,0,.273-.5.669.669,0,0,0-.214-.534l-.074-.067Z" transform="translate(10.002 2.298)"/>
            <path id="Trazado_913251" data-name="Trazado 913251" d="M40.642,7.445a.679.679,0,0,1,.214.534.64.64,0,0,1-.274.5l-.314.227-6.737,4.9-1.344.982-.32-.1a.675.675,0,0,1-.461-.534.666.666,0,0,1,.253-.635L39.137,7.88,39.8,7.4a.67.67,0,0,1,.669-.067l.1.047Z" transform="translate(9.813 2.272)"/>
            <path id="Trazado_913252" data-name="Trazado 913252" d="M37.159,5.042l3.288,3.035-.1-.047a.667.667,0,0,0-.668.067l-.662.482L36.571,6.319,31.785,10.95l5.233-5.072a.666.666,0,0,0,.188-.635Z" transform="translate(9.935 1.576)"/>
            <path id="Trazado_913253" data-name="Trazado 913253" d="M37.877,5.316a.66.66,0,0,1-.188.635l-5.233,5.073-1.664,1.611a.679.679,0,0,1-.454.173.652.652,0,0,1-.221-.039.668.668,0,0,1-.441-.549l-.039-.335,1.2-1.163,5.648-5.46L36.762,5a.671.671,0,0,1,.921-.014l.147.134Z" transform="translate(9.264 1.501)"/>
            <path id="Trazado_913254" data-name="Trazado 913254" d="M36.412.515l1.5,6.1-.147-.134a.673.673,0,0,0-.923.014l-.274.266L35.51,2.447l-4.766,8.281.173,1.5-1.2,1.163-.328-2.72a.681.681,0,0,1,.087-.415L35.182.335a.678.678,0,0,1,.675-.328.671.671,0,0,1,.555.508" transform="translate(9.184 0)"/>
            <path id="Trazado_913255" data-name="Trazado 913255" d="M40.216,18.7A21.406,21.406,0,1,1,21.408,7.516c3.636,0,9.611,1.6,12.719,4a.683.683,0,0,1,.255.455.647.647,0,0,1-.14.494l-2.775,3.415a.66.66,0,0,1-.868.147c-1.189-.735-5.346-3.141-9.191-3.141A16.038,16.038,0,1,0,37.442,28.917a15.868,15.868,0,0,0-1.771-7.306.66.66,0,0,1,.219-.854l3.363-2.286a.682.682,0,0,1,.534-.1.692.692,0,0,1,.428.333m1.257,10.213a20.115,20.115,0,0,0-2.094-8.923l-2.259,1.537a17.12,17.12,0,0,1,1.659,7.386A17.374,17.374,0,1,1,21.408,11.547c3.75,0,7.693,2.045,9.391,3.033l1.95-2.406A23.847,23.847,0,0,0,21.408,8.854,20.068,20.068,0,1,0,41.473,28.917" transform="translate(0 2.349)"/>
            <path id="Trazado_913256" data-name="Trazado 913256" d="M36.833,13.676,23.786,23.16l-6.189,4.5a.67.67,0,0,1-.862-1.022l5.475-5.3L33.732,10.2l.041.335a.667.667,0,0,0,.441.547.623.623,0,0,0,.221.041.679.679,0,0,0,.454-.173L24.515,20.981l11.791-8.575a.666.666,0,0,0-.255.634.677.677,0,0,0,.462.536Z" transform="translate(5.168 3.188)"/>
            <path id="Trazado_913257" data-name="Trazado 913257" d="M32.428,21.124A13.95,13.95,0,0,1,33.8,27.186a14.138,14.138,0,1,1-6.081-11.61.643.643,0,0,1,.28.475.67.67,0,0,1-.18.534L24.89,19.666a.668.668,0,0,1-.83.114,8.542,8.542,0,0,0-4.384-1.21A8.619,8.619,0,1,0,28.3,27.186a8.509,8.509,0,0,0-.608-3.141.662.662,0,0,1,.248-.8l3.515-2.393A.659.659,0,0,1,32,20.77a.646.646,0,0,1,.427.354m.041,6.061a12.553,12.553,0,0,0-.929-4.772L29.12,24.058a9.789,9.789,0,0,1,.515,3.128,9.98,9.98,0,1,1-5.354-8.815l2.025-2.126a12.8,12.8,0,1,0,6.163,10.942" transform="translate(1.732 4.081)"/>
            <path id="Trazado_913258" data-name="Trazado 913258" d="M23.325,23.364A5.948,5.948,0,0,1,23.558,25a5.848,5.848,0,1,1-3.636-5.414.673.673,0,0,1,.234,1.083l-2.612,2.747a1.344,1.344,0,0,0-.375,1,1.606,1.606,0,0,0,.515,1.135,1.558,1.558,0,0,0,2.146.041L22.2,23.09a.687.687,0,0,1,.641-.186.679.679,0,0,1,.488.461m-1.1,1.645-1.424,1.5a2.718,2.718,0,0,1-1.985.841,3.013,3.013,0,0,1-2.981-2.907,2.686,2.686,0,0,1,.742-1.952l1.852-1.945a4.415,4.415,0,0,0-.722-.059,4.515,4.515,0,1,0,4.518,4.524" transform="translate(3.704 5.984)"/>
          </g>
        </g>
      </g>
    </g>
  </g>
</svg>
