<svg xmlns="http://www.w3.org/2000/svg" xmlns:xlink="http://www.w3.org/1999/xlink" width="65.742" height="51.498" viewBox="0 0 65.742 51.498">
  <defs>
    <clipPath id="clip-path">
      <rect id="Rectángulo_403848" data-name="Rectángulo 403848" width="58.111" height="34.736" fill="none"/>
    </clipPath>
  </defs>
  <g id="Grupo_1103113" data-name="Grupo 1103113" transform="translate(-828.913 -8308.083)">
    <g id="Grupo_1103112" data-name="Grupo 1103112">
      <ellipse id="Elipse_11567" data-name="Elipse 11567" cx="20.631" cy="20.631" rx="20.631" ry="20.631" transform="translate(853.393 8318.318)" fill="#fa6d61"/>
      <g id="Grupo_1102597" data-name="Grupo 1102597" transform="translate(828.913 8308.083)">
        <g id="Grupo_1102596" data-name="Grupo 1102596" transform="translate(0 0)" clip-path="url(#clip-path)">
          <path id="Trazado_913265" data-name="Trazado 913265" d="M45.856,41.192a.594.594,0,0,0-.044.376l1.316,6.743a.626.626,0,0,0,.589.508.618.618,0,0,0,.627-.451l2.589-8.824,5.9,2.131c.376,1.335,1.222,6.3,1.786,9.852a53.9,53.9,0,0,1-13,1.329,73.972,73.972,0,0,1-12.992-1.366c.564-3.547,1.4-8.486,1.78-9.814l5.9-2.131,2.582,8.824a.626.626,0,0,0,1.216-.057l1.322-6.743a.594.594,0,0,0-.044-.376l-.827-1.836h2.131Z" transform="translate(-16.06 -19.373)" fill="#4b96e3"/>
          <path id="Trazado_913266" data-name="Trazado 913266" d="M92.662,17.983a7.3,7.3,0,0,1,.194,2.689,1.533,1.533,0,0,1,.5.527,2.452,2.452,0,0,1,.018,1.924c-.357,1.178-.871,1.655-1.341,1.811-1.04,2.689-2.77,3.271-4.073,3.271s-3.028-.583-4.061-3.271c-.477-.156-.991-.633-1.348-1.811a2.432,2.432,0,0,1,.018-1.918,1.537,1.537,0,0,1,.514-.545,16.931,16.931,0,0,1,.019-2.507,1.537,1.537,0,0,1,.62-1.14,1.267,1.267,0,0,1,.508-.219A2.278,2.278,0,0,1,85,15.7a4.305,4.305,0,0,1,3.673-.388A4.839,4.839,0,0,1,91.7,16.936a1.616,1.616,0,0,1,.959,1.046m-1.046,5.759c.044-.006.326-.219.558-.99.2-.646.107-.89.075-.953-.013-.025-.05-.094-.232-.144a.629.629,0,0,1-.457-.6.531.531,0,0,1,.012-.107,10.633,10.633,0,0,0,.069-1.222,4.279,4.279,0,0,0-.156-1.309c-.106-.3-.219-.307-.257-.314a.613.613,0,0,1-.476-.319c-.438-.815-1.679-1.1-2.344-1.254a3.311,3.311,0,0,0-2.619.144,1.112,1.112,0,0,0-.426.746.628.628,0,0,1-.245.47.648.648,0,0,1-.52.119.223.223,0,0,0-.157.031c-.037.019-.075.107-.093.263a17.711,17.711,0,0,0,.007,2.639c0,.038.006.081.006.113a.629.629,0,0,1-.457.6c-.182.05-.22.119-.232.144-.038.062-.125.307.075.953.251.827.508.99.564.99h.045a.626.626,0,0,1,.595.426c.634,1.868,1.617,2.782,3.009,2.782s2.381-.914,3.014-2.782a.632.632,0,0,1,.646-.426" transform="translate(-40.544 -7.432)" fill="#12263f"/>
          <path id="Trazado_913267" data-name="Trazado 913267" d="M87.7,44.625l.019-.057.5-1.109H87.17l.5,1.109a.214.214,0,0,0,.025.057m4.011-.978-1.849,6.311a.626.626,0,0,1-1.216-.056L87.7,45.057,86.744,49.9a.64.64,0,0,1-.589.508.621.621,0,0,1-.627-.451l-1.849-6.311-.714.257c.376,1.83.9,4.851,1.567,9,1.116.088,2.181.138,3.159.138a40.126,40.126,0,0,0,9.363-.934c-.4-2.463-.984-5.941-1.26-6.988Zm-1.016-.99a.61.61,0,0,1,.32-.382.6.6,0,0,1,.5-.031l5,1.8a.636.636,0,0,1,.37.351c.364.89,1.316,6.881,1.5,8.072a.635.635,0,0,1-.433.7A36.577,36.577,0,0,1,87.69,54.295c-1.16,0-2.426-.063-3.754-.182a.615.615,0,0,1-.464-.276.636.636,0,0,0,.188-.552c-.138-.877-1.24-7.84-1.836-10.253a.59.59,0,0,1,.2-.125l1.855-.665a.6.6,0,0,1,.5.031.61.61,0,0,1,.32.382l1.316,4.481.439-2.237-.821-1.811a.623.623,0,0,1,.57-.884h2.99a.623.623,0,0,1,.57.884L88.943,44.9l.433,2.237Z" transform="translate(-40.278 -20.775)" fill="#12263f"/>
          <path id="Trazado_913268" data-name="Trazado 913268" d="M83.107,54.051c-.739-4.644-1.31-7.878-1.692-9.614a.618.618,0,0,1,.2-.6c.6,2.413,1.7,9.376,1.837,10.253a.637.637,0,0,1-.188.551.587.587,0,0,1-.1-.25Z" transform="translate(-40.069 -21.578)"/>
          <path id="Trazado_913269" data-name="Trazado 913269" d="M44.418,2.561a1.642,1.642,0,0,1,.733-.288,2.94,2.94,0,0,1,1.022-1.5c1.053-.821,2.67-.984,4.813-.489,1.1.257,3.046.7,4.017,2.187A1.974,1.974,0,0,1,56.25,3.783a10.161,10.161,0,0,1,.238,3.691,1.862,1.862,0,0,1,.714.715,3.158,3.158,0,0,1,.013,2.438c-.5,1.6-1.185,2.187-1.792,2.35-1.36,3.628-3.654,4.406-5.365,4.406s-4-.777-5.364-4.412c-.608-.156-1.3-.739-1.792-2.344a3.131,3.131,0,0,1,.013-2.438,1.8,1.8,0,0,1,.733-.721,24.374,24.374,0,0,1,.019-3.51,1.885,1.885,0,0,1,.752-1.4m.714,1.028a.761.761,0,0,0-.219.52,24.925,24.925,0,0,0,.006,3.622c0,.025.007.05.007.075v.069a.618.618,0,0,1-.451.6.659.659,0,0,0-.457.314,2.147,2.147,0,0,0,.088,1.472c.288.953.689,1.535,1,1.5h.044a.627.627,0,0,1,.6.427c.883,2.613,2.331,3.936,4.311,3.936,2.006,0,3.416-1.285,4.312-3.936a.625.625,0,0,1,.646-.427c.319.019.708-.564,1-1.5A2.147,2.147,0,0,0,56.1,8.79a.659.659,0,0,0-.457-.314.619.619,0,0,1-.457-.627c.006-.031.006-.062.013-.094a14.613,14.613,0,0,0,.1-1.7,5.982,5.982,0,0,0-.225-1.843c-.194-.527-.445-.558-.545-.564a.647.647,0,0,1-.476-.326c-.639-1.191-2.381-1.6-3.315-1.811-1.749-.407-3.046-.319-3.779.238A1.669,1.669,0,0,0,46.3,2.887v.019a.646.646,0,0,1-.783.608.58.58,0,0,0-.388.075" transform="translate(-21.002 0)" fill="#12263f"/>
          <path id="Trazado_913270" data-name="Trazado 913270" d="M30.527,50.274a74.009,74.009,0,0,0,12.991,1.366,53.925,53.925,0,0,0,13-1.329c-.564-3.547-1.41-8.517-1.786-9.852l-5.9-2.131-2.588,8.824a.618.618,0,0,1-.627.451.627.627,0,0,1-.589-.508l-1.316-6.743a.6.6,0,0,1,.044-.376l.828-1.837H42.453l.827,1.837a.6.6,0,0,1,.044.376L42,47.1a.626.626,0,0,1-1.216.056L38.2,38.329l-5.9,2.131c-.376,1.329-1.216,6.267-1.78,9.814m1.065-10.892L38.4,36.926a.629.629,0,0,1,.814.413l2.049,6.994.79-4.023-1.147-2.532a.641.641,0,0,1,.044-.6.632.632,0,0,1,.527-.288h4.074a.629.629,0,0,1,.57.89L44.979,40.31l.79,4.023,2.049-6.994a.633.633,0,0,1,.313-.382.663.663,0,0,1,.5-.031l6.813,2.457a.644.644,0,0,1,.364.351,5.2,5.2,0,0,1,.2.683.615.615,0,0,0-.2.6c.382,1.736.953,4.97,1.692,9.614l.056.339a.592.592,0,0,0,.1.251.679.679,0,0,1-.245.144c-.194.063-4.863,1.529-13.894,1.529a76.524,76.524,0,0,1-13.837-1.511.631.631,0,0,1-.3-.156.551.551,0,0,0,.107-.257l.038-.245c.251-1.617,1.122-7.088,1.7-9.708a.623.623,0,0,0-.2-.608,5.364,5.364,0,0,1,.2-.677.627.627,0,0,1,.364-.351" transform="translate(-14.462 -18.158)" fill="#12263f"/>
          <path id="Trazado_913271" data-name="Trazado 913271" d="M31.039,44.432c-.583,2.619-1.454,8.091-1.7,9.708l-.038.244a.553.553,0,0,1-.107.257A.644.644,0,0,1,29,54.083c.138-.877,1.241-7.853,1.837-10.259a.623.623,0,0,1,.2.608" transform="translate(-14.273 -21.572)"/>
          <path id="Trazado_913272" data-name="Trazado 913272" d="M19.857,22.752c.2-.646.106-.89.075-.953-.013-.025-.05-.094-.232-.144a.63.63,0,0,1-.457-.6c0-.031.006-.094.006-.125.019-.188.056-.859.056-1.542a9.642,9.642,0,0,0-.05-1.085.452.452,0,0,0-.094-.269.247.247,0,0,0-.175-.019.661.661,0,0,1-.514-.138.638.638,0,0,1-.238-.47,1.07,1.07,0,0,0-.42-.733,3.29,3.29,0,0,0-2.607-.144c-.683.157-1.918.439-2.356,1.254a.615.615,0,0,1-.476.319c-.044.007-.156.019-.257.313a7.086,7.086,0,0,0-.094,2.469.968.968,0,0,1,.013.138.661.661,0,0,1-.457.633c-.176.05-.213.119-.226.144-.038.062-.125.307.075.953.251.827.514.99.558.99h.05a.627.627,0,0,1,.6.426c.633,1.868,1.617,2.782,3.008,2.782s2.381-.915,3.015-2.782a.624.624,0,0,1,.639-.426c.056.025.313-.157.564-.99M21.035,21.2a2.434,2.434,0,0,1,.019,1.918c-.357,1.178-.871,1.654-1.348,1.811-1.034,2.689-2.764,3.271-4.067,3.271s-3.027-.583-4.068-3.271c-.47-.157-.984-.633-1.347-1.811a2.472,2.472,0,0,1,.025-1.924,1.469,1.469,0,0,1,.5-.527,7.15,7.15,0,0,1,.194-2.682,1.6,1.6,0,0,1,.959-1.053,4.849,4.849,0,0,1,3.015-1.629c1.636-.376,2.87-.244,3.685.389a2.273,2.273,0,0,1,.777,1.1,1.307,1.307,0,0,1,.508.219,1.537,1.537,0,0,1,.62,1.14,17.723,17.723,0,0,1,.019,2.507,1.524,1.524,0,0,1,.514.545" transform="translate(-4.945 -7.432)" fill="#12263f"/>
          <path id="Trazado_913273" data-name="Trazado 913273" d="M10.694,44.624a.228.228,0,0,1,.025-.056l.5-1.109H10.173l.5,1.109c.006.019.012.038.019.056M13.859,52.9c.276-1.742,1.015-6.336,1.567-9l-.715-.257-1.849,6.311a.647.647,0,0,1-.633.451.627.627,0,0,1-.583-.508l-.953-4.851L9.747,49.9a.626.626,0,0,1-1.216.056L6.682,43.647,2.6,45.12c-.276,1.04-.871,4.525-1.26,6.988a40.285,40.285,0,0,0,9.357.934c.984,0,2.043-.05,3.165-.138m2.707-9.877c-.6,2.407-1.7,9.382-1.837,10.259a.644.644,0,0,0,.188.558.614.614,0,0,1-.457.269c-1.341.119-2.607.182-3.766.182A36.656,36.656,0,0,1,.435,53.16a.624.624,0,0,1-.427-.7c.188-1.191,1.141-7.182,1.5-8.072a.642.642,0,0,1,.363-.351l5.007-1.8a.594.594,0,0,1,.5.031.61.61,0,0,1,.32.382l1.31,4.481L9.447,44.9l-.815-1.812a.64.64,0,0,1,.044-.6.627.627,0,0,1,.527-.282h2.99a.626.626,0,0,1,.526.282.639.639,0,0,1,.044.6L11.941,44.9l.439,2.237L13.7,42.656a.61.61,0,0,1,.32-.382.594.594,0,0,1,.5-.031l1.855.665a.5.5,0,0,1,.2.119" transform="translate(0 -20.774)" fill="#12263f"/>
        </g>
      </g>
    </g>
  </g>
</svg>
