<svg xmlns="http://www.w3.org/2000/svg" xmlns:xlink="http://www.w3.org/1999/xlink" width="52.146" height="66.16" viewBox="0 0 52.146 66.16">
  <defs>
    <clipPath id="clip-path">
      <rect id="Rectángulo_403837" data-name="Rectángulo 403837" width="48.702" height="51.662" fill="none"/>
    </clipPath>
  </defs>
  <g id="Grupo_1103164" data-name="Grupo 1103164" transform="translate(-841.778 -5264.596)">
    <g id="Grupo_1103163" data-name="Grupo 1103163">
      <g id="Grupo_1103162" data-name="Grupo 1103162">
        <g id="Grupo_1103161" data-name="Grupo 1103161">
          <ellipse id="Elipse_11571" data-name="Elipse 11571" cx="20.631" cy="20.631" rx="20.631" ry="20.631" transform="translate(852.662 5289.493)" fill="#fa6d61"/>
          <g id="Grupo_1102588" data-name="Grupo 1102588" transform="translate(841.778 5264.595)">
            <g id="Grupo_1102587" data-name="Grupo 1102587" transform="translate(0 0.001)" clip-path="url(#clip-path)">
              <path id="Trazado_913233" data-name="Trazado 913233" d="M32.617,15.644,18.575,24.533l8.874-14.05a20.265,20.265,0,0,1,5.168,5.161" transform="translate(6.306 3.558)" fill="#ffbe01"/>
              <path id="Trazado_913234" data-name="Trazado 913234" d="M21.255,28.282,33.492,44.016A19.781,19.781,0,0,1,21.843,47.79,19.966,19.966,0,0,1,21.1,7.872V27.819a1.137,1.137,0,0,0,.013.142.737.737,0,0,0,.075.216.391.391,0,0,0,.06.1.008.008,0,0,1,.008.008" transform="translate(0.636 2.672)" fill="#4b96e3"/>
              <path id="Trazado_913235" data-name="Trazado 913235" d="M38.668,14.578a21.391,21.391,0,0,1-5.019,28.389.714.714,0,0,1-.454.157.4.4,0,0,1-.09-.007.731.731,0,0,1-.5-.284l-12.67-16.36a.761.761,0,0,1-.142-.589.751.751,0,0,1,.336-.5L37.64,14.346a.755.755,0,0,1,1.029.232M40.5,26.055a19.81,19.81,0,0,0-2.707-10.038L21.621,26.212l11.7,15.108A19.827,19.827,0,0,0,40.5,26.055" transform="translate(6.716 4.831)" fill="#12263f"/>
              <path id="Trazado_913236" data-name="Trazado 913236" d="M33.947,15.591a.733.733,0,0,1,.1.56.761.761,0,0,1-.328.47L16.922,27.254l-.343-.447V24.48L20.4,18.44a.758.758,0,0,0,.537.589.652.652,0,0,0,.2.029.755.755,0,0,0,.634-.343l5.981-9.463a21.624,21.624,0,0,1,6.19,6.338M18.235,24.66l14.042-8.889a20.265,20.265,0,0,0-5.168-5.161Z" transform="translate(5.628 3.14)" fill="#12263f"/>
              <path id="Trazado_913237" data-name="Trazado 913237" d="M31.629,3.333a.74.74,0,0,1,.232,1.03l-5.071,8.031c-.157-.113-.312-.217-.469-.313a.745.745,0,0,0-.56-.1.738.738,0,0,0-.47.328l-5.853,9.262a.712.712,0,0,1-.007-.119V.746A.743.743,0,0,1,20.175,0,21.332,21.332,0,0,1,31.629,3.333M20.921,18.881,30.2,4.206a19.817,19.817,0,0,0-9.277-2.7Z" transform="translate(6.596 -0.001)" fill="#12263f"/>
              <path id="Trazado_913238" data-name="Trazado 913238" d="M34.75,43.868a.745.745,0,0,1-.127,1.043,21.224,21.224,0,0,1-13.162,4.534,21.458,21.458,0,1,1,0-42.915.744.744,0,0,1,.746.746V25.4l-1.38,2.185a.751.751,0,0,0-.111.4V8.037a19.966,19.966,0,0,0,.745,39.918,19.762,19.762,0,0,0,11.648-3.773L20.872,28.446c.023.023.038.046.06.067a.761.761,0,0,0,.529.217.749.749,0,0,0,.4-.113l.694-.439Z" transform="translate(0 2.216)" fill="#12263f"/>
              <path id="Trazado_913239" data-name="Trazado 913239" d="M26.787,9.362l-5.981,9.463a.759.759,0,0,1-.634.343.652.652,0,0,1-.2-.029.76.76,0,0,1-.537-.589v-.008L25.288,9.28a.749.749,0,0,1,1.029-.232c.157.1.313.2.47.313" transform="translate(6.598 3.032)"/>
              <path id="Trazado_913240" data-name="Trazado 913240" d="M16.957,22.948l.343.447-.694.441a.757.757,0,0,1-.924-.1c-.023-.023-.038-.046-.06-.067,0,0,0-.008-.007-.008a.584.584,0,0,1-.06-.1.721.721,0,0,1-.074-.216.837.837,0,0,1-.015-.142.751.751,0,0,1,.111-.4l1.38-2.185Z" transform="translate(5.25 7)"/>
              <path id="Trazado_913241" data-name="Trazado 913241" d="M15.532,22.814a.633.633,0,0,0,.06.1.391.391,0,0,1-.06-.1" transform="translate(5.273 7.744)"/>
              <path id="Trazado_913242" data-name="Trazado 913242" d="M15.466,22.547a1.042,1.042,0,0,0,.015.142.924.924,0,0,1-.015-.142" transform="translate(5.25 7.653)"/>
            </g>
          </g>
        </g>
      </g>
    </g>
  </g>
</svg>
