<svg xmlns="http://www.w3.org/2000/svg" xmlns:xlink="http://www.w3.org/1999/xlink" width="46.294" height="55.741" viewBox="0 0 46.294 55.741">
  <defs>
    <clipPath id="clip-path">
      <rect id="Rectángulo_403850" data-name="Rectángulo 403850" width="41.798" height="42.803" fill="none"/>
    </clipPath>
  </defs>
  <g id="Grupo_1103111" data-name="Grupo 1103111" transform="translate(-848.36 -7983.581)">
    <g id="Grupo_1103110" data-name="Grupo 1103110">
      <ellipse id="Elipse_11566" data-name="Elipse 11566" cx="20.631" cy="20.631" rx="20.631" ry="20.631" transform="translate(853.393 7998.06)" fill="#fa6d61"/>
      <g id="Grupo_1102601" data-name="Grupo 1102601" transform="translate(848.36 7983.581)">
        <g id="Grupo_1102600" data-name="Grupo 1102600" transform="translate(0 0)" clip-path="url(#clip-path)">
          <path id="Trazado_913289" data-name="Trazado 913289" d="M11.474,8.037c3.118,0,6.255-.515,7.966-1.526V8.975c0,.706-3.025,2.008-7.966,2.008a23.556,23.556,0,0,1-4.109-.337C4.908,10.21,3.508,9.458,3.508,8.975V6.511c1.711,1.011,4.848,1.526,7.966,1.526" transform="translate(-0.522 -0.969)" fill="#4b96e3"/>
          <path id="Trazado_913290" data-name="Trazado 913290" d="M4.385,22.818V20.48c1.711,1,4.855,1.526,7.973,1.526,2.972,0,6.209-.483,7.966-1.519v2.331c0,.706-3.025,2-7.966,2s-7.973-1.3-7.973-2" transform="translate(-0.653 -3.048)" fill="#4b96e3"/>
          <path id="Trazado_913291" data-name="Trazado 913291" d="M8.513,33.033V31.586a23.068,23.068,0,0,0,2.464.3,1.063,1.063,0,0,0,.139.047,24.128,24.128,0,0,0,5.363.561c3.118,0,6.255-.522,7.966-1.525v2.463c0,.529-1.678,1.381-4.578,1.784a25.73,25.73,0,0,1-3.388.218c-4.941,0-7.966-1.295-7.966-2Z" transform="translate(-1.267 -4.61)" fill="#4b96e3"/>
          <path id="Trazado_913292" data-name="Trazado 913292" d="M22.45,43.986V46.45c0,.706-3.025,2-7.973,2s-7.966-1.295-7.966-2V44.587a21.271,21.271,0,0,0,2.53.317.558.558,0,0,0,.192.079,24.545,24.545,0,0,0,5.245.529c3.118,0,6.262-.522,7.973-1.526" transform="translate(-0.969 -6.547)" fill="#4b96e3"/>
          <path id="Trazado_913293" data-name="Trazado 913293" d="M23.688,28.4v-4.26c0-1.143-1.209-2.061-3.508-2.662v-5.72c1.783-.555,2.979-1.394,2.979-2.5V9a.441.441,0,0,0-.014-.133c-.086-1.1-1.4-2.015-3.719-2.582V3.323C19.427,1.143,14.756,0,10.14,0S.852,1.143.852,3.323v4.26c0,1.255,1.54,2.167,3.732,2.715v2.4c-1.955.6-2.986,1.467-2.986,2.51v8.4c0,1.209,1.44,2.1,3.514,2.656v1.163c-1.89.317-5.113,1.129-5.113,3v4.26c0,1.2,1.394,2.074,3.409,2.629V39.48c0,2.18,4.669,3.323,9.287,3.323S21.99,41.66,21.99,39.48V35.22c0-1.123-1.182-2.028-3.415-2.635V31.4c2.893-.489,5.113-1.493,5.113-3m-1.322-4.26c0,.528-1.711,1.393-4.663,1.8,1.5-.554,2.478-1.334,2.478-2.331v-.759c1.578.469,2.186,1.023,2.186,1.295m-3.507-4.8c0,.706-3.026,2-7.967,2s-7.973-1.295-7.973-2V17.009c1.711,1,4.855,1.526,7.973,1.526,2.973,0,6.209-.483,7.967-1.519Zm2.979-6.084c0,.39-.925.964-2.583,1.394a21.844,21.844,0,0,1-5.384.608c-4.94,0-7.966-1.295-7.966-2v-2.45c1.605.945,4.584,1.512,7.966,1.512,3.118,0,6.256-.522,7.967-1.526Zm0-4.26c0,.706-3.026,2-7.967,2-.912,0-1.757-.046-2.536-.119,4.149-.178,8.006-1.281,8.085-3.236,1.81.489,2.418,1.1,2.418,1.354M10.14,1.321c4.94,0,7.966,1.295,7.966,2s-3.026,2-7.966,2-7.966-1.295-7.966-2,3.025-2,7.966-2M2.174,7.583V5.119C3.884,6.13,7.022,6.645,10.14,6.645s6.255-.515,7.966-1.526V7.583c0,.706-3.026,2.008-7.966,2.008a23.556,23.556,0,0,1-4.109-.337C3.574,8.818,2.174,8.066,2.174,7.583m2.616,6.441c.951,1.684,5.04,2.563,9.082,2.563A26.862,26.862,0,0,0,17,16.408a20.127,20.127,0,0,1-6.1.806c-4.947,0-7.973-1.295-7.973-2,0-.237.523-.74,1.87-1.188m-1.87,9.584V21.269c1.711,1.01,4.855,1.525,7.973,1.525s6.256-.515,7.967-1.525v2.338c0,.706-3.026,2-7.967,2-.594,0-1.162-.02-1.7-.053A20.041,20.041,0,0,1,5.925,25.1C4,24.665,2.919,24.031,2.919,23.608M8.9,26.857a1.064,1.064,0,0,0,.139.047,24.179,24.179,0,0,0,5.363.561c3.118,0,6.255-.522,7.966-1.526V28.4c0,.529-1.678,1.381-4.578,1.784A25.73,25.73,0,0,1,14.4,30.4c-4.941,0-7.966-1.295-7.966-2v-1.85a23.289,23.289,0,0,0,2.464.3m-3.739,1.9c.469,1.956,4.881,2.973,9.241,2.973.225,0,.443,0,.667-.014a20.424,20.424,0,0,1-5.779.72c-4.941,0-7.967-1.3-7.967-2.008,0-.33.978-1.176,3.838-1.672M1.321,34.684V32.227c1.711,1,4.849,1.526,7.967,1.526,2.959,0,6.2-.476,7.966-1.519v2.45c0,.707-3.026,2.009-7.966,2.009-.588,0-1.156-.02-1.691-.053-3.931-.251-6.276-1.335-6.276-1.956m19.348,4.8c0,.707-3.025,2-7.973,2s-7.966-1.295-7.966-2V37.618a21.27,21.27,0,0,0,2.53.317.558.558,0,0,0,.192.079,24.539,24.539,0,0,0,5.245.529c3.118,0,6.262-.523,7.973-1.526Zm0-4.26c0,.522-1.644,1.361-4.5,1.77,1.46-.548,2.4-1.321,2.4-2.306v-.726c1.512.462,2.094,1,2.094,1.261" transform="translate(0 0)" fill="#12263f"/>
          <path id="Trazado_913294" data-name="Trazado 913294" d="M45.859,36.732h0c0-2.18-4.677-3.322-9.287-3.322s-9.294,1.143-9.294,3.323v4.26c0,2.18,4.676,3.323,9.294,3.323s9.287-1.143,9.287-3.323Zm-.319-.552a.642.642,0,0,0-.213-.083.642.642,0,0,1,.213.083m-.341-.109a.647.647,0,0,0-.4.147.647.647,0,0,1,.4-.147m-.66,4.921c0,.706-3.025,2-7.966,2s-7.973-1.295-7.973-2V38.528c1.711,1,4.855,1.526,7.973,1.526s6.255-.522,7.966-1.526v-1.8c0,.706-3.025,2-7.966,2s-7.973-1.295-7.973-2,3.025-2,7.973-2,7.966,1.295,7.966,2a.659.659,0,0,1,.194-.467.659.659,0,0,0-.194.467v1.8a4.2,4.2,0,0,0,.571-.4,4.2,4.2,0,0,1-.571.4Z" transform="translate(-4.06 -4.973)" fill="#12263f"/>
        </g>
      </g>
    </g>
  </g>
</svg>
