<svg xmlns="http://www.w3.org/2000/svg" xmlns:xlink="http://www.w3.org/1999/xlink" width="57.041" height="49.344" viewBox="0 0 57.041 49.344">
  <defs>
    <clipPath id="clip-path">
      <rect id="Rectángulo_403851" data-name="Rectángulo 403851" width="45.421" height="37.385" fill="none"/>
    </clipPath>
  </defs>
  <g id="Grupo_1103109" data-name="Grupo 1103109" transform="translate(-837.908 -7667.953)">
    <g id="Grupo_1103108" data-name="Grupo 1103108">
      <g id="Grupo_1103107" data-name="Grupo 1103107">
        <ellipse id="Elipse_11565" data-name="Elipse 11565" cx="20.631" cy="20.631" rx="20.631" ry="20.631" transform="translate(853.687 7676.034)" fill="#fa6d61"/>
        <g id="Grupo_1102603" data-name="Grupo 1102603" transform="translate(837.908 7667.953)">
          <g id="Grupo_1102602" data-name="Grupo 1102602" transform="translate(0 0)" clip-path="url(#clip-path)">
            <path id="Trazado_913295" data-name="Trazado 913295" d="M43.718,31.148c.381,0,.707-.009,1.032,0,.474.017.66.2.663.659.006.855.016,1.711,0,2.567a3.082,3.082,0,0,1-2.825,2.979c-.194.016-.39.018-.585.018q-19.317,0-38.635.012a3.13,3.13,0,0,1-3.3-2.677A25.584,25.584,0,0,1,.029,31.65c0-.341.269-.486.587-.5.343-.012.688,0,1.107,0a4.886,4.886,0,0,1-.367-2.713q-.013-9.75,0-19.5a2.424,2.424,0,0,1,1.681-2.53,3.134,3.134,0,0,1,.977-.128c1.066,0,2.132-.012,3.2.008.3.005.374-.091.37-.38-.015-1.2-.012-2.4,0-3.6A2.169,2.169,0,0,1,9.849,0Q22.727,0,35.606.005a2.164,2.164,0,0,1,2.255,2.276c.009,1.2.012,2.4-.005,3.6,0,.309.071.409.393.4,1.066-.02,2.132-.011,3.2-.007a2.434,2.434,0,0,1,2.633,2.637q0,10.358.006,20.715a3.3,3.3,0,0,1-.366,1.516M22.687,28.393v0q6.822,0,13.642.007c.333,0,.457-.055.457-.431q-.019-11.279,0-22.558c0-.346-.1-.412-.423-.412q-13.642.013-27.284,0c-.372,0-.429.118-.429.45q.013,11.234,0,22.468c0,.392.086.495.488.493,4.517-.017,9.035-.01,13.552-.01m.03,2.738v-.006c6.229,0,12.459-.016,18.688.015A1.473,1.473,0,0,0,43,29.537c-.025-6.845-.014-13.691-.014-20.535,0-.135.005-.271,0-.406A1.293,1.293,0,0,0,41.91,7.428c-1.242-.094-2.488-.076-3.732-.075-.227,0-.329.089-.322.321a9.226,9.226,0,0,1,0,.99c-.027.332.118.4.417.394.705-.017,1.411-.006,2.116-.006.808,0,.958.153.958.977q0,9.232,0,18.464c0,.842-.151.993-1,.993H5.087c-.848,0-1-.151-1-.989V10.034c0-.12-.007-.241,0-.36a.594.594,0,0,1,.668-.622c.525.008,1.05,0,1.576,0,1.281,0,1.272,0,1.248-1.27-.006-.3-.1-.387-.391-.383-1.066.015-2.132,0-3.2.006-1.084,0-1.55.47-1.55,1.563q0,10.291,0,20.581c0,1.111.472,1.581,1.585,1.581H22.717m-.006,5.161H41.393c.315,0,.63.006.945-.009a2.007,2.007,0,0,0,1.992-2.064c.006-.51-.029-1.023.011-1.53.032-.4-.122-.454-.477-.454q-7.18.016-14.36,0c-.374,0-.512.057-.5.479a1.857,1.857,0,0,1-2.1,2.1H18.573a1.875,1.875,0,0,1-2.139-2.152c0-.381-.135-.427-.458-.425-1.921.013-3.842.006-5.762.006-2.881,0-5.762.01-8.643-.011-.411,0-.509.116-.476.5s.007.779.007,1.17a2.086,2.086,0,0,0,2.388,2.4H22.711m.006-32.377v0q6.345,0,12.691,0c.444,0,1.036.194,1.289-.087.22-.244.07-.826.072-1.258,0-1.115-.339-1.461-1.437-1.461l-25.2-.008c-.15,0-.3,0-.449.013a1.065,1.065,0,0,0-1.015,1.06c-.017.435.024.873-.016,1.3-.037.4.119.455.475.454q6.8-.018,13.591-.008M5.19,19.227v.856c0,2.611.01,5.223-.01,7.835,0,.408.114.52.5.488.433-.034.87,0,1.3-.008.663-.006.584.082.585-.564q0-3.782,0-7.565c0-3.227-.007-6.454.009-9.681,0-.384-.111-.484-.477-.46a10.975,10.975,0,0,1-1.485,0c-.374-.027-.44.117-.44.456.012,2.882.007,5.764.007,8.646m32.669.046c0,2.882.01,5.765-.012,8.647,0,.418.124.512.506.485a8.916,8.916,0,0,1,1.395,0c.417.036.491-.121.49-.5q-.018-8.625-.008-17.249a1.486,1.486,0,0,1,0-.18c.031-.247-.058-.346-.323-.337a15.952,15.952,0,0,1-1.62-.006c-.376-.026-.438.118-.436.455.012,2.9.007,5.795.007,8.692M22.723,32.226v0c-1.6,0-3.207,0-4.81,0-.135,0-.306-.072-.394.118a.983.983,0,0,0,.788,1.375q4.405.014,8.811,0a.77.77,0,0,0,.8-.791c.044-.694.04-.7-.659-.7h-4.54" transform="translate(0 0)" fill="#12263f"/>
            <path id="Trazado_913296" data-name="Trazado 913296" d="M31.844,33.678c-4.517,0-9.035-.006-13.552.01-.4,0-.489-.1-.488-.493q.019-11.235,0-22.468c0-.332.056-.451.428-.451q13.642.019,27.284,0c.327,0,.423.065.423.411q-.017,11.279,0,22.558c0,.377-.124.432-.457.432q-6.821-.015-13.642-.007ZM42.283,21.99h0c0-.075,0-.15,0-.225.015-1.386.152-1.979-1.793-2.39a.417.417,0,0,1-.352-.228c-.34-.7-.621-1.393.045-2.071a.16.16,0,0,0,.025-.037A1.286,1.286,0,0,0,40,15.391q-.75-.778-1.528-1.528a1.28,1.28,0,0,0-1.646-.221c-.251.135-.5.279-.738.429a.434.434,0,0,1-.416.042c-.735-.246-1.3-.572-1.4-1.48a1.23,1.23,0,0,0-1.356-1.066c-.435-.013-.87,0-1.306,0-1.748,0-1.881.093-2.32,1.764a.715.715,0,0,1-.412.461,1.5,1.5,0,0,1-1.945-.147.512.512,0,0,0-.122-.057,1.218,1.218,0,0,0-1.456.218q-.853.8-1.654,1.657a1.22,1.22,0,0,0-.2,1.5c.144.279.3.552.466.82a.439.439,0,0,1,.041.418c-.25.73-.572,1.3-1.483,1.4a1.2,1.2,0,0,0-1.055,1.312c-.017.42,0,.841,0,1.261,0,1.869.036,1.924,1.807,2.422a.575.575,0,0,1,.379.321,1.668,1.668,0,0,1-.1,2.041,1.162,1.162,0,0,0,.187,1.6q.761.8,1.558,1.562a1.281,1.281,0,0,0,1.648.2c.251-.135.5-.272.742-.423a.381.381,0,0,1,.375-.053c.7.27,1.422.511,1.4,1.468a.271.271,0,0,0,.025.085,1.28,1.28,0,0,0,1.29.986c.465.015.931,0,1.4,0,1.747,0,1.845-.074,2.314-1.767a.485.485,0,0,1,.259-.379c.693-.337,1.37-.6,2.032.052a.306.306,0,0,0,.076.048,1.266,1.266,0,0,0,1.576-.191c.556-.525,1.1-1.067,1.623-1.625a1.238,1.238,0,0,0,.194-1.536c-.137-.266-.293-.523-.446-.78a.377.377,0,0,1-.072-.375c.295-.667.467-1.456,1.451-1.417a.293.293,0,0,0,.086-.025,1.318,1.318,0,0,0,1.024-1.315c.017-.359,0-.72,0-1.081" transform="translate(-9.157 -5.285)" fill="#fff"/>
            <path id="Trazado_913297" data-name="Trazado 913297" d="M25.3,38.916H6.616c-1.114,0-1.585-.47-1.585-1.581q0-10.291,0-20.581c0-1.093.466-1.562,1.55-1.563,1.066,0,2.132.009,3.2-.006.294,0,.386.087.391.383.024,1.27.033,1.27-1.248,1.27-.525,0-1.051.007-1.576,0a.6.6,0,0,0-.668.623c-.011.119,0,.24,0,.36V36.282c0,.839.152.989,1,.989H42.934c.846,0,1-.151,1-.993q0-9.233,0-18.465c0-.824-.15-.977-.958-.977-.706,0-1.411-.012-2.116.005-.3.008-.444-.062-.417-.394a9.225,9.225,0,0,0,0-.99c-.006-.233.1-.321.322-.321,1.244,0,2.49-.019,3.732.075a1.294,1.294,0,0,1,1.069,1.168c.009.135,0,.27,0,.405,0,6.845-.011,13.691.014,20.536a1.474,1.474,0,0,1-1.592,1.6c-6.229-.032-12.459-.016-18.688-.016Z" transform="translate(-2.587 -7.785)" fill="#727997"/>
            <path id="Trazado_913298" data-name="Trazado 913298" d="M23.863,70.425H4.641a2.086,2.086,0,0,1-2.388-2.4c0-.39.026-.783-.007-1.17s.065-.5.476-.5c2.881.021,5.762.011,8.643.011,1.921,0,3.842.006,5.762-.006.324,0,.463.045.458.425a1.875,1.875,0,0,0,2.139,2.152h8.328a1.857,1.857,0,0,0,2.1-2.1c-.009-.422.129-.48.5-.479q7.18.02,14.36,0c.355,0,.509.054.477.454-.04.507,0,1.02-.011,1.53a2.007,2.007,0,0,1-1.992,2.064c-.315.015-.63.008-.945.008H23.863" transform="translate(-1.152 -34.133)" fill="#fff"/>
            <path id="Trazado_913299" data-name="Trazado 913299" d="M31.872,5.072q-6.8,0-13.591.008c-.356,0-.512-.056-.475-.454.04-.431,0-.869.015-1.3a1.066,1.066,0,0,1,1.015-1.061c.149-.014.3-.012.45-.012l25.2.007c1.1,0,1.44.347,1.437,1.461,0,.433.148,1.015-.071,1.258-.254.281-.846.087-1.29.088q-6.345.009-12.691,0Zm4.516-.883h6.75a3.621,3.621,0,0,0,.4-.009.5.5,0,0,0,.464-.471.482.482,0,0,0-.368-.546,1.533,1.533,0,0,0-.443-.048q-6.795,0-13.589,0a1.762,1.762,0,0,0-.444.041.474.474,0,0,0-.372.54.48.48,0,0,0,.444.483,2.731,2.731,0,0,0,.4.01h6.75M25.071,3.65a.546.546,0,0,0-.577-.546.516.516,0,0,0-.572.548.5.5,0,0,0,.565.549.536.536,0,0,0,.585-.551m-4.616.544a.554.554,0,0,0,.585-.544.57.57,0,0,0-.6-.542.543.543,0,1,0,.012,1.086m2.592-.544a.56.56,0,0,0-.591-.547.568.568,0,0,0-.564.58.531.531,0,0,0,.574.513.537.537,0,0,0,.581-.546" transform="translate(-9.156 -1.157)" fill="#4b96e3"/>
            <path id="Trazado_913300" data-name="Trazado 913300" d="M10.675,29.948c0-2.882.005-5.764-.007-8.646,0-.339.065-.482.439-.456a10.975,10.975,0,0,0,1.485,0c.366-.023.479.076.477.46-.016,3.227-.009,6.454-.009,9.681q0,3.783,0,7.565c0,.646.079.558-.584.564-.435,0-.873-.026-1.305.009-.39.031-.507-.08-.5-.488.02-2.612.01-5.224.01-7.835v-.856" transform="translate(-5.485 -10.721)" fill="#4b96e3"/>
            <path id="Trazado_913301" data-name="Trazado 913301" d="M77.941,29.994c0-2.9.005-5.795-.007-8.692,0-.338.06-.481.436-.456a16.105,16.105,0,0,0,1.621.007c.265-.009.354.09.322.337a1.478,1.478,0,0,0,0,.18q0,8.625.008,17.25c0,.384-.073.541-.49.5a8.915,8.915,0,0,0-1.395,0c-.383.027-.509-.067-.506-.485.021-2.882.011-5.765.011-8.647" transform="translate(-40.083 -10.72)" fill="#4b96e3"/>
            <path id="Trazado_913302" data-name="Trazado 913302" d="M41.188,66.341h4.54c.7,0,.7,0,.659.7a.77.77,0,0,1-.8.791q-4.405.012-8.811,0a.983.983,0,0,1-.788-1.375c.088-.19.258-.117.394-.118,1.6-.005,3.207,0,4.81,0Z" transform="translate(-18.466 -34.115)" fill="#564d65"/>
            <path id="Trazado_913303" data-name="Trazado 913303" d="M46.153,23.352c0,.36.014.721,0,1.081a1.319,1.319,0,0,1-1.024,1.315.293.293,0,0,1-.086.025c-.984-.039-1.156.75-1.451,1.417a.376.376,0,0,0,.072.374c.153.258.309.514.446.78a1.237,1.237,0,0,1-.194,1.536c-.524.558-1.067,1.1-1.623,1.625a1.265,1.265,0,0,1-1.576.192.306.306,0,0,1-.076-.048C39.976,31,39.3,31.26,38.607,31.6a.485.485,0,0,0-.259.38c-.469,1.693-.568,1.767-2.314,1.767-.466,0-.931.01-1.4,0a1.28,1.28,0,0,1-1.29-.986.274.274,0,0,1-.025-.086c.023-.957-.7-1.2-1.4-1.468a.38.38,0,0,0-.375.053c-.241.15-.491.288-.742.423a1.282,1.282,0,0,1-1.648-.2q-.8-.764-1.558-1.562a1.163,1.163,0,0,1-.187-1.6,1.667,1.667,0,0,0,.1-2.041.575.575,0,0,0-.379-.321c-1.771-.5-1.807-.553-1.807-2.422,0-.42-.013-.841,0-1.261a1.2,1.2,0,0,1,1.055-1.312c.911-.1,1.233-.67,1.483-1.4a.439.439,0,0,0-.041-.418c-.165-.268-.322-.541-.466-.82a1.219,1.219,0,0,1,.2-1.5q.8-.854,1.654-1.657a1.218,1.218,0,0,1,1.456-.218A.53.53,0,0,1,30.8,15a1.5,1.5,0,0,0,1.945.147.713.713,0,0,0,.412-.461c.44-1.671.572-1.763,2.32-1.763.436,0,.871-.01,1.306,0a1.229,1.229,0,0,1,1.356,1.066c.105.908.669,1.234,1.4,1.48a.434.434,0,0,0,.416-.042c.242-.151.488-.295.738-.429a1.28,1.28,0,0,1,1.646.221q.777.751,1.528,1.529A1.286,1.286,0,0,1,44.08,18.4a.157.157,0,0,1-.026.037c-.666.677-.385,1.368-.045,2.071a.417.417,0,0,0,.352.228c1.945.411,1.808,1,1.793,2.39,0,.075,0,.15,0,.225ZM43.2,17.705a1.221,1.221,0,0,0-.14-.221c-.485-.491-.977-.976-1.461-1.468a.313.313,0,0,0-.441-.031c-.333.2-.675.39-1.008.592a.743.743,0,0,1-.806.019,5.949,5.949,0,0,0-1.366-.566.747.747,0,0,1-.576-.616c-.078-.351-.2-.691-.273-1.042a.4.4,0,0,0-.472-.357c-.615.012-1.231.014-1.845,0a.4.4,0,0,0-.462.372c-.082.365-.206.72-.289,1.084a.69.69,0,0,1-.531.546,6.924,6.924,0,0,0-1.407.584.707.707,0,0,1-.764-.017c-.32-.195-.657-.362-.97-.566a.389.389,0,0,0-.583.07c-.348.373-.721.722-1.078,1.086-.551.562-.581.415-.126,1.1a1.961,1.961,0,0,1,.178,2.014A2.165,2.165,0,0,1,26.8,21.947c-.3.028-.389.207-.381.5.016.615.01,1.231,0,1.846a.375.375,0,0,0,.334.442c.366.077.72.2,1.085.287a.717.717,0,0,1,.579.556,4.544,4.544,0,0,0,.489,1.2,1,1,0,0,1-.04,1.166c-.648,1.071-.635,1.079.24,1.957.953.955.953.955,2.1.294.052-.03.106-.056.155-.09a.686.686,0,0,1,.759-.015,5.476,5.476,0,0,0,1.113.474,1.156,1.156,0,0,1,.926,1c.25,1.1.281,1.095,1.422,1.085.464,0,1.014.172,1.367-.071s.3-.844.442-1.281a.274.274,0,0,0,.015-.042.711.711,0,0,1,.582-.607,1.46,1.46,0,0,0,.465-.161,1.972,1.972,0,0,1,2.638.167c.235.2.425.111.618-.1.327-.351.678-.68,1.016-1.021.576-.584.591-.455.143-1.142a1.946,1.946,0,0,1-.182-1.975,2.2,2.2,0,0,1,2-1.692c.275-.026.375-.184.369-.457q-.019-.945,0-1.891a.386.386,0,0,0-.349-.435c-.364-.086-.72-.208-1.086-.285a.675.675,0,0,1-.556-.518,7.505,7.505,0,0,0-.6-1.45.681.681,0,0,1,.019-.723c.191-.322.374-.649.559-.975.051-.091.1-.186.151-.293" transform="translate(-13.028 -6.646)" fill="#12263f"/>
            <path id="Trazado_913304" data-name="Trazado 913304" d="M48.025,5.1h-6.75a2.665,2.665,0,0,1-.4-.01.48.48,0,0,1-.444-.483.474.474,0,0,1,.372-.54,1.76,1.76,0,0,1,.444-.041q6.795,0,13.589,0a1.533,1.533,0,0,1,.443.048.482.482,0,0,1,.368.546.5.5,0,0,1-.464.472,3.742,3.742,0,0,1-.4.008h-6.75" transform="translate(-20.793 -2.071)" fill="#12263f"/>
            <path id="Trazado_913305" data-name="Trazado 913305" d="M31.552,4.555a.536.536,0,0,1-.585.551.5.5,0,0,1-.565-.548.516.516,0,0,1,.572-.549.546.546,0,0,1,.577.546" transform="translate(-15.638 -2.062)" fill="#12263f"/>
            <path id="Trazado_913306" data-name="Trazado 913306" d="M22.668,5.1a.543.543,0,1,1-.013-1.086.571.571,0,0,1,.6.542.554.554,0,0,1-.585.544" transform="translate(-11.37 -2.065)" fill="#12263f"/>
            <path id="Trazado_913307" data-name="Trazado 913307" d="M27.377,4.553A.537.537,0,0,1,26.8,5.1a.531.531,0,0,1-.574-.513.568.568,0,0,1,.564-.58.56.56,0,0,1,.591.547" transform="translate(-13.486 -2.06)" fill="#12263f"/>
            <path id="Trazado_913308" data-name="Trazado 913308" d="M44.358,18.861c-.055.107-.1.2-.151.293-.185.326-.367.653-.559.975a.682.682,0,0,0-.019.723,7.462,7.462,0,0,1,.6,1.45.675.675,0,0,0,.556.518c.366.077.722.2,1.085.285a.386.386,0,0,1,.349.435q-.019.946,0,1.891c.006.273-.094.431-.369.457a2.2,2.2,0,0,0-2,1.692,1.946,1.946,0,0,0,.182,1.975c.448.687.434.558-.143,1.142-.338.341-.688.67-1.016,1.021-.193.206-.383.292-.618.1a1.973,1.973,0,0,0-2.638-.168,1.449,1.449,0,0,1-.465.161.712.712,0,0,0-.582.607.275.275,0,0,1-.015.042c-.145.437-.083,1.033-.442,1.28s-.9.068-1.367.071c-1.142.009-1.173.01-1.423-1.085a1.156,1.156,0,0,0-.926-1,5.459,5.459,0,0,1-1.113-.474.685.685,0,0,0-.759.015c-.05.034-.1.061-.155.09-1.15.661-1.15.661-2.1-.294-.875-.878-.888-.886-.24-1.957a1,1,0,0,0,.04-1.165,4.54,4.54,0,0,1-.489-1.2A.717.717,0,0,0,29,26.173c-.365-.083-.719-.211-1.085-.287a.375.375,0,0,1-.334-.442c.007-.615.014-1.231,0-1.846-.008-.288.082-.468.381-.5a2.165,2.165,0,0,0,1.979-1.658,1.961,1.961,0,0,0-.178-2.014c-.455-.687-.425-.54.126-1.1.357-.364.73-.713,1.078-1.086a.39.39,0,0,1,.583-.07c.313.2.65.371.97.565a.707.707,0,0,0,.764.017,6.953,6.953,0,0,1,1.407-.584.688.688,0,0,0,.531-.546c.083-.365.207-.72.289-1.084a.4.4,0,0,1,.462-.372c.615.015,1.231.013,1.845,0a.4.4,0,0,1,.472.357c.072.352.2.692.273,1.042a.748.748,0,0,0,.576.616,5.972,5.972,0,0,1,1.366.567.743.743,0,0,0,.806-.019c.334-.2.675-.39,1.008-.592a.313.313,0,0,1,.441.031c.485.492.976.977,1.461,1.468a1.22,1.22,0,0,1,.14.221m-13.569,5.6a6.111,6.111,0,1,0,6.164-6.078,6.127,6.127,0,0,0-6.164,6.078" transform="translate(-14.184 -7.802)" fill="#fa6d61"/>
            <path id="Trazado_913309" data-name="Trazado 913309" d="M34.19,27.875a6.111,6.111,0,1,1,6.1,6.145,6.119,6.119,0,0,1-6.1-6.145m6.158,5.056a5.025,5.025,0,1,0-5.07-4.908,5.041,5.041,0,0,0,5.07,4.908" transform="translate(-17.585 -11.211)" fill="#12263f"/>
            <path id="Trazado_913310" data-name="Trazado 913310" d="M41.5,34.078a5.025,5.025,0,1,1,4.977-5.1,5.032,5.032,0,0,1-4.977,5.1m3.746-5.295a3.8,3.8,0,0,0-4.812-3.378.565.565,0,0,1-.538-.035.5.5,0,0,0-.784.223c-.154.29-.3.584-.429.886a.558.558,0,0,0,.569.836c.329-.007.659-.029.986-.06.264-.025.5-.174.483-.438-.033-.44.246-.431.524-.452a2.717,2.717,0,0,1,2.913,2.5c.042.418.273.668.6.643s.509-.281.491-.72m-7.595.448c.019.226.02.347.041.465a3.82,3.82,0,0,0,4.795,3c.16-.044.3-.127.492.02a.5.5,0,0,0,.817-.2,9.334,9.334,0,0,0,.433-.886.561.561,0,0,0-.574-.835c-.314,0-.627.043-.942.064-.357.023-.569.205-.545.569.014.21-.073.235-.242.273a2.705,2.705,0,0,1-3.178-2.408c-.045-.471-.254-.716-.6-.671a.512.512,0,0,0-.5.609" transform="translate(-18.735 -12.359)" fill="#eae5ed"/>
            <path id="Trazado_913311" data-name="Trazado 913311" d="M47.561,30.088c.017.44-.156.694-.491.72s-.554-.224-.6-.643a2.717,2.717,0,0,0-2.913-2.495c-.277.02-.556.011-.524.452.02.264-.219.413-.483.438-.328.031-.657.053-.986.059A.558.558,0,0,1,41,27.784c.128-.3.276-.6.429-.886a.5.5,0,0,1,.784-.222.565.565,0,0,0,.537.035,3.8,3.8,0,0,1,4.812,3.377" transform="translate(-21.052 -13.664)" fill="#12263f"/>
            <path id="Trazado_913312" data-name="Trazado 913312" d="M38.941,34.09a.512.512,0,0,1,.5-.609c.348-.045.557.2.6.671a2.705,2.705,0,0,0,3.178,2.408c.169-.038.256-.063.242-.273-.024-.363.187-.545.545-.569.314-.021.627-.06.942-.064a.561.561,0,0,1,.574.835,9.334,9.334,0,0,1-.433.886.5.5,0,0,1-.817.2c-.193-.147-.332-.064-.492-.02a3.82,3.82,0,0,1-4.795-3c-.021-.118-.022-.238-.041-.465" transform="translate(-20.027 -17.218)" fill="#12263f"/>
          </g>
        </g>
      </g>
    </g>
  </g>
</svg>
