<svg xmlns="http://www.w3.org/2000/svg" xmlns:xlink="http://www.w3.org/1999/xlink" width="56.8" height="70.791" viewBox="0 0 56.8 70.791">
  <defs>
    <clipPath id="clip-path">
      <rect id="Rectángulo_403558" data-name="Rectángulo 403558" width="48.675" height="63.142" fill="none"/>
    </clipPath>
  </defs>
  <g id="Grupo_1103157" data-name="Grupo 1103157" transform="translate(-837.125 -4607.965)">
    <g id="Grupo_1103156" data-name="Grupo 1103156">
      <g id="Grupo_1103155" data-name="Grupo 1103155">
        <ellipse id="Elipse_11573" data-name="Elipse 11573" cx="20.631" cy="20.631" rx="20.631" ry="20.631" transform="translate(852.662 4637.493)" fill="#fa6d61"/>
        <g id="Grupo_1102484" data-name="Grupo 1102484" transform="translate(837.125 4607.965)">
          <g id="Grupo_1102403" data-name="Grupo 1102403" clip-path="url(#clip-path)">
            <path id="Trazado_912850" data-name="Trazado 912850" d="M70.565,128.4H41.645a1.026,1.026,0,1,1,0-2.051h28.92a1.026,1.026,0,0,1,0,2.051" transform="translate(-22.916 -71.281)" fill="#7589e3"/>
            <path id="Trazado_912851" data-name="Trazado 912851" d="M38.437,142.224H18.846a1.026,1.026,0,1,1,0-2.051H38.437a1.026,1.026,0,1,1,0,2.051" transform="translate(-10.054 -79.082)" fill="#7589e3"/>
            <path id="Trazado_912852" data-name="Trazado 912852" d="M31.606,35.9H15.653A21.632,21.632,0,0,0,2,56C2,67.947,11.684,68.98,23.63,68.98S45.258,67.947,45.258,56A21.63,21.63,0,0,0,31.606,35.9M29.549,55.505A4.926,4.926,0,0,1,25.1,59.886l.014,2.767h-2.67V60.106a12.3,12.3,0,0,1-4.759-1.226l1.007-3.122a10.739,10.739,0,0,0,2.6.938c1.4.288,3.818.211,4.115-1.1.288-1.273-.54-1.773-2.266-2.266s-4.738-1.9-5.012-4.231c-.3-2.533.849-4.492,4.272-5.217v-2.67h2.67V43.55a11.652,11.652,0,0,1,3.766.869l-.644,2.869a14.353,14.353,0,0,0-4.353-.739c-1.767.123-1.885,1.916-.63,2.718a38.3,38.3,0,0,0,4.369,2.007,4.119,4.119,0,0,1,1.971,4.231" transform="translate(-1.128 -20.254)" fill="#94afea"/>
            <path id="Trazado_912853" data-name="Trazado 912853" d="M22.5,68.723C10.644,68.723,0,67.664,0,54.874A22.392,22.392,0,0,1,14.2,33.961a.874.874,0,0,1,.322-.061H30.477a.874.874,0,0,1,.322.061A22.39,22.39,0,0,1,45,54.874c0,12.79-10.643,13.849-22.5,13.849m-7.808-33.08A20.654,20.654,0,0,0,1.743,54.874c0,11.214,9,12.105,20.758,12.105s20.757-.891,20.757-12.105a20.653,20.653,0,0,0-12.95-19.231ZM23.984,62.4h-2.67a.872.872,0,0,1-.872-.872V59.773a11.532,11.532,0,0,1-4.346-1.28.872.872,0,0,1-.37-1.009l1.007-3.122a.872.872,0,0,1,1.244-.5,9.928,9.928,0,0,0,2.363.851,6.3,6.3,0,0,0,1.235.119c1.122,0,1.793-.289,1.854-.56.094-.416.162-.717-1.655-1.236-.873-.25-5.25-1.663-5.638-4.968-.354-3.008,1.156-5.117,4.266-6V40.08a.872.872,0,0,1,.872-.872h2.67a.871.871,0,0,1,.872.872v1.555a9.385,9.385,0,0,1,3.364.922.872.872,0,0,1,.381.925l-.645,2.869a.871.871,0,0,1-1.126.636,13.4,13.4,0,0,0-4.017-.7c-.211.015-.574.079-.642.346a.781.781,0,0,0,.421.767,19.558,19.558,0,0,0,3.093,1.451c.524.209.938.374,1.215.52a4.975,4.975,0,0,1,2.431,5.083A5.789,5.789,0,0,1,24.845,59.5l.01,2.024a.871.871,0,0,1-.872.876m-1.8-1.743h.923l-.01-1.89a.872.872,0,0,1,.8-.873A4.045,4.045,0,0,0,27.553,54.3a3.252,3.252,0,0,0-1.512-3.38c-.194-.1-.606-.267-1.044-.441a20.836,20.836,0,0,1-3.386-1.6,2.487,2.487,0,0,1-1.172-2.666,2.306,2.306,0,0,1,2.211-1.655,12.828,12.828,0,0,1,3.767.51l.285-1.269a14.2,14.2,0,0,0-2.827-.5.872.872,0,0,1-.8-.869v-1.47h-.927v1.8a.872.872,0,0,1-.691.853c-2.722.577-3.862,1.931-3.588,4.262.216,1.835,2.964,3.089,4.386,3.5,1.188.34,3.4.972,2.876,3.3-.275,1.219-1.571,1.919-3.555,1.919a8.126,8.126,0,0,1-1.586-.155,10.961,10.961,0,0,1-1.9-.59l-.479,1.485a13.2,13.2,0,0,0,3.749.791.872.872,0,0,1,.826.87Z" transform="translate(0 -19.126)"/>
            <path id="Trazado_912854" data-name="Trazado 912854" d="M38.474,2H26.965c0,3.664,1.479,8.944,3.825,11.45H44.455C46.8,10.944,48.28,5.664,48.28,2Z" transform="translate(-15.213 -1.128)" fill="#94afea"/>
            <path id="Trazado_912855" data-name="Trazado 912855" d="M43.327,13.194H29.662a.873.873,0,0,1-.637-.276C26.484,10.2,24.965,4.66,24.965.872A.872.872,0,0,1,25.837,0H47.152a.872.872,0,0,1,.872.872c0,3.788-1.519,9.329-4.061,12.046a.871.871,0,0,1-.637.276M30.054,11.45h12.88c1.9-2.26,3.121-6.511,3.318-9.707H26.736c.2,3.2,1.423,7.448,3.318,9.707" transform="translate(-14.085)"/>
          </g>
        </g>
      </g>
    </g>
  </g>
</svg>
