<svg id="Grupo_1102576" data-name="Grupo 1102576" xmlns="http://www.w3.org/2000/svg" xmlns:xlink="http://www.w3.org/1999/xlink" width="48.007" height="48.11" viewBox="0 0 48.007 48.11">
  <defs>
    <clipPath id="clip-path">
      <rect id="Rectángulo_403834" data-name="Rectángulo 403834" width="48.007" height="48.11" fill="#fa6d61"/>
    </clipPath>
  </defs>
  <g id="Grupo_1102575" data-name="Grupo 1102575" clip-path="url(#clip-path)">
    <path id="Trazado_913222" data-name="Trazado 913222" d="M.423,144.956c-.272-.248-.548-.532-.361-.916a1.524,1.524,0,0,1,.574-.478c.078-.051.214-.015.324-.015.25,0,.5,0,.808,0,.009-.2.024-.377.024-.556q0-3.311,0-6.623a3.954,3.954,0,0,1,.019-.516.613.613,0,0,1,.681-.57.617.617,0,0,1,.681.572,3.808,3.808,0,0,1,.021.515q0,3.288,0,6.576v.576H16.106v-.512q0-7.82,0-15.641c0-.716-.068-.787-.769-.787H3.97c-.715,0-.772.058-.773.779,0,1.644,0,3.288,0,4.932,0,.6-.259.882-.742.859-.415-.019-.649-.268-.655-.752-.012-1.033,0-2.066-.005-3.1,0-.72-.006-1.441,0-2.161a1.784,1.784,0,0,1,1.913-1.959c4.086-.008,8.172.012,12.258.021a.906.906,0,0,0,.141-.031v-.494q0-3.358,0-6.717a1.83,1.83,0,0,1,2.038-2.024q5.8,0,11.6,0a1.842,1.842,0,0,1,2.065,2.047q0,6.975,0,13.95v.6h.8q5.754,0,11.507,0a1.838,1.838,0,0,1,2.1,2.1q0,4.157,0,8.314v.6c.294,0,.54.007.785,0,.394-.014.771.018.944.443s-.068.709-.36.968ZM30.4,143.528v-.5q0-12.472,0-24.943c0-.687-.06-.746-.753-.746H18.283c-.723,0-.77.047-.77.776q0,12.448,0,24.9v.516Zm14.383-.008c.011-.132.028-.239.028-.346q0-4.3,0-8.594c0-.559-.089-.639-.668-.639q-5.776,0-11.553,0c-.616,0-.686.075-.686.718q0,4.2,0,8.406c0,.151.014.3.021.455Z" transform="translate(-0.001 -96.847)" fill="#fa6d61"/>
    <path id="Trazado_913223" data-name="Trazado 913223" d="M114.1,14.862c.333,0,.645-.012.956,0a.677.677,0,0,1,.713.706.662.662,0,0,1-.72.691q-5,.008-10,0a.663.663,0,0,1-.733-.678.685.685,0,0,1,.746-.721c.3-.011.591,0,.9,0a3.925,3.925,0,0,1,1.513-2.486,15.351,15.351,0,0,1,1.616-.818.932.932,0,0,0,.276-.337c.028-.044,0-.123.006-.185a1.5,1.5,0,0,0-1.1-1.92,3.631,3.631,0,0,1-2.267-3.721c.008-.5-.081-.737-.637-.877A3.34,3.34,0,0,1,103.03.6c.059-.464.42-.605.867-.6,1.941.009,3.882,0,5.823,0h6.386c.741,0,.97.232.983.985a3.325,3.325,0,0,1-2.652,3.632.525.525,0,0,0-.272.374c-.068.478-.026.978-.14,1.442a4.055,4.055,0,0,1-3.211,3.108v1.971a4.224,4.224,0,0,1,3.287,3.345M107.411,1.413c0,1.5,0,2.918,0,4.34a1.5,1.5,0,0,0,.047.324,2.668,2.668,0,0,0,5.278-.56c.028-1.14.007-2.282.008-3.423V1.413h-5.334Zm5.163,13.429a2.633,2.633,0,0,0-5.1,0ZM105.959,3.195V1.414c-.473,0-.908,0-1.343,0a1.178,1.178,0,0,0-.179.028,1.684,1.684,0,0,0,1.522,1.752m8.222-.017a1.572,1.572,0,0,0,1.41-1.738h-1.41Z" transform="translate(-86.036 0)" fill="#fa6d61"/>
    <path id="Trazado_913224" data-name="Trazado 913224" d="M203.9,147.388c.132-.778.254-1.614.424-2.441a.691.691,0,0,0-.239-.736c-.563-.52-1.1-1.071-1.654-1.6-.258-.245-.469-.552-.278-.863a1.214,1.214,0,0,1,.722-.484c.748-.158,1.512-.249,2.273-.335a.7.7,0,0,0,.631-.456c.326-.71.656-1.422,1.047-2.1a1.043,1.043,0,0,1,.695-.5.956.956,0,0,1,.659.478c.394.691.733,1.415,1.066,2.139a.67.67,0,0,0,.6.428c.776.094,1.555.183,2.318.346a.724.724,0,0,1,.42,1.313c-.524.579-1.1,1.114-1.677,1.641a.679.679,0,0,0-.224.7c.141.753.253,1.511.4,2.263a.8.8,0,0,1-.25.888.785.785,0,0,1-.921-.032c-.676-.361-1.36-.706-2.027-1.081a.664.664,0,0,0-.734-.006q-1.064.594-2.158,1.135a.705.705,0,0,1-1.091-.709m5.576-1.166c-.1-.585-.157-1.093-.268-1.59a.952.952,0,0,1,.313-1.01c.391-.349.764-.718,1.225-1.153-.634-.091-1.123-.177-1.616-.228a1.01,1.01,0,0,1-.9-.634c-.211-.474-.457-.932-.721-1.463-.259.521-.5.959-.7,1.416a1.056,1.056,0,0,1-.968.687c-.484.044-.964.142-1.467.22.413.427.777.814,1.153,1.188a.9.9,0,0,1,.287.887c-.11.529-.178,1.067-.277,1.684.533-.28.995-.5,1.438-.76a.986.986,0,0,1,1.062,0c.447.251.907.479,1.439.759" transform="translate(-168.803 -115.178)" fill="#fa6d61"/>
    <path id="Trazado_913225" data-name="Trazado 913225" d="M24.244,104.44c.135-.806.294-1.667.411-2.535a.765.765,0,0,0-.184-.555c-.55-.578-1.157-1.1-1.692-1.694a1.251,1.251,0,0,1-.3-.812c.015-.353.354-.476.686-.523.774-.109,1.546-.239,2.323-.327a.7.7,0,0,0,.627-.458c.32-.7.675-1.375,1.007-2.066.153-.317.374-.622.731-.539a1.213,1.213,0,0,1,.686.537c.389.676.722,1.387,1.045,2.1a.665.665,0,0,0,.6.424c.776.1,1.549.219,2.323.328.329.047.674.159.693.514a1.245,1.245,0,0,1-.285.817,20.367,20.367,0,0,1-1.606,1.58.788.788,0,0,0-.276.854c.149.687.253,1.384.37,2.078.061.36.118.726-.237.985s-.677.1-1-.08c-.661-.355-1.318-.72-2-1.039a.837.837,0,0,0-.635,0c-.748.356-1.468.769-2.209,1.138a.7.7,0,0,1-1.08-.727m6.826-4.909c-.624-.09-1.1-.176-1.582-.222a1.023,1.023,0,0,1-.933-.659c-.2-.462-.446-.9-.712-1.434-.277.555-.522,1.006-.729,1.473a.98.98,0,0,1-.863.614c-.5.059-1.006.144-1.62.234.426.41.766.771,1.141,1.091a1.07,1.07,0,0,1,.364,1.131c-.1.486-.173.976-.271,1.538.536-.281,1.011-.513,1.47-.775a.96.96,0,0,1,1.018,0c.462.256.935.494,1.47.775-.1-.558-.171-1.048-.27-1.533a1.064,1.064,0,0,1,.364-1.13c.377-.317.717-.68,1.152-1.1" transform="translate(-18.779 -79.29)" fill="#fa6d61"/>
  </g>
</svg>
