<svg xmlns="http://www.w3.org/2000/svg" xmlns:xlink="http://www.w3.org/1999/xlink" width="266.898" height="159.157" viewBox="0 0 266.898 159.157">
  <defs>
    <clipPath id="clip-path">
      <rect id="Rectángulo_404170" data-name="Rectángulo 404170" width="266.898" height="159.157" transform="translate(0 0)" fill="none"/>
    </clipPath>
  </defs>
  <g id="Grupo_1103023" data-name="Grupo 1103023" clip-path="url(#clip-path)">
    <line id="Línea_778" data-name="Línea 778" x2="266.859" transform="translate(0.02 118.037)" fill="none" stroke="#1d1d1b" stroke-linecap="round" stroke-linejoin="round" stroke-width="0.5"/>
    <path id="Trazado_913618" data-name="Trazado 913618" d="M459.813,143.316V128.73A40.024,40.024,0,0,0,446.5,131l4.845,13.764a25.4,25.4,0,0,1,8.472-1.452" transform="translate(-411.049 -118.51)" fill="#99a2ac"/>
    <path id="Trazado_913619" data-name="Trazado 913619" d="M654.349,168.838a40.108,40.108,0,0,0-40.107-40.108v14.586A25.5,25.5,0,0,1,631.618,187.5l9.945,10.683a39.99,39.99,0,0,0,12.785-29.35" transform="translate(-565.477 -118.51)" fill="#12263f"/>
    <path id="Trazado_913620" data-name="Trazado 913620" d="M149.142,489.017A25.506,25.506,0,0,1,125.4,454.146L111.826,448.8a40.1,40.1,0,0,0,64.638,44.048l-9.945-10.683a25.422,25.422,0,0,1-17.378,6.854" transform="translate(-100.378 -413.168)" fill="#99a2ac"/>
    <path id="Trazado_913621" data-name="Trazado 913621" d="M168.2,157.369a40.207,40.207,0,0,0-24,23.136l13.577,5.348a25.643,25.643,0,0,1,15.267-14.719Z" transform="translate(-132.749 -144.875)" fill="#12263f"/>
    <rect id="Rectángulo_404133" data-name="Rectángulo 404133" width="14.094" height="3.434" transform="translate(94.147 18.351)" fill="#4b96e3"/>
    <rect id="Rectángulo_404134" data-name="Rectángulo 404134" width="24.008" height="3.434" transform="translate(94.147 23.309)" fill="#4b96e3"/>
    <path id="Trazado_913622" data-name="Trazado 913622" d="M955.917,252.781h-5.738l-11.933,11.933" transform="translate(-863.76 -232.712)" fill="none" stroke="#1d1d1b" stroke-linecap="round" stroke-linejoin="round" stroke-width="0.5"/>
    <path id="Trazado_913623" data-name="Trazado 913623" d="M931.675,395.9a.62.62,0,1,1-.62-.62.62.62,0,0,1,.62.62" transform="translate(-856.569 -363.901)" fill="#1d1d1b"/>
    <rect id="Rectángulo_404135" data-name="Rectángulo 404135" width="14.094" height="3.434" transform="translate(61.553 0)" fill="#4b96e3"/>
    <rect id="Rectángulo_404136" data-name="Rectángulo 404136" width="14.094" height="3.434" transform="translate(61.553 4.958)" fill="#4b96e3"/>
    <path id="Trazado_913624" data-name="Trazado 913624" d="M545.354,21.621h-5.738L527.682,33.554" transform="translate(-485.79 -19.904)" fill="none" stroke="#1d1d1b" stroke-linecap="round" stroke-linejoin="round" stroke-width="0.5"/>
    <path id="Trazado_913625" data-name="Trazado 913625" d="M521.111,164.743a.62.62,0,1,1-.62-.62.62.62,0,0,1,.62.62" transform="translate(-478.599 -151.093)" fill="#1d1d1b"/>
    <path id="Trazado_913626" data-name="Trazado 913626" d="M387.192,1906.876c0,2.235-9.494,4.047-21.206,4.047s-21.206-1.812-21.206-4.047,9.494-4.047,21.206-4.047,21.206,1.812,21.206,4.047" transform="translate(-317.409 -1751.766)" fill="#1d1d1b"/>
    <path id="Trazado_913627" data-name="Trazado 913627" d="M392.484,1081.124l.277,2.168s.369-.092.6.969,6.32,24.864,6.32,26.432.646,21.45.784,23.3.646,8.626.554,8.857a2.393,2.393,0,0,1-.323.507s.784.369.6.876a1,1,0,0,0,.83.369c.646.046,1.015-.646,2.814-.415s1.984,1.061,1.891,1.707-1.845,2.26-3.044,2.676-1.661.323-2.168.876-1.476,2.076-3.275,2.26a3.291,3.291,0,0,1-3.137-1.107c-.185-.415-.692-3-.692-3a.92.92,0,0,1-.876-1.153,16.222,16.222,0,0,0-.323-5.028,111.513,111.513,0,0,1-2.491-15.868c-.277-5.3.507-9.134,0-9.918s-6.689-15.038-6.689-15.038-1.753,18.037-2.03,18.913-.738,2.076-.738,2.076-.185,14.577,0,16.975.692,5.028,1.107,5.582,2.214.646,3.183.969,1.984.415,2.168,1.107a1.751,1.751,0,0,1-.969,2.26,8.724,8.724,0,0,1-3.69.507,8.307,8.307,0,0,0-3.414.554,6.454,6.454,0,0,1-3.921.969c-1.845-.184-1.753-.738-1.845-1.384a32.244,32.244,0,0,1,.646-4.244s-.646,0-.323-.784.138-1.015,0-1.753-2.214-14.531-1.891-17.529.369-5.72.369-5.72-.206-17.806-.4-20.435-1.35-8.165-1.442-10.333,0-6.412,0-6.412l21.5-1.568Z" transform="translate(-341.455 -994.573)" fill="#6b8be8"/>
    <path id="Trazado_913628" data-name="Trazado 913628" d="M595.033,1084.477q1.443-.183,3.04-.41l-.326-3.09-3.078.224Z" transform="translate(-547.459 -995.161)" fill="none" stroke="#1d1d1b" stroke-linecap="round" stroke-linejoin="round" stroke-width="0.5"/>
    <path id="Trazado_913629" data-name="Trazado 913629" d="M483.392,1085.913l-7.106.518.259,3.45c1.895-.083,4.211-.256,7.036-.569Z" transform="translate(-438.474 -999.704)" fill="none" stroke="#1d1d1b" stroke-linecap="round" stroke-linejoin="round" stroke-width="0.5"/>
    <path id="Trazado_913630" data-name="Trazado 913630" d="M384.778,1095.178l-4.66.34v2.449s1.052.458,4.66.5Z" transform="translate(-349.941 -1008.233)" fill="none" stroke="#1d1d1b" stroke-linecap="round" stroke-linejoin="round" stroke-width="0.5"/>
    <path id="Trazado_913631" data-name="Trazado 913631" d="M471.8,1260l-2.353-5.489-3.321-1.015" transform="translate(-429.124 -1153.981)" fill="none" stroke="#1d1d1b" stroke-linecap="round" stroke-linejoin="round" stroke-width="0.5"/>
    <path id="Trazado_913632" data-name="Trazado 913632" d="M417.9,1880.046s1.682,2.2,7.645-1.137" transform="translate(-384.725 -1729.745)" fill="none" stroke="#1d1d1b" stroke-linecap="round" stroke-linejoin="round" stroke-width="0.5"/>
    <path id="Trazado_913633" data-name="Trazado 913633" d="M668.336,1888.469s3.644,1.153,6.781-3.367" transform="translate(-615.278 -1735.447)" fill="none" stroke="#1d1d1b" stroke-linecap="round" stroke-linejoin="round" stroke-width="0.5"/>
    <path id="Trazado_913634" data-name="Trazado 913634" d="M676.107,1904a4.382,4.382,0,0,0,3.3.545c1.845-.461,3-2.03,4.521-2.814s3.241-1.4,3.858-2.775" transform="translate(-622.432 -1748.202)" fill="none" stroke="#1d1d1b" stroke-linecap="round" stroke-linejoin="round" stroke-width="0.5"/>
    <path id="Trazado_913635" data-name="Trazado 913635" d="M409.766,1922.089s.046.969,3.367.369,3.829-.923,6.412-1.061,3.7-.369,4.155-1.43" transform="translate(-377.235 -1767.544)" fill="none" stroke="#1d1d1b" stroke-linecap="round" stroke-linejoin="round" stroke-width="0.5"/>
    <path id="Trazado_913636" data-name="Trazado 913636" d="M828.4,599.9a40.506,40.506,0,0,1,4.25-4.682c1.43-1.107,2.814-2.445,3.229-2.4s.461.646,0,1.153-2.03,2.122-2.03,2.122,1.015-.255,1.292.265a1.392,1.392,0,0,1,0,1.119,1.127,1.127,0,0,1,.323.969s.092,1.061-.277,1.453-1.615.392-1.615.392A16.084,16.084,0,0,1,830.3,602l-2.168-1.661Z" transform="translate(-762.383 -545.756)" fill="#a4c3f2"/>
    <line id="Línea_779" data-name="Línea 779" x1="0.646" y1="0.07" transform="translate(72.109 51.654)" fill="none" stroke="#1d1d1b" stroke-linecap="round" stroke-linejoin="round" stroke-width="0.5"/>
    <line id="Línea_780" data-name="Línea 780" x1="0.969" transform="translate(72.109 52.692)" fill="none" stroke="#1d1d1b" stroke-linecap="round" stroke-linejoin="round" stroke-width="0.5"/>
    <line id="Línea_781" data-name="Línea 781" y1="0.646" x2="1.246" transform="translate(71.187 53.892)" fill="none" stroke="#1d1d1b" stroke-linecap="round" stroke-linejoin="round" stroke-width="0.5"/>
    <path id="Trazado_913637" data-name="Trazado 913637" d="M402.78,384.548s1.292,7.427,1.476,9.641H402.78s-.738,4.474-1.43,4.521a23.992,23.992,0,0,1-3.875-1.015l-1.384,3.183-7.242-2.491,2.168-4.659,9.918-10.656,1.661.692Z" transform="translate(-357.979 -352.66)" fill="#a4c3f2"/>
    <path id="Trazado_913638" data-name="Trazado 913638" d="M396.138,358.01a4.041,4.041,0,0,0,2.165.829,6.179,6.179,0,0,0,2.86-.414l.876-1.938s-.554-1.984.277-2.952,1.568-.323,1.43.738a4.691,4.691,0,0,0,2.03-2.445s1.892-.431,2.537-3.514l.669,4.01a3.531,3.531,0,0,0,2.237-3.218,5.131,5.131,0,0,0-1.476-3.875,11.538,11.538,0,0,0-5.074-1.615c-3.321-.369-6.043-.369-7.75,1.384s-2.353,6.735-2.03,8.534a38.174,38.174,0,0,0,1.249,4.476" transform="translate(-363.466 -316.156)" fill="#6b8be8"/>
    <path id="Trazado_913639" data-name="Trazado 913639" d="M479.853,557.638l-1.522-.83,1.145,1.7Z" transform="translate(-440.357 -512.604)" fill="#1d1d1b"/>
    <path id="Trazado_913640" data-name="Trazado 913640" d="M479.853,557.638l-1.522-.83,1.145,1.7Z" transform="translate(-440.357 -512.604)" fill="none" stroke="#1d1d1b" stroke-linecap="round" stroke-linejoin="round" stroke-width="0.5"/>
    <path id="Trazado_913641" data-name="Trazado 913641" d="M537.6,527.174a1.584,1.584,0,0,0,.876,1.292" transform="translate(-494.92 -485.322)" fill="none" stroke="#1d1d1b" stroke-linecap="round" stroke-linejoin="round" stroke-width="0.5"/>
    <path id="Trazado_913642" data-name="Trazado 913642" d="M485.885,508s.184.692.738.507" transform="translate(-447.311 -467.669)" fill="none" stroke="#1d1d1b" stroke-linecap="round" stroke-linejoin="round" stroke-width="0.5"/>
    <path id="Trazado_913643" data-name="Trazado 913643" d="M495.182,472.819s.507-.554.507.646" transform="translate(-455.87 -435.165)" fill="#1d1d1b"/>
    <path id="Trazado_913644" data-name="Trazado 913644" d="M495.182,472.819s.507-.554.507.646" transform="translate(-455.87 -435.165)" fill="none" stroke="#1d1d1b" stroke-linecap="round" stroke-linejoin="round" stroke-width="0.5"/>
    <path id="Trazado_913645" data-name="Trazado 913645" d="M312.487,559.713l9.226,2.768.369,2.814a21.593,21.593,0,0,1,2.768,1.384c.507.415,7.657,8.119,9.041,9.041s2.26,1.43,2.26,1.43.6-.876,1.891.554l9.272-8.349a3.757,3.757,0,0,1,3.091,2.906s-9.134,13.47-10.564,13.839-8.119-3.414-8.119-3.414.646,11.625,1.153,13.055a10.8,10.8,0,0,1,.784,3.6c-.046.83.138,2.168-1.015,2.491s-12.732,1.43-15.176,1.707-7.335-.092-8.119-.969.138-3.783-.369-5.72l-2.353-6.6s-1.015-18.59-.646-20.158,6.5-10.379,6.5-10.379" transform="translate(-281.617 -515.278)" fill="#95c1ee"/>
    <path id="Trazado_913646" data-name="Trazado 913646" d="M454.508,758.435l14.023,7.2v1.43Z" transform="translate(-418.425 -698.223)" fill="#1d1d1b"/>
    <path id="Trazado_913647" data-name="Trazado 913647" d="M454.508,758.435l14.023,7.2v1.43Z" transform="translate(-418.425 -698.223)" fill="none" stroke="#1d1d1b" stroke-linecap="round" stroke-linejoin="round" stroke-width="0.5"/>
    <path id="Trazado_913648" data-name="Trazado 913648" d="M316.217,727.058s1.43,10.148,1.522,12.409.507,6.366.646,7.335.092,4.105.092,4.105" transform="translate(-291.113 -669.338)" fill="none" stroke="#1d1d1b" stroke-linecap="round" stroke-linejoin="round" stroke-width="0.5"/>
    <path id="Trazado_913649" data-name="Trazado 913649" d="M802.159,704.015a5.377,5.377,0,0,1,3.6,3.284" transform="translate(-738.477 -648.124)" fill="none" stroke="#1d1d1b" stroke-linecap="round" stroke-linejoin="round" stroke-width="0.5"/>
    <line id="Línea_782" data-name="Línea 782" x2="1.661" y2="2.099" transform="translate(56.426 62.425)" fill="none" stroke="#1d1d1b" stroke-linecap="round" stroke-linejoin="round" stroke-width="0.5"/>
    <line id="Línea_783" data-name="Línea 783" x2="1.568" y2="2.652" transform="translate(54.534 61.872)" fill="none" stroke="#1d1d1b" stroke-linecap="round" stroke-linejoin="round" stroke-width="0.5"/>
    <line id="Línea_784" data-name="Línea 784" x1="9.825" y1="3.506" transform="translate(30.639 46.511)" fill="none" stroke="#1d1d1b" stroke-linecap="round" stroke-linejoin="round" stroke-width="0.5"/>
    <path id="Trazado_913650" data-name="Trazado 913650" d="M844.782,713.014a.483.483,0,1,1-.483-.483A.483.483,0,0,1,844.782,713.014Z" transform="translate(-776.827 -655.964)" fill="none" stroke="#1d1d1b" stroke-linecap="round" stroke-linejoin="round" stroke-width="0.5"/>
    <path id="Trazado_913651" data-name="Trazado 913651" d="M564.912,380.255a2.316,2.316,0,0,0,1.43-2.138" transform="translate(-520.065 -348.099)" fill="none" stroke="#1d1d1b" stroke-linecap="round" stroke-linejoin="round" stroke-width="0.5"/>
    <path id="Trazado_913652" data-name="Trazado 913652" d="M482.667,449.313s-1.348.812-4.336.094" transform="translate(-440.357 -413.642)" fill="none" stroke="#1d1d1b" stroke-linecap="round" stroke-linejoin="round" stroke-width="0.5"/>
    <path id="Trazado_913653" data-name="Trazado 913653" d="M562.186,488.718a.257.257,0,1,1-.257-.258.258.258,0,0,1,.257.258" transform="translate(-517.081 -449.682)" fill="#1d1d1b"/>
    <path id="Trazado_913654" data-name="Trazado 913654" d="M551.3,470.827c-.141.092-.453-.155-.84-.283s-.785-.113-.844-.272.434-.508,1.034-.31.791.772.65.865" transform="translate(-505.982 -432.598)" fill="#1d1d1b"/>
    <path id="Trazado_913655" data-name="Trazado 913655" d="M1407.534,1906.876c0,2.235-7.9,4.047-17.636,4.047s-17.636-1.812-17.636-4.047,7.9-4.047,17.636-4.047,17.636,1.812,17.636,4.047" transform="translate(-1263.32 -1751.766)" fill="#1d1d1b"/>
    <rect id="Rectángulo_404137" data-name="Rectángulo 404137" width="6.482" height="25.759" transform="translate(93.654 62.409)" fill="#12263f"/>
    <rect id="Rectángulo_404138" data-name="Rectángulo 404138" width="6.482" height="30.162" transform="translate(103.569 58.006)" fill="#99a2ac"/>
    <rect id="Rectángulo_404139" data-name="Rectángulo 404139" width="6.482" height="30.71" transform="translate(113.484 57.458)" fill="#12263f"/>
    <rect id="Rectángulo_404140" data-name="Rectángulo 404140" width="6.482" height="35.639" transform="translate(123.4 52.53)" fill="#99a2ac"/>
    <rect id="Rectángulo_404141" data-name="Rectángulo 404141" width="6.482" height="40.063" transform="translate(133.315 48.105)" fill="#12263f"/>
    <rect id="Rectángulo_404142" data-name="Rectángulo 404142" width="6.482" height="45.889" transform="translate(143.231 42.28)" fill="#99a2ac"/>
    <rect id="Rectángulo_404143" data-name="Rectángulo 404143" width="6.482" height="54.326" transform="translate(153.146 33.842)" fill="#12263f"/>
    <rect id="Rectángulo_404144" data-name="Rectángulo 404144" width="6.482" height="67.593" transform="translate(163.061 20.576)" fill="#99a2ac"/>
    <rect id="Rectángulo_404145" data-name="Rectángulo 404145" width="6.482" height="79.272" transform="translate(172.977 8.896)" fill="#12263f"/>
    <rect id="Rectángulo_404146" data-name="Rectángulo 404146" width="14.094" height="3.434" transform="translate(83.603 104.584) rotate(-45)" fill="#4b96e3"/>
    <path id="Trazado_913656" data-name="Trazado 913656" d="M1083.676,1131.378l14.254-14.254V1112.7" transform="translate(-997.645 -1024.367)" fill="none" stroke="#1d1d1b" stroke-linecap="round" stroke-linejoin="round" stroke-width="0.5"/>
    <rect id="Rectángulo_404147" data-name="Rectángulo 404147" width="14.094" height="3.434" transform="translate(93.369 104.584) rotate(-45)" fill="#4b96e3"/>
    <path id="Trazado_913657" data-name="Trazado 913657" d="M1206.687,1131.378l14.254-14.254V1112.7" transform="translate(-1110.89 -1024.367)" fill="none" stroke="#1d1d1b" stroke-linecap="round" stroke-linejoin="round" stroke-width="0.5"/>
    <rect id="Rectángulo_404148" data-name="Rectángulo 404148" width="14.094" height="3.434" transform="translate(103.272 104.584) rotate(-45)" fill="#4b96e3"/>
    <path id="Trazado_913658" data-name="Trazado 913658" d="M1331.432,1131.378l14.254-14.254V1112.7" transform="translate(-1225.732 -1024.367)" fill="none" stroke="#1d1d1b" stroke-linecap="round" stroke-linejoin="round" stroke-width="0.5"/>
    <rect id="Rectángulo_404149" data-name="Rectángulo 404149" width="14.094" height="3.434" transform="translate(113.176 104.584) rotate(-45)" fill="#4b96e3"/>
    <path id="Trazado_913659" data-name="Trazado 913659" d="M1456.178,1131.378l14.254-14.254V1112.7" transform="translate(-1340.574 -1024.367)" fill="none" stroke="#1d1d1b" stroke-linecap="round" stroke-linejoin="round" stroke-width="0.5"/>
    <rect id="Rectángulo_404150" data-name="Rectángulo 404150" width="14.094" height="3.434" transform="translate(123.079 104.584) rotate(-45)" fill="#4b96e3"/>
    <path id="Trazado_913660" data-name="Trazado 913660" d="M1580.923,1131.378l14.254-14.254V1112.7" transform="translate(-1455.416 -1024.367)" fill="none" stroke="#1d1d1b" stroke-linecap="round" stroke-linejoin="round" stroke-width="0.5"/>
    <rect id="Rectángulo_404151" data-name="Rectángulo 404151" width="14.094" height="3.434" transform="translate(132.982 104.584) rotate(-45)" fill="#4b96e3"/>
    <path id="Trazado_913661" data-name="Trazado 913661" d="M1705.668,1131.378l14.254-14.254V1112.7" transform="translate(-1570.258 -1024.367)" fill="none" stroke="#1d1d1b" stroke-linecap="round" stroke-linejoin="round" stroke-width="0.5"/>
    <rect id="Rectángulo_404152" data-name="Rectángulo 404152" width="14.094" height="3.434" transform="translate(142.886 104.584) rotate(-45)" fill="#4b96e3"/>
    <path id="Trazado_913662" data-name="Trazado 913662" d="M1830.414,1131.378l14.254-14.254V1112.7" transform="translate(-1685.1 -1024.367)" fill="none" stroke="#1d1d1b" stroke-linecap="round" stroke-linejoin="round" stroke-width="0.5"/>
    <rect id="Rectángulo_404153" data-name="Rectángulo 404153" width="14.094" height="3.434" transform="translate(152.789 104.584) rotate(-45)" fill="#4b96e3"/>
    <path id="Trazado_913663" data-name="Trazado 913663" d="M1955.159,1131.378l14.254-14.254V1112.7" transform="translate(-1799.942 -1024.367)" fill="none" stroke="#1d1d1b" stroke-linecap="round" stroke-linejoin="round" stroke-width="0.5"/>
    <rect id="Rectángulo_404154" data-name="Rectángulo 404154" width="14.094" height="3.434" transform="translate(162.692 104.584) rotate(-45)" fill="#4b96e3"/>
    <path id="Trazado_913664" data-name="Trazado 913664" d="M2079.9,1131.378l14.254-14.254V1112.7" transform="translate(-1914.785 -1024.367)" fill="none" stroke="#1d1d1b" stroke-linecap="round" stroke-linejoin="round" stroke-width="0.5"/>
    <rect id="Rectángulo_404155" data-name="Rectángulo 404155" width="14.094" height="3.434" transform="translate(140.915 5.434)" fill="#4b96e3"/>
    <rect id="Rectángulo_404156" data-name="Rectángulo 404156" width="24.008" height="3.434" transform="translate(131.001 10.392)" fill="#4b96e3"/>
    <path id="Trazado_913665" data-name="Trazado 913665" d="M1977.61,90.075h5.738l11.933,11.933" transform="translate(-1820.611 -82.923)" fill="none" stroke="#1d1d1b" stroke-linecap="round" stroke-linejoin="round" stroke-width="0.5"/>
    <path id="Trazado_913666" data-name="Trazado 913666" d="M2192.393,233.2a.62.62,0,1,0,.62-.62.62.62,0,0,0-.62.62" transform="translate(-2018.343 -214.112)" fill="#1d1d1b"/>
    <path id="Trazado_913667" data-name="Trazado 913667" d="M1628.762,1851.843s-.742,3.043-.742,3.583a9.154,9.154,0,0,1,0,2.361,33.269,33.269,0,0,0-.337,3.576l-4.655-.54a47.189,47.189,0,0,1,0-5.4c.2-.945.536-3.99.536-3.99Z" transform="translate(-1494.095 -1704.453)" fill="#ffbe01"/>
    <path id="Trazado_913668" data-name="Trazado 913668" d="M1610.928,1920.062s1.829-1.08,4.894,0l.164-1.147s.313.337.325,1.619.147,2.766-.865,3.1-3.907.607-4.888,0-.712-2.969-.442-3.711.787-2.092.787-2.092Z" transform="translate(-1482.061 -1765.582)" fill="#6b8be8"/>
    <path id="Trazado_913669" data-name="Trazado 913669" d="M1610.21,1970.044s-.116,1.281,1.549,1.371,3.73-.239,4.273-.686a1.566,1.566,0,0,0,.595-.948" transform="translate(-1482.376 -1813.404)" fill="none" stroke="#1d1d1b" stroke-linecap="round" stroke-linejoin="round" stroke-width="0.5"/>
    <path id="Trazado_913670" data-name="Trazado 913670" d="M1618.072,1949.218s-.379-2.281.316-3.338" transform="translate(-1489.521 -1791.399)" fill="none" stroke="#1d1d1b" stroke-linecap="round" stroke-linejoin="round" stroke-width="0.5"/>
    <path id="Trazado_913671" data-name="Trazado 913671" d="M1684.9,1945.88a5.782,5.782,0,0,1,.268,2.429" transform="translate(-1551.136 -1791.399)" fill="none" stroke="#1d1d1b" stroke-linecap="round" stroke-linejoin="round" stroke-width="0.5"/>
    <path id="Trazado_913672" data-name="Trazado 913672" d="M1630.073,1851.954s-.073.121,1.007.391a30.642,30.642,0,0,0,3.846.4l.4-.906-5.2-.407Z" transform="translate(-1500.663 -1704.454)" fill="#1d1d1b"/>
    <path id="Trazado_913673" data-name="Trazado 913673" d="M1524.3,1851.466s.336,3.114.265,3.649a9.155,9.155,0,0,0-.31,2.341,33.3,33.3,0,0,1-.135,3.589l4.686.076a47.225,47.225,0,0,0,.709-5.35c-.077-.963-.007-4.025-.007-4.025Z" transform="translate(-1403.125 -1704.481)" fill="#ffbe01"/>
    <path id="Trazado_913674" data-name="Trazado 913674" d="M1522.126,1924.048s-1.672-1.31-4.852-.643l-.011-1.159s-.354.293-.535,1.563-.509,2.723.45,3.19,3.793,1.115,4.846.642,1.1-2.849.926-3.62-.506-2.177-.506-2.177Z" transform="translate(-1396.13 -1769.272)" fill="#6b8be8"/>
    <path id="Trazado_913675" data-name="Trazado 913675" d="M1516.524,1973.086a4.555,4.555,0,0,0,3.006,1.179,6.881,6.881,0,0,0,3.177-.271" transform="translate(-1396.13 -1816.446)" fill="none" stroke="#1d1d1b" stroke-linecap="round" stroke-linejoin="round" stroke-width="0.5"/>
    <path id="Trazado_913676" data-name="Trazado 913676" d="M1519.847,1941.507s-.785,1.958-.441,2.776" transform="translate(-1398.703 -1787.373)" fill="none" stroke="#1d1d1b" stroke-linecap="round" stroke-linejoin="round" stroke-width="0.5"/>
    <path id="Trazado_913677" data-name="Trazado 913677" d="M1587.089,1949.6a7.552,7.552,0,0,1,0,2.941" transform="translate(-1461.093 -1794.828)" fill="none" stroke="#1d1d1b" stroke-linecap="round" stroke-linejoin="round" stroke-width="0.5"/>
    <path id="Trazado_913678" data-name="Trazado 913678" d="M1527.828,1860.182l.1,1.084s3.072.947,4.971,0l.02-1.559Z" transform="translate(-1406.536 -1712.068)" fill="#1d1d1b"/>
    <path id="Trazado_913679" data-name="Trazado 913679" d="M1568.848,542.812c.2,1.417-.472,6.949-1.349,7.421a3.3,3.3,0,0,1-2.226,0v2.092h-7.489v-7.759Z" transform="translate(-1434.114 -499.719)" fill="#ffbe01"/>
    <path id="Trazado_913680" data-name="Trazado 913680" d="M1652.115,622.25V621.04l.879,1.4Z" transform="translate(-1520.956 -571.736)" fill="#1d1d1b"/>
    <path id="Trazado_913681" data-name="Trazado 913681" d="M1652.115,622.25V621.04l.879,1.4Z" transform="translate(-1520.956 -571.736)" fill="none" stroke="#1d1d1b" stroke-linecap="round" stroke-linejoin="round" stroke-width="0.5"/>
    <path id="Trazado_913682" data-name="Trazado 913682" d="M1448.677,372.8a.684.684,0,0,0,.82-.181.977.977,0,0,0,.183-.945,3.067,3.067,0,0,0,1.223-.056,1.465,1.465,0,0,0,.874-1.082,1.248,1.248,0,0,0,1.146-.1,1.23,1.23,0,0,0,.295-.663c.077-.35.258-.712.336-1.062a.647.647,0,0,0,.828.126,1.884,1.884,0,0,0,.614-.67c.285-.437.756-.9,1.041-1.338a.6.6,0,0,0,1-.136,1.152,1.152,0,0,0,.041-.459c-.022-.473-.014-.952-.036-1.425a.733.733,0,0,0,.862.006,2,2,0,0,0,.858-1.823,5.9,5.9,0,0,0-.579-2.023c-.084-.2-.037-.277-.12-.476a.272.272,0,0,0,.42-.042.687.687,0,0,0,.076-.477,3.787,3.787,0,0,0-1.457-2.879.266.266,0,0,0,.2-.338.694.694,0,0,0-.276-.346,3.737,3.737,0,0,0-1.114-.627c.249-.291,0-.733-.268-1.006a7.351,7.351,0,0,0-3.37-1.88,11.031,11.031,0,0,0-3.793-.223c-.022-.488-.537-.8-1.008-.928a4.258,4.258,0,0,0-3.989.926c.066-.44-.487-.777-.912-.647a1.328,1.328,0,0,0-.788.955,3.789,3.789,0,0,0-2.366.146,1.009,1.009,0,0,0-.435.4c-.092.178.045.448.171.6a4.619,4.619,0,0,0-3.081,1.175,1.3,1.3,0,0,0-.345.506c-.063.2.108.468.247.62a4.613,4.613,0,0,0-1.98,2.126,2.715,2.715,0,0,0-.411,1.592c.075.552.618,1.2,1.173,1.141a1.071,1.071,0,0,0-.2,1.493,3.5,3.5,0,0,0-1.313,2.7,1.684,1.684,0,0,0,.174.823.842.842,0,0,0,.674.454,2.555,2.555,0,0,0,1.04,2.586,3.686,3.686,0,0,0,.422,1.765,1.7,1.7,0,0,0,.9.788.846.846,0,0,0,1.027-.426.864.864,0,0,0,1.706.145.929.929,0,0,0,.7.616.8.8,0,0,0,.761-.4,1.307,1.307,0,0,0,1.671.328.9.9,0,0,0,.944.806,20.207,20.207,0,0,1,4.274-.3,3.574,3.574,0,0,1,1.134.133" transform="translate(-1319.466 -323.677)" fill="#fa6d61"/>
    <path id="Trazado_913683" data-name="Trazado 913683" d="M1866.569,414.849l-1.147-2.529s.337-1.857,1.147-2.4a1.589,1.589,0,0,1,1.349-.337s3.643-3.576,4.183-3.643.607.742.337,1.214-2.361,3.236-2.361,3.236a4.7,4.7,0,0,0,.877,1.216c.337.2,1.793,1.012,1.638,1.484s-.424,1.754-1.1,1.754l-1.417.944Z" transform="translate(-1717.329 -373.712)" fill="#ffbe01"/>
    <line id="Línea_785" data-name="Línea 785" x1="1.552" y2="1.754" transform="translate(149.037 35.874)" fill="none" stroke="#1d1d1b" stroke-linecap="round" stroke-linejoin="round" stroke-width="0.5"/>
    <path id="Trazado_913684" data-name="Trazado 913684" d="M1405.96,1231.606c-.067.2-.135,6.747.337,7.219a3.834,3.834,0,0,0,1.282.742s.742.945,1.552.877,1.687-.742,1.687-1.349-1.214-1.214-1.214-1.214l.675-4.183-.135-3.373h-4.231Z" transform="translate(-1294.3 -1132.65)" fill="#ffbe01"/>
    <path id="Trazado_913685" data-name="Trazado 913685" d="M1427.7,1246.471a4.232,4.232,0,0,1-.516,3.508v2.631s1.484.877,1.417,1.147-.707.81-.707.81l-.979-.135" transform="translate(-1313.63 -1147.515)" fill="none" stroke="#1d1d1b" stroke-linecap="round" stroke-linejoin="round" stroke-width="0.5"/>
    <path id="Trazado_913686" data-name="Trazado 913686" d="M1437.547,1328.387s1.517.446,1.652.716a4.02,4.02,0,0,1,0,1.288" transform="translate(-1323.422 -1222.928)" fill="none" stroke="#1d1d1b" stroke-linecap="round" stroke-linejoin="round" stroke-width="0.5"/>
    <path id="Trazado_913687" data-name="Trazado 913687" d="M1471.1,1148.722c-.068-2.092-.2-5.262,0-9.041s4.858-16.867,4.655-26.607a44.554,44.554,0,0,0-1.481-11.288c-15.485,2.679-23.686.571-25.6-.041.207,2.574.666,8.441.971,13.581.4,6.814,4.048,20.982,4.048,20.982s-.607,2.631-.877,4.723.135,14.978.135,14.978a3.494,3.494,0,0,1-.607.81c-.4.4-.135,1.889,0,3.1s.135,1.552,3.036,2.631,6.409-.808,6.409-.808,0-2.97-.068-3.645a.664.664,0,0,0-.742-.607s.742-12.144.54-14.033a21.984,21.984,0,0,1,.675-5.465l1.147,5.33a12.951,12.951,0,0,0-.607,2.5c-.068.944-.135,10.322-.135,10.322l-.4.607v3.778a4.152,4.152,0,0,0,1.754,1.08,30.972,30.972,0,0,0,5.6,0c1.417-.068,1.552-.945,1.484-2.7s-.675-1.417-.675-1.417.81-6.679.742-8.771" transform="translate(-1333.663 -1014.279)" fill="#8ab2ee"/>
    <path id="Trazado_913688" data-name="Trazado 913688" d="M1473.014,1025.349a14.465,14.465,0,0,0-.947-2.584l-.945-1.889-17.609-2.159-6.207,5.262s.041.491.108,1.329c1.914.612,10.114,2.72,25.6.041" transform="translate(-1332.407 -937.842)" fill="#6b8be8"/>
    <rect id="Rectángulo_404157" data-name="Rectángulo 404157" width="1.214" height="4.252" transform="translate(119.285 84.854)" fill="#8ab2ee"/>
    <rect id="Rectángulo_404158" data-name="Rectángulo 404158" width="1.214" height="4.252" transform="translate(135.949 84.854)" fill="#8ab2ee"/>
    <path id="Trazado_913689" data-name="Trazado 913689" d="M1395.815,574.739s-3.006.539-4.761-.271v-1.282a1.968,1.968,0,0,1-.742-1.619c-.067-1.214.607-10.66.54-14.64s-.365-16.6.694-19.835,1.869-3.711,4.568-4.723a21.936,21.936,0,0,0,3.643-1.619s-.472-1.282.337-1.754a16.291,16.291,0,0,1,7.016-1.484c3.643-.067,4.925.675,5.6,1.214a4.429,4.429,0,0,1,1.08,1.687,40.866,40.866,0,0,0,5.441,1.619,74.56,74.56,0,0,0,8.457-.2l.877-14.505a6.148,6.148,0,0,1,4.723.877s.135,14.775,0,16.529-2.226,2.5-3.913,3.1-10.795,2.7-10.795,2.7l.651,4.25-.583,2.564s1.822,11.334,1.957,12.279-1.012,1.417-1.012,1.417-9.175.81-11.4.877-8.973.067-8.973.067l-2.766.877s-.691,10.52-.637,11.875" transform="translate(-1279.933 -476.12)" fill="#a4c3f2"/>
    <path id="Trazado_913690" data-name="Trazado 913690" d="M1430.148,764.06s-1.862-3.238-1.538-4.385,1.538-9.31,1.538-9.31l-3.239-14.64" transform="translate(-1313.63 -677.316)" fill="none" stroke="#1d1d1b" stroke-linecap="round" stroke-linejoin="round" stroke-width="0.5"/>
    <path id="Trazado_913691" data-name="Trazado 913691" d="M1715.152,811.358l-2.7.81,2.959.889Z" transform="translate(-1576.504 -746.945)" fill="#1d1d1b"/>
    <path id="Trazado_913692" data-name="Trazado 913692" d="M1715.152,811.358l-2.7.81,2.959.889Z" transform="translate(-1576.504 -746.945)" fill="none" stroke="#1d1d1b" stroke-linecap="round" stroke-linejoin="round" stroke-width="0.5"/>
    <path id="Trazado_913693" data-name="Trazado 913693" d="M1861.173,687.6h1.282l-1.208-1.218Z" transform="translate(-1713.417 -631.895)" fill="#1d1d1b"/>
    <path id="Trazado_913694" data-name="Trazado 913694" d="M1861.173,687.6h1.282l-1.208-1.218Z" transform="translate(-1713.417 -631.895)" fill="none" stroke="#1d1d1b" stroke-linecap="round" stroke-linejoin="round" stroke-width="0.5"/>
    <path id="Trazado_913695" data-name="Trazado 913695" d="M1870.477,544.632s1.929-1.008,4.879.814" transform="translate(-1721.983 -501.138)" fill="none" stroke="#1d1d1b" stroke-linecap="round" stroke-linejoin="round" stroke-width="0.5"/>
    <path id="Trazado_913696" data-name="Trazado 913696" d="M1509.344,676.369a29.644,29.644,0,0,1,14.033-.337" transform="translate(-1389.52 -621.739)" fill="none" stroke="#1d1d1b" stroke-linecap="round" stroke-linejoin="round" stroke-width="0.5"/>
    <line id="Línea_786" data-name="Línea 786" x2="10.997" transform="translate(122.995 101.857)" fill="none" stroke="#1d1d1b" stroke-linecap="round" stroke-linejoin="round" stroke-width="0.5"/>
    <line id="Línea_787" data-name="Línea 787" x1="0.337" y2="21.859" transform="translate(128.527 101.857)" fill="none" stroke="#1d1d1b" stroke-linecap="round" stroke-linejoin="round" stroke-width="0.5"/>
    <path id="Trazado_913697" data-name="Trazado 913697" d="M1624.071,1786.962v.944s1.619,1.619,7.759.4" transform="translate(-1495.139 -1645.098)" fill="none" stroke="#1d1d1b" stroke-linecap="round" stroke-linejoin="round" stroke-width="0.5"/>
    <line id="Línea_788" data-name="Línea 788" y2="1.687" transform="translate(119.285 141.729)" fill="none" stroke="#1d1d1b" stroke-linecap="round" stroke-linejoin="round" stroke-width="0.5"/>
    <path id="Trazado_913698" data-name="Trazado 913698" d="M1500.378,1798.3s-.675.651.54,1.259,3.036,2.564,7.489.4" transform="translate(-1381.093 -1655.54)" fill="none" stroke="#1d1d1b" stroke-linecap="round" stroke-linejoin="round" stroke-width="0.5"/>
    <line id="Línea_789" data-name="Línea 789" x1="0.41" y2="1.405" transform="translate(126.903 143.214)" fill="none" stroke="#1d1d1b" stroke-linecap="round" stroke-linejoin="round" stroke-width="0.5"/>
    <path id="Trazado_913699" data-name="Trazado 913699" d="M1472,405.44a1.431,1.431,0,0,0-.884.764.844.844,0,0,0,.333,1.046,2.622,2.622,0,0,0-.765,1.219,1.653,1.653,0,0,0,.235,1.39,1.216,1.216,0,0,0,1.289.456" transform="translate(-1353.871 -373.252)" fill="none" stroke="#1d1d1b" stroke-linecap="round" stroke-linejoin="round" stroke-width="0.5"/>
    <path id="Trazado_913700" data-name="Trazado 913700" d="M1679.262,404.167c.457.02.719.517.882.945a.564.564,0,0,1,.054.309.2.2,0,0,1-.23.162,1.775,1.775,0,0,1,.906,1.139c.076.308-.011.733-.326.776" transform="translate(-1545.948 -372.08)" fill="none" stroke="#1d1d1b" stroke-linecap="round" stroke-linejoin="round" stroke-width="0.5"/>
    <path id="Trazado_913701" data-name="Trazado 913701" d="M1726.713,473.381a1.454,1.454,0,0,1,.359,1.873" transform="translate(-1589.632 -435.8)" fill="none" stroke="#1d1d1b" stroke-linecap="round" stroke-linejoin="round" stroke-width="0.5"/>
    <path id="Trazado_913702" data-name="Trazado 913702" d="M1497.5,542.314a.949.949,0,0,0,1.053,1.525,1.534,1.534,0,0,0,.835,1.14.928.928,0,0,0,1.219-.478" transform="translate(-1378.391 -499.26)" fill="none" stroke="#1d1d1b" stroke-linecap="round" stroke-linejoin="round" stroke-width="0.5"/>
    <path id="Trazado_913703" data-name="Trazado 913703" d="M1612.819,572.475a1.433,1.433,0,0,0,2.108-.862,1.281,1.281,0,0,0,2.194-.789" transform="translate(-1484.78 -525.507)" fill="none" stroke="#1d1d1b" stroke-linecap="round" stroke-linejoin="round" stroke-width="0.5"/>
    <path id="Trazado_913704" data-name="Trazado 913704" d="M1658.3,477.24a1,1,0,0,1-.846,1.778c.2.377-.2.84-.627.876a1.968,1.968,0,0,1-1.172-.431" transform="translate(-1524.218 -439.352)" fill="none" stroke="#1d1d1b" stroke-linecap="round" stroke-linejoin="round" stroke-width="0.5"/>
    <path id="Trazado_913705" data-name="Trazado 913705" d="M1526.365,483.284a1.819,1.819,0,0,0,.632,1.333,1.054,1.054,0,0,0,1.381-.059" transform="translate(-1405.189 -444.916)" fill="none" stroke="#1d1d1b" stroke-linecap="round" stroke-linejoin="round" stroke-width="0.5"/>
    <path id="Trazado_913706" data-name="Trazado 913706" d="M2548.005,1906.876c0,2.235-9.494,4.047-21.206,4.047s-21.206-1.812-21.206-4.047,9.494-4.047,21.206-4.047,21.206,1.812,21.206,4.047" transform="translate(-2306.679 -1751.766)" fill="#1d1d1b"/>
    <rect id="Rectángulo_404159" data-name="Rectángulo 404159" width="23.364" height="6.482" transform="translate(191.082 2.415)" fill="#12263f"/>
    <rect id="Rectángulo_404160" data-name="Rectángulo 404160" width="27.357" height="6.482" transform="translate(191.082 12.33)" fill="#99a2ac"/>
    <rect id="Rectángulo_404161" data-name="Rectángulo 404161" width="27.854" height="6.482" transform="translate(191.082 22.245)" fill="#12263f"/>
    <rect id="Rectángulo_404162" data-name="Rectángulo 404162" width="32.325" height="6.482" transform="translate(191.082 32.161)" fill="#99a2ac"/>
    <rect id="Rectángulo_404163" data-name="Rectángulo 404163" width="36.338" height="6.482" transform="translate(191.082 42.076)" fill="#12263f"/>
    <rect id="Rectángulo_404164" data-name="Rectángulo 404164" width="41.621" height="6.482" transform="translate(191.082 51.992)" fill="#99a2ac"/>
    <rect id="Rectángulo_404165" data-name="Rectángulo 404165" width="49.274" height="6.482" transform="translate(191.082 61.907)" fill="#12263f"/>
    <rect id="Rectángulo_404166" data-name="Rectángulo 404166" width="61.307" height="6.482" transform="translate(191.082 71.822)" fill="#99a2ac"/>
    <rect id="Rectángulo_404167" data-name="Rectángulo 404167" width="71.9" height="6.482" transform="translate(191.082 81.738)" fill="#12263f"/>
    <rect id="Rectángulo_404168" data-name="Rectángulo 404168" width="14.094" height="3.434" transform="translate(232.786 1.762)" fill="#4b96e3"/>
    <rect id="Rectángulo_404169" data-name="Rectángulo 404169" width="24.008" height="3.434" transform="translate(232.786 6.719)" fill="#4b96e3"/>
    <path id="Trazado_913707" data-name="Trazado 913707" d="M2702.254,43.809h-5.738l-11.933,11.933" transform="translate(-2471.458 -40.331)" fill="none" stroke="#1d1d1b" stroke-linecap="round" stroke-linejoin="round" stroke-width="0.5"/>
    <path id="Trazado_913708" data-name="Trazado 913708" d="M2678.013,186.93a.62.62,0,1,1-.62-.62.62.62,0,0,1,.62.62" transform="translate(-2464.269 -171.519)" fill="#1d1d1b"/>
    <path id="Trazado_913709" data-name="Trazado 913709" d="M2611.5,1873.558s.066,3.5-.858,4.157-5.675,0-6.005-.264-.4-1.056-.4-1.056-4.29.35-5.346-.617a2.12,2.12,0,0,1,.33-3.079c.66-.33,4.818-1.848,4.818-1.848l6.269,1.388Z" transform="translate(-2392.085 -1722.328)" fill="#6b8be8"/>
    <path id="Trazado_913710" data-name="Trazado 913710" d="M2600.085,1925.726a14.8,14.8,0,0,0,5.941.527s5.915,2.833,6.851.526" transform="translate(-2393.668 -1772.845)" fill="none" stroke="#1d1d1b" stroke-linecap="round" stroke-linejoin="round" stroke-width="0.5"/>
    <path id="Trazado_913711" data-name="Trazado 913711" d="M2873.47,1880.922a27.215,27.215,0,0,0,0,3.557,22.024,22.024,0,0,0,.543,2.441s3.63.66,4.752,0l.726-1.462s1.65-1.31,1.386-2.167a10.635,10.635,0,0,0-1.386-2.31Z" transform="translate(-2645.29 -1731.598)" fill="#6b8be8"/>
    <path id="Trazado_913712" data-name="Trazado 913712" d="M2877.934,1908.873s3.365.966,4.8,0a6.876,6.876,0,0,0,2.152-3.06" transform="translate(-2649.46 -1754.513)" fill="none" stroke="#1d1d1b" stroke-linecap="round" stroke-linejoin="round" stroke-width="0.5"/>
    <path id="Trazado_913713" data-name="Trazado 913713" d="M3022.476,811.58a18.616,18.616,0,0,1,0,5.7c-.462,3.5-3.3,15.443-3.3,15.443s.33,5.741-.792,6.731a1.335,1.335,0,0,1-1.98,0l-.66-9.305s.726-18.214,1.584-18.94,4.685-.528,4.685-.528Z" transform="translate(-2776.33 -746.299)" fill="#a4c3f2"/>
    <path id="Trazado_913714" data-name="Trazado 913714" d="M2691.465,1010.637s.464,7.972.266,11.206-3.365,30.687-3.365,30.687.594,3.63.264,4.884-3.432,22.372-3.432,22.372-3.828,1.452-7.062-.594c0,0,.924-20.392.726-21.976a17.71,17.71,0,0,1,.594-5.082l-1.32-26.992s-6.005,22.9-5.939,24.616.263,7.655,0,10.361-1.781,21.514-1.781,21.514-5.412.726-7.854-2.508c0,0-.462-2.244,0-3.1a6.275,6.275,0,0,0,1.056-2.574c.066-.99-.792-21.58-.594-23.758s.858-25.936,1.452-29.961,1.716-9.094,1.716-9.094Z" transform="translate(-2450.997 -930.404)" fill="#ffbe01"/>
    <path id="Trazado_913715" data-name="Trazado 913715" d="M2861.126,1131.369l.792-2.97,6.468-2.376" transform="translate(-2633.986 -1036.63)" fill="none" stroke="#1d1d1b" stroke-linecap="round" stroke-linejoin="round" stroke-width="0.5"/>
    <path id="Trazado_913716" data-name="Trazado 913716" d="M2686.148,1010.637s-1.716,8.918-2.31,13.362-1.188,24.836-1.188,24.836-.4,24.55-.594,25.54-1.32,1.848-1.32,2.706v3.235" transform="translate(-2467.918 -930.404)" fill="none" stroke="#1d1d1b" stroke-linecap="round" stroke-linejoin="round" stroke-width="0.5"/>
    <path id="Trazado_913717" data-name="Trazado 913717" d="M2415.429,167.026l-6.837-10.691s-1.188-4.752-1.518-5.346-1.98-2.64-2.376-2.574-.33.462,0,1.122,1.452,2.442,1.452,2.442a12.859,12.859,0,0,0-2.706.99c-.66.462-1.122,1.188-.792,1.848s1.254.462,1.254.462a7.059,7.059,0,0,0,.858,1.924,2.186,2.186,0,0,0,.99.848l4.742,12.556Z" transform="translate(-2211.81 -136.632)" fill="#a4c3f2"/>
    <line id="Línea_790" data-name="Línea 790" x1="0.594" y1="1.254" transform="translate(191.503 17.394)" fill="none" stroke="#1d1d1b" stroke-linecap="round" stroke-linejoin="round" stroke-width="0.5"/>
    <path id="Trazado_913718" data-name="Trazado 913718" d="M2770.227,283.631l-3.036,7.655,1.056.528s0,4.026.792,4.554a6.379,6.379,0,0,0,2.376.66v1.914h7.325v-4.356l-7.193-11.483Z" transform="translate(-2547.508 -260.628)" fill="#a4c3f2"/>
    <path id="Trazado_913719" data-name="Trazado 913719" d="M2773.616,270.72l.024.01s1.452-4.422,1.65-5.477-1.32-3.432-.594-4.224.99-.4.99-.4,1.122-1.848,4.092-1.452,5.345.132,6.6,3.234-.462,6.929-1.056,8.051a21.28,21.28,0,0,0-1.188,3.3h-6.072l-1.122-4.224a22.279,22.279,0,0,0-.264-3.1c-.2-.665-.924-.2-1.056.721s-.66,3.828-.66,4.422a13.678,13.678,0,0,0,.66,2.178,1.584,1.584,0,0,1-.194,1.1s-1.654.485-2.314-.439a5.511,5.511,0,0,1-.848-2.683,1,1,0,0,1,1.352-1.022" transform="translate(-2552.176 -238.553)" fill="#ffbe01"/>
    <path id="Trazado_913720" data-name="Trazado 913720" d="M2814.479,333.819a1.1,1.1,0,0,0,.6.864" transform="translate(-2591.042 -307.317)" fill="none" stroke="#1d1d1b" stroke-linecap="round" stroke-linejoin="round" stroke-width="0.5"/>
    <path id="Trazado_913721" data-name="Trazado 913721" d="M2934.651,340.473a2.514,2.514,0,0,1-.535,1.968" transform="translate(-2701.181 -313.443)" fill="none" stroke="#1d1d1b" stroke-linecap="round" stroke-linejoin="round" stroke-width="0.5"/>
    <path id="Trazado_913722" data-name="Trazado 913722" d="M2918.813,390.33a.974.974,0,0,1-.327.529" transform="translate(-2686.792 -359.342)" fill="none" stroke="#1d1d1b" stroke-linecap="round" stroke-linejoin="round" stroke-width="0.5"/>
    <path id="Trazado_913723" data-name="Trazado 913723" d="M2819.276,390.338s-.284,1.43-1.028.924" transform="translate(-2594.512 -359.349)" fill="none" stroke="#1d1d1b" stroke-linecap="round" stroke-linejoin="round" stroke-width="0.5"/>
    <path id="Trazado_913724" data-name="Trazado 913724" d="M2520.32,390.18a12.9,12.9,0,0,1,7-1.584c4.553.066,6.123,1.584,6.123,1.584v1.056s6.152,1.914,7.934,3.1,2.31,9.569,2.376,12.209a54.175,54.175,0,0,0,.726,6.4s.4-.2.66.33.858,2.772.528,3.432-4.026,1.188-5.478.924-1.65-.726-1.914-1.254a24.429,24.429,0,0,1-.792-2.64l-.264,4.422s2.376,10.823,2.706,13.595c0,0-2.97,2.046-12.737,2.244s-14.057-1.452-14.057-1.452l1.386-15.047s-1.188-14.849-2.376-16.828-12.869-12.079-12.869-12.079-.2.277-.924-.29a6.238,6.238,0,0,1-1.32-1.688s1.584-3.168,4.092-4.026,3.1,0,3.1,0l1.32,1.584.066.594,4.884,3.536Z" transform="translate(-2298.789 -351.866)" fill="#fa6d61"/>
    <path id="Trazado_913725" data-name="Trazado 913725" d="M2525.239,412.141s-.2-1.78,2.112-3.1a7.525,7.525,0,0,1,3.63-1.254" transform="translate(-2324.761 -375.413)" fill="none" stroke="#1d1d1b" stroke-linecap="round" stroke-linejoin="round" stroke-width="0.5"/>
    <path id="Trazado_913726" data-name="Trazado 913726" d="M3009.967,564.907s-2.178,13-2.64,14.321a21.613,21.613,0,0,0-.726,2.706" transform="translate(-2767.912 -520.06)" fill="none" stroke="#1d1d1b" stroke-linecap="round" stroke-linejoin="round" stroke-width="0.5"/>
    <line id="Línea_791" data-name="Línea 791" y2="0.792" transform="translate(245.684 61.082)" fill="none" stroke="#1d1d1b" stroke-linecap="round" stroke-linejoin="round" stroke-width="0.5"/>
    <path id="Trazado_913727" data-name="Trazado 913727" d="M3024.057,780.236a17.39,17.39,0,0,0,6.071-.858" transform="translate(-2783.982 -717.504)" fill="none" stroke="#1d1d1b" stroke-linecap="round" stroke-linejoin="round" stroke-width="0.5"/>
    <line id="Línea_792" data-name="Línea 792" x2="13.119" y2="1.056" transform="translate(221.531 38.314)" fill="none" stroke="#1d1d1b" stroke-linecap="round" stroke-linejoin="round" stroke-width="0.5"/>
    <path id="Trazado_913728" data-name="Trazado 913728" d="M2891.237,579.039l-1.848,18.388s1.188.223.924.817a7.662,7.662,0,0,0-.4,1.122l1.32,12.681" transform="translate(-2660.005 -533.07)" fill="none" stroke="#1d1d1b" stroke-linecap="round" stroke-linejoin="round" stroke-width="0.5"/>
    <path id="Trazado_913729" data-name="Trazado 913729" d="M2836.188,807.116a96.912,96.912,0,0,0,10.427-.305" transform="translate(-2611.028 -742.759)" fill="none" stroke="#1d1d1b" stroke-linecap="round" stroke-linejoin="round" stroke-width="0.5"/>
  </g>
</svg>
